<svg width="13" height="13" viewBox="0 0 13 13" fill="none" xmlns="http://www.w3.org/2000/svg">
    <path fill-rule="evenodd" clip-rule="evenodd" d="M1.0835 6.49992C1.0835 3.50992 3.51016 1.08325 6.50016 1.08325C9.49016 1.08325 11.9168 3.50992 11.9168 6.49992C11.9168 9.48992 9.49016 11.9166 6.50016 11.9166C3.51016 11.9166 1.0835 9.48992 1.0835 6.49992ZM3.08766 6.87909L5.03225 8.82367C5.2435 9.03492 5.59016 9.03492 5.796 8.82367L9.90725 4.71242C10.1185 4.50117 10.1185 4.15992 9.90725 3.94867C9.696 3.73742 9.35475 3.73742 9.1435 3.94867L5.41683 7.67534L3.85141 6.11534C3.64016 5.90409 3.29891 5.90409 3.08766 6.11534C2.98623 6.21654 2.92923 6.35393 2.92923 6.49721C2.92923 6.64049 2.98623 6.77788 3.08766 6.87909Z" fill="#20DDAD"/>
</svg>
