<svg width="36" height="36" viewBox="0 0 36 36" fill="none" xmlns="http://www.w3.org/2000/svg">
<g opacity="0.6">
<path d="M34.8 22.2622V2.3998C34.8 2.068 34.5312 1.7998 34.2 1.7998H0.6C0.2688 1.7998 0 2.068 0 2.3998V28.7998C0 29.1316 0.2688 29.3998 0.6 29.3998H21.0018C22.1796 32.2156 24.9618 34.1998 28.2 34.1998C32.5008 34.1998 36 30.7006 36 26.3998C36 24.8788 35.556 23.4628 34.8 22.2622ZM20.6154 28.1998H1.2V2.9998H33.6V20.773C33.498 20.6746 33.3876 20.5864 33.2808 20.494C33.228 20.449 33.1782 20.401 33.1242 20.3572C32.9832 20.242 32.8362 20.1352 32.6874 20.0302C32.6322 19.9912 32.5788 19.9492 32.5224 19.9114C32.3754 19.8136 32.2236 19.7242 32.07 19.6366C32.0046 19.5988 31.9416 19.5586 31.875 19.5232C31.8288 19.4986 31.7826 19.4734 31.7358 19.4494C31.8432 19.2184 31.803 18.9382 31.605 18.757L24.405 12.157C24.2874 12.0496 24.135 11.9908 23.973 11.9998C23.814 12.007 23.664 12.0772 23.5566 12.1948L17.6802 18.631L14.8344 15.7852C14.61 15.5614 14.2512 15.5506 14.0136 15.7588L3.8034 24.7492C3.5544 24.9682 3.5304 25.3474 3.7494 25.5964C3.8682 25.7314 4.0338 25.7998 4.2 25.7998C4.3404 25.7998 4.482 25.7506 4.596 25.6504L14.3838 17.0332L20.565 23.2138C20.6868 23.3356 20.847 23.3908 21.0066 23.386C20.6166 24.3136 20.4 25.3318 20.4 26.3998C20.4 26.6956 20.4198 26.986 20.4522 27.2734C20.4576 27.3184 20.4666 27.3628 20.4726 27.4078C20.5062 27.6646 20.5512 27.9172 20.6088 28.165C20.6118 28.1764 20.6124 28.1884 20.6154 28.1998ZM29.2674 18.6814C29.1702 18.6682 29.0748 18.6484 28.9764 18.6388C28.7202 18.6136 28.461 18.5998 28.2 18.5998C25.3362 18.5998 22.8348 20.1556 21.4782 22.462C21.4566 22.4296 21.4422 22.3936 21.414 22.3648L18.5298 19.4806L24.0384 13.4482L29.8548 18.7804C29.8146 18.7714 29.775 18.7612 29.7348 18.7534C29.5806 18.7222 29.4234 18.703 29.2674 18.6814ZM28.2 32.9998C25.3278 32.9998 22.8846 31.1518 21.9798 28.585C21.9234 28.4248 21.8742 28.2634 21.8304 28.1014C21.8214 28.0666 21.8124 28.0324 21.8034 27.9976C21.7674 27.8548 21.7362 27.712 21.7098 27.568C21.6954 27.4882 21.6846 27.4078 21.6732 27.3274C21.6576 27.2194 21.6408 27.1114 21.6306 27.0034C21.6126 26.8042 21.6 26.6032 21.6 26.3998C21.6 22.7608 24.561 19.7998 28.2 19.7998C28.4556 19.7998 28.7088 19.8184 28.959 19.8472C29.0352 19.8562 29.109 19.8706 29.184 19.8814C29.3586 19.9078 29.5314 19.939 29.7018 19.9786C29.7864 19.9984 29.8704 20.0206 29.9544 20.0434C30.1152 20.0878 30.273 20.1388 30.4296 20.1952C30.51 20.224 30.591 20.2516 30.6696 20.2834C30.8466 20.3548 31.0194 20.4364 31.1892 20.5228C31.239 20.548 31.2912 20.569 31.3404 20.5954C31.5456 20.7064 31.743 20.8312 31.9356 20.9638C32.0142 21.0178 32.0886 21.0778 32.1648 21.1354C32.2842 21.2254 32.4018 21.3184 32.5152 21.4168C32.5914 21.4828 32.6658 21.5512 32.739 21.6202C32.8548 21.7306 32.9664 21.8464 33.0744 21.9652C33.1308 22.027 33.189 22.0864 33.243 22.1506C33.3996 22.3372 33.549 22.531 33.6864 22.7362C34.389 23.7856 34.8 25.0456 34.8 26.3998C34.8 30.0388 31.839 32.9998 28.2 32.9998Z" fill="#515973"/>
<path d="M31.8 25.8002H28.8V22.8002C28.8 22.4684 28.5312 22.2002 28.2 22.2002C27.8688 22.2002 27.6 22.4684 27.6 22.8002V25.8002H24.6C24.2688 25.8002 24 26.0684 24 26.4002C24 26.732 24.2688 27.0002 24.6 27.0002H27.6V30.0002C27.6 30.332 27.8688 30.6002 28.2 30.6002C28.5312 30.6002 28.8 30.332 28.8 30.0002V27.0002H31.8C32.1312 27.0002 32.4 26.732 32.4 26.4002C32.4 26.0684 32.1312 25.8002 31.8 25.8002Z" fill="#515973"/>
<path d="M9.5997 15.0822C11.4423 15.0822 12.9411 13.5834 12.9411 11.7414C12.9411 9.89821 11.4423 8.39941 9.5997 8.39941C7.7571 8.39941 6.2583 9.89821 6.2583 11.7408C6.2583 13.5834 7.7571 15.0822 9.5997 15.0822ZM9.5997 9.59941C10.7805 9.59941 11.7411 10.5606 11.7411 11.7408C11.7411 12.921 10.7805 13.8822 9.5997 13.8822C8.4189 13.8822 7.4583 12.9216 7.4583 11.7414C7.4583 10.5612 8.4189 9.59941 9.5997 9.59941Z" fill="#515973"/>
</g>
</svg>
