<svg width="112" height="112" viewBox="0 0 112 112" fill="none" xmlns="http://www.w3.org/2000/svg">
<circle cx="56" cy="56" r="56" fill="#4B70F3" fill-opacity="0.05"/>
<path d="M82.2352 69.4369L67.3781 76.5997H64.6671C66.7635 76.5997 68.4628 74.8706 68.4628 72.7375C68.4628 70.6045 66.7635 68.8754 64.6671 68.8754H51.1115C46.6174 64.3037 39.6901 63.3162 34.1357 66.4567L33.7603 66.6684V87.6339H62.1347C65.5695 87.6339 68.9433 86.7115 71.9154 84.9617L85.9756 76.6779C87.9038 75.5547 88.5715 73.0545 87.4677 71.0925C86.42 69.2307 84.1363 68.5082 82.2352 69.4369Z" fill="#FFB782"/>
<path d="M24 66.6683H33.7599V87.6339H24V66.6683Z" fill="#4398D1"/>
<path d="M39.1823 32.4615C38.8115 30.1983 37.0686 28.4253 34.8447 28.0479C37.0686 27.6706 38.8115 25.8971 39.1823 23.6339C39.5532 25.8971 41.2961 27.6706 43.5199 28.0479C41.2961 28.4253 39.5532 30.1983 39.1823 32.4615Z" fill="#F8B64C"/>
<path d="M29.4225 81.0133C29.4225 82.2324 28.4516 83.2203 27.2535 83.2203C26.0558 83.2203 25.0845 82.2324 25.0845 81.0133C25.0845 79.7946 26.0558 78.8063 27.2535 78.8063C28.4516 78.8063 29.4225 79.7946 29.4225 81.0133Z" fill="#126099"/>
<path d="M78.2224 60.0477C77.8515 57.7845 76.1086 56.0115 73.8848 55.6341C76.1086 55.2568 77.8515 53.4833 78.2224 51.2201C78.5932 53.4833 80.3362 55.2568 82.56 55.6341C80.3362 56.0115 78.5932 57.7845 78.2224 60.0477Z" fill="#F8B64C"/>
<path d="M55.9979 59.6174C63.7294 59.6174 69.997 53.24 69.997 45.373C69.997 37.5061 63.7294 31.1287 55.9979 31.1287C48.2664 31.1287 41.9988 37.5061 41.9988 45.373C41.9988 53.24 48.2664 59.6174 55.9979 59.6174Z" fill="#FFD15C"/>
<path d="M55.9972 55.6702C61.5866 55.6702 66.1177 51.0597 66.1177 45.3724C66.1177 39.6851 61.5866 35.0746 55.9972 35.0746C50.4078 35.0746 45.8767 39.6851 45.8767 45.3724C45.8767 51.0597 50.4078 55.6702 55.9972 55.6702Z" fill="#F8B64C"/>
<path d="M62.8913 43.383H58.2276C58.047 43.383 57.89 43.2632 57.835 43.0954L56.3904 38.5736C56.2647 38.1901 55.7308 38.1901 55.6052 38.5736L54.1605 43.0874C54.1056 43.2632 53.9486 43.375 53.768 43.375H49.1042C48.7038 43.375 48.5389 43.8943 48.8608 44.134L52.6374 46.9221C52.7787 47.026 52.8415 47.2177 52.7865 47.3935L51.3419 51.9072C51.2163 52.2907 51.6559 52.6183 51.9778 52.3786L55.7544 49.5904C55.8957 49.4866 56.092 49.4866 56.2412 49.5904L60.0177 52.3786C60.3396 52.6183 60.7715 52.2987 60.6537 51.9072L59.209 47.3935C59.1541 47.2177 59.2169 47.034 59.3582 46.9221L63.1347 44.134C63.4566 43.9023 63.2918 43.383 62.8913 43.383Z" fill="white"/>
</svg>
