<svg width="112" height="112" viewBox="0 0 112 112" fill="none" xmlns="http://www.w3.org/2000/svg">
<circle cx="56" cy="56" r="56" fill="#4B70F3" fill-opacity="0.05"/>
<path d="M65.4689 66.9646C64.6943 66.9646 64.0652 66.3376 64.063 65.5623C64.0604 64.786 64.6881 64.1543 65.4649 64.1521C68.9973 64.1411 72.3581 62.0083 74.9278 58.1462C77.3942 54.4394 78.8433 49.5919 79.0641 44.3708H72.87C72.0933 44.3708 71.4638 43.7413 71.4638 42.9646C71.4638 42.1878 72.0933 41.5583 72.87 41.5583H80.5C81.2768 41.5583 81.9063 42.1878 81.9063 42.9646C81.9063 49.2656 80.2594 55.2103 77.2697 59.7044C74.1635 64.3722 69.9744 66.9507 65.4736 66.9646C65.4722 66.9646 65.4707 66.9646 65.4689 66.9646Z" fill="#FF8E1D"/>
<path d="M50.3436 66.9646C50.3418 66.9646 50.3407 66.9646 50.3392 66.9646C45.8385 66.9507 41.649 64.3722 38.5432 59.7044C35.5531 55.2103 33.9062 49.2656 33.9062 42.9646C33.9062 42.1878 34.5358 41.5583 35.3125 41.5583H42.9425C43.7192 41.5583 44.3488 42.1878 44.3488 42.9646C44.3488 43.7413 43.7192 44.3708 42.9425 44.3708H36.7484C36.9692 49.5919 38.4183 54.4394 40.8848 58.1462C43.4545 62.0083 46.8152 64.1411 50.3477 64.1521C51.1244 64.1543 51.7521 64.786 51.7495 65.5623C51.7473 66.3376 51.1182 66.9642 50.3436 66.9646Z" fill="#FFB023"/>
<path d="M72.9688 38.0938H42.8435C42.0671 38.0938 41.4373 38.7233 41.4373 39.5C41.4373 47.7606 43.057 55.5492 45.9977 61.4305C47.8818 65.1985 50.186 67.9337 52.7341 69.4996V77.156C52.7341 77.9327 53.364 78.5623 54.1404 78.5623H61.6719C62.4486 78.5623 63.0781 77.9327 63.0781 77.156V69.4996C65.6262 67.9341 67.9308 65.1985 69.8146 61.4305C72.7552 55.5492 74.375 47.7606 74.375 39.5C74.375 38.7233 73.7455 38.0938 72.9688 38.0938Z" fill="#FFD12B"/>
<path d="M63.0782 77.156V69.4996C65.6263 67.9341 67.9309 65.1985 69.8147 61.4305C72.7554 55.5492 74.3751 47.7606 74.3751 39.5C74.3751 38.7233 73.7456 38.0938 72.9689 38.0938H57.9062V78.5623H61.672C62.4487 78.5623 63.0782 77.9327 63.0782 77.156Z" fill="#FFB023"/>
<path d="M65.4374 75.7496H50.3751C47.5234 75.7496 45.2031 78.0699 45.2031 80.9216V84.6874C45.2031 85.4637 45.8326 86.0933 46.6094 86.0933H69.2031C69.9799 86.0933 70.6094 85.4637 70.6094 84.6874V80.9216C70.6094 78.0699 68.2894 75.7496 65.4374 75.7496Z" fill="#FF8E1D"/>
<path d="M65.4374 75.7496H57.9062V86.0933H69.2031C69.9799 86.0933 70.6094 85.4637 70.6094 84.6874V80.9216C70.6094 78.0699 68.2894 75.7496 65.4374 75.7496Z" fill="#FF6D15"/>
<path d="M70.7095 86.0934H45.1033C44.3269 86.0934 43.697 85.4639 43.697 84.6875C43.697 83.9108 44.3269 83.2812 45.1033 83.2812H70.7095C71.4862 83.2812 72.1157 83.9108 72.1157 84.6875C72.1157 85.4639 71.4862 86.0934 70.7095 86.0934Z" fill="#FFB023"/>
<path d="M70.7093 83.2812H57.9062V86.0934H70.7093C71.4861 86.0934 72.1156 85.4639 72.1156 84.6875C72.1156 83.9108 71.4861 83.2812 70.7093 83.2812Z" fill="#FF8E1D"/>
<path d="M83.5 81C83.1153 78.6926 81.3071 76.8849 79 76.5002C81.3071 76.1155 83.1153 74.3074 83.5 72C83.8847 74.3074 85.6929 76.1155 88 76.5002C85.6929 76.8849 83.8847 78.6926 83.5 81Z" fill="#F8B64C"/>
<path d="M28.5 65C28.1153 62.6926 26.3071 60.8849 24 60.5002C26.3071 60.1155 28.1153 58.3074 28.5 56C28.8847 58.3074 30.6929 60.1155 33 60.5002C30.6929 60.8849 28.8847 62.6926 28.5 65Z" fill="#F8B64C"/>
<path d="M68 30C67.7435 28.4617 66.5381 27.2566 65 27.0001C66.5381 26.7437 67.7435 25.5383 68 24C68.2565 25.5383 69.4619 26.7437 71 27.0001C69.4619 27.2566 68.2565 28.4617 68 30Z" fill="#F8B64C"/>
</svg>
