<svg width="112" height="112" viewBox="0 0 112 112" fill="none" xmlns="http://www.w3.org/2000/svg">
<circle cx="56" cy="56" r="56" fill="#4B70F3" fill-opacity="0.05"/>
<g clip-path="url(#clip0)">
<path d="M41.356 79.322H52.2034V83.661H41.356V79.322Z" fill="#F8B64C"/>
<path d="M26.1694 79.322H37.0169V83.661H26.1694V79.322Z" fill="#F8B64C"/>
<path d="M60.8813 79.322H71.7288V83.661H60.8813V79.322Z" fill="#F8B64C"/>
<path d="M76.0676 74.983H86.9151V79.322H76.0676V74.983Z" fill="#F8B64C"/>
<path d="M41.356 70.6441H52.2034V74.983H41.356V70.6441Z" fill="#F8B64C"/>
<path d="M26.1694 70.6441H37.0169V74.983H26.1694V70.6441Z" fill="#F8B64C"/>
<path d="M39.1863 61.9661H50.0337V66.3051H39.1863V61.9661Z" fill="#F8B64C"/>
<path d="M58.7119 70.6441H69.5594V74.983H58.7119V70.6441Z" fill="#F8B64C"/>
<path d="M76.0676 66.3051H86.9151V70.6441H76.0676V66.3051Z" fill="#F8B64C"/>
<path d="M76.0676 57.6271H86.9151V61.9661H76.0676V57.6271Z" fill="#F8B64C"/>
<path d="M76.0676 48.9492H86.9151V53.2881H76.0676V48.9492Z" fill="#F8B64C"/>
<path d="M58.7119 61.9661H69.5594V66.3051H58.7119V61.9661Z" fill="#F8B64C"/>
<path d="M43.5254 74.983H54.3728V79.322H43.5254V74.983Z" fill="#FFD15C"/>
<path d="M41.356 66.3051H52.2034V70.6441H41.356V66.3051Z" fill="#FFD15C"/>
<path d="M76.0679 79.322H86.9153V83.661H76.0679V79.322Z" fill="#FFD15C"/>
<path d="M24 75H34.8475V79.339H24V75Z" fill="#FFD15C"/>
<path d="M58.7119 74.983H69.5594V79.322H58.7119V74.983Z" fill="#FFD15C"/>
<path d="M73.8982 70.6441H84.7457V74.9831H73.8982V70.6441Z" fill="#FFD15C"/>
<path d="M56.5425 66.3051H67.3899V70.6441H56.5425V66.3051Z" fill="#FFD15C"/>
<path d="M76.0679 61.9661H86.9153V66.3051H76.0679V61.9661Z" fill="#FFD15C"/>
<path d="M73.8982 53.2881H84.7457V57.6271H73.8982V53.2881Z" fill="#FFD15C"/>
<path d="M76.0679 44.6102H86.9153V48.9492H76.0679V44.6102Z" fill="#FFD15C"/>
<path d="M56.5425 57.6271H67.3899V61.9661H56.5425V57.6271Z" fill="#FFD15C"/>
<path d="M87.5238 24.1864C87.2256 23.9846 86.8463 23.9438 86.5116 24.0778L81.0879 26.2473L81.8951 28.2627L84.2717 27.3114L78.1212 37.3067L74.7452 33.0858C74.536 32.8114 74.2039 32.6589 73.8591 32.678C73.5158 32.6901 73.1991 32.8644 73.0042 33.1478L61.7558 49.51L55.0789 43.7865C54.8575 43.5964 54.5683 43.5037 54.2775 43.5296C53.9862 43.5556 53.7182 43.6975 53.5333 43.9232L44.5905 54.8522L38.9247 48.2442C38.6954 47.9762 38.35 47.8368 37.9994 47.8702C37.6482 47.9031 37.3352 48.1049 37.1599 48.411L28.4819 63.5974L30.3654 64.6737L38.2838 50.8247L43.7913 57.2473C44.0036 57.4857 44.3071 57.6239 44.6265 57.6271C44.9475 57.6234 45.2505 57.4777 45.4539 57.2288L54.5137 46.1557L61.2642 51.9417C61.4978 52.1419 61.8056 52.2336 62.1106 52.1938C62.4163 52.1541 62.6901 51.9862 62.8643 51.7325L73.9645 35.5816L77.3903 39.8644C77.6133 40.1366 77.9528 40.2871 78.3045 40.2691C78.6567 40.2473 78.9766 40.0556 79.1615 39.7548L85.8305 28.9168V31.5932H87.9999V25.0847C87.9999 24.7246 87.8214 24.3882 87.5238 24.1864Z" fill="url(#paint0_linear)"/>
<path d="M24 83.661H86.9153V88H24V83.661Z" fill="#B0564C"/>
</g>
<defs>
<linearGradient id="paint0_linear" x1="53.7971" y1="37.5208" x2="52.6362" y2="60.1487" gradientUnits="userSpaceOnUse">
<stop stop-color="#5ED5CC"/>
<stop offset="1" stop-color="#2BADC6"/>
</linearGradient>
<clipPath id="clip0">
<rect width="64" height="64" fill="white" transform="translate(24 24)"/>
</clipPath>
</defs>
</svg>
