<svg width="112" height="112" viewBox="0 0 112 112" fill="none" xmlns="http://www.w3.org/2000/svg">
<path d="M112 56C112 66.2355 109.255 75.8308 104.457 84.0868C94.7634 100.777 76.6927 112 56 112C35.3073 112 17.2366 100.777 7.54294 84.0868C2.74509 75.8308 0 66.2355 0 56C0 25.072 25.072 0 56 0C86.928 0 112 25.072 112 56Z" fill="#FEC754"/>
<path d="M104.457 56.9761V84.0869C94.7634 100.777 76.6927 112 56 112C35.3074 112 17.2367 100.777 7.54297 84.0869V56.9761H104.457Z" fill="#0A1333"/>
<path d="M100.77 69.7762H11.2286C9.19252 69.7762 7.54205 68.1257 7.54205 66.0896V52.4342C7.54205 50.398 9.19252 48.7476 11.2286 48.7476H100.77C102.806 48.7476 104.456 50.398 104.456 52.4342V66.0896C104.456 68.1257 102.806 69.7762 100.77 69.7762Z" fill="#515973"/>
<path d="M80.4571 56.0615H31.5405V62.4615H80.4571V56.0615Z" fill="#0A1333"/>
<path d="M96.7978 30.8474L65.184 62.4611H43.6778L37.28 56.0611L27.5452 46.3263C25.9978 44.7811 25.9978 42.2716 27.5452 40.7263L67.1108 1.16058C68.6582 -0.386859 71.1655 -0.386859 72.7129 1.16058L96.7975 25.2452C98.3452 26.7926 98.3452 29.2999 96.7978 30.8474Z" fill="#E9EBF3"/>
<path d="M61.4115 27.4959L55.2698 21.3543C54.8234 20.9079 54.8234 20.1844 55.2698 19.7382L61.4115 13.5966C61.8579 13.1501 62.5813 13.1501 63.0276 13.5966L69.1692 19.7382C69.6157 20.1847 69.6157 20.9081 69.1692 21.3543L63.0276 27.4959C62.5813 27.9424 61.8577 27.9424 61.4115 27.4959ZM57.694 20.5463L62.2195 25.0718L66.745 20.5463L62.2195 16.0208L57.694 20.5463Z" fill="#515973"/>
<path d="M82.2608 38.6484L70.3006 26.6883C69.8541 26.2418 69.8541 25.5184 70.3006 25.0722C70.7471 24.6257 71.4705 24.6257 71.9167 25.0722L83.8769 37.0323C84.3234 37.4788 84.3234 38.2022 83.8769 38.6484C83.4309 39.0945 82.7072 39.0947 82.2608 38.6484Z" fill="#515973"/>
<path d="M74.8261 38.325L66.745 30.2439C66.2985 29.7975 66.2985 29.0741 66.745 28.6278C67.1915 28.1814 67.9149 28.1814 68.3611 28.6278L76.4422 36.7089C76.8887 37.1553 76.8887 37.8788 76.4422 38.325C75.9962 38.7715 75.2726 38.7715 74.8261 38.325Z" fill="#515973"/>
<path d="M51.4713 37.4354L45.3297 31.2938C44.8832 30.8473 44.8832 30.1239 45.3297 29.6776L51.4713 23.536C51.9178 23.0896 52.6412 23.0896 53.0874 23.536L59.229 29.6776C59.6755 30.1241 59.6755 30.8475 59.229 31.2938L53.0874 37.4354C52.6414 37.8819 51.9178 37.8819 51.4713 37.4354ZM47.7541 30.4857L52.2796 35.0112L56.8051 30.4857L52.2796 25.9602L47.7541 30.4857Z" fill="#515973"/>
<path d="M72.321 48.5879L60.3609 36.6277C59.9144 36.1813 59.9144 35.4579 60.3609 35.0116C60.8073 34.5651 61.5307 34.5651 61.977 35.0116L73.9371 46.9718C74.3836 47.4182 74.3836 48.1416 73.9371 48.5879C73.4911 49.0341 72.7675 49.0344 72.321 48.5879Z" fill="#515973"/>
<path d="M64.8861 48.265L56.8051 40.1839C56.3586 39.7374 56.3586 39.014 56.8051 38.5678C57.2515 38.1213 57.9749 38.1213 58.4212 38.5678L66.5023 46.6488C66.9487 47.0953 66.9487 47.8187 66.5023 48.265C66.0562 48.711 65.3326 48.711 64.8861 48.265Z" fill="#515973"/>
<path d="M41.5315 47.3758L35.3898 41.2342C34.9434 40.7877 34.9434 40.0643 35.3898 39.6181L41.5315 33.4765C41.9779 33.03 42.7013 33.03 43.1476 33.4765L49.2892 39.6181C49.7357 40.0645 49.7357 40.788 49.2892 41.2342L43.1476 47.3758C42.7016 47.8223 41.9779 47.8223 41.5315 47.3758ZM37.8143 40.4261L42.3398 44.9516L46.8653 40.4261L42.3398 35.9006L37.8143 40.4261Z" fill="#515973"/>
<path d="M62.381 58.5283L50.4208 46.5682C49.9743 46.1217 49.9743 45.3983 50.4208 44.952C50.8673 44.5056 51.5907 44.5056 52.0369 44.952L63.9971 56.9122C64.4435 57.3587 64.4435 58.0821 63.9971 58.5283C63.551 58.9746 62.8274 58.9746 62.381 58.5283Z" fill="#515973"/>
<path d="M54.9463 58.2049L46.8652 50.1238C46.4188 49.6774 46.4188 48.954 46.8652 48.5077C47.3117 48.0612 48.0351 48.0612 48.4814 48.5077L56.5624 56.5888C57.0089 57.0352 57.0089 57.7586 56.5624 58.2049C56.1164 58.6511 55.3928 58.6511 54.9463 58.2049Z" fill="#515973"/>
<path d="M49.8551 32.9103C49.6481 32.7034 49.5202 32.4177 49.5204 32.1022V25.9606C49.5204 25.3293 50.0318 24.8179 50.6631 24.8179C51.294 24.8177 51.8063 25.3297 51.8057 25.9604V30.9593H61.0877C61.7185 30.9591 62.2309 31.4711 62.2302 32.1018C62.2302 32.7331 61.7188 33.245 61.0875 33.2448H50.6627C50.3477 33.245 50.062 33.117 49.8551 32.9103Z" fill="#ED5052"/>
</svg>
