<svg width="10" height="11" viewBox="0 0 10 11" fill="none" xmlns="http://www.w3.org/2000/svg">
<path d="M0.975617 2.27064L0.975617 1.41239C0.975617 1.04899 1.26943 0.755172 1.63091 0.757104L9.14448 0.75517C9.50789 0.75517 9.8017 1.04899 9.79977 1.41046L9.79977 8.92597C9.79977 9.28937 9.50595 9.58319 9.14448 9.58126L8.28623 9.58126C7.91896 9.58126 7.62321 9.27778 7.63094 8.9105L7.74112 4.36215L2.18568 9.9176C1.92859 10.1747 1.51492 10.1747 1.25783 9.9176L0.639274 9.29904C0.382185 9.04195 0.382185 8.62829 0.639274 8.3712L6.19472 2.81575L1.64637 2.92593C1.27717 2.9356 0.973684 2.63985 0.975617 2.27064Z" fill="#20DDAD"/>
</svg>
