<svg width="16" height="16" viewBox="0 0 16 16" fill="none" xmlns="http://www.w3.org/2000/svg">
    <path fill-rule="evenodd" clip-rule="evenodd" d="M2.66671 2.6665H13.3334C14.0667 2.6665 14.6667 3.2665 14.6667 3.99984V11.9998C14.6667 12.7332 14.0667 13.3332 13.3334 13.3332H2.66671C1.93337 13.3332 1.33337 12.7332 1.33337 11.9998L1.34004 3.99984C1.34004 3.2665 1.93337 2.6665 2.66671 2.6665ZM8.35343 8.4465L13.0668 5.49983C13.2334 5.39317 13.3334 5.21317 13.3334 5.01983C13.3334 4.57317 12.8468 4.3065 12.4668 4.53983L8.00009 7.33316L3.53343 4.53983C3.15343 4.3065 2.66676 4.57317 2.66676 5.01983C2.66676 5.21317 2.76676 5.39317 2.93343 5.49983L7.64676 8.4465C7.86009 8.57983 8.14009 8.57983 8.35343 8.4465Z" fill="#0A1333"/>
</svg>
