<svg width="129" height="134" viewBox="0 0 129 134" fill="none" xmlns="http://www.w3.org/2000/svg">
<path d="M67.6315 5.85172C32.2715 3.91369 2.03556 31.0079 0.0977911 66.368C-1.26577 91.2496 11.7459 113.594 31.8972 125.326H96.3277C114.354 114.835 126.921 95.7679 128.148 73.3852C130.086 38.0254 102.992 7.78949 67.6315 5.85172Z" fill="#195E79"/>
<path d="M83.293 67.3991C82.8141 66.129 83.4553 64.711 84.7254 64.2318C98.4377 59.0597 111.851 47.8524 115.744 33.7839C118.292 24.5772 113.666 15.4384 104.065 15.4384C99.2254 15.4384 95.392 19.52 95.7286 24.3934C95.9068 26.9797 97.3343 29.381 99.5466 30.816C100.686 31.5546 101.01 33.077 100.271 34.216C99.5324 35.3547 98.01 35.6801 96.8713 34.9402C93.369 32.6685 91.1082 28.8521 90.8243 24.7313C90.5675 21.0068 91.8232 17.4584 94.3604 14.7399C100.689 7.95983 112.061 9.75286 117.593 17.0232C129.221 32.3062 112.706 58.9314 86.4609 68.8315C85.1892 69.3104 83.7722 68.6692 83.293 67.3991Z" fill="#FAB941"/>
<path d="M96.8709 34.9399C98.0096 35.6796 99.5323 35.3545 100.271 34.2158C101.009 33.0768 100.685 31.5543 99.5462 30.8158C97.3339 29.3808 95.9067 26.9795 95.7282 24.3932C95.5659 22.0427 96.3563 19.8058 97.9536 18.0944C101.88 13.888 108.699 15.1603 112.282 18.4605C111.273 16.2917 113.452 14.0019 115.668 14.9001C109.99 9.63301 100.132 8.55551 94.3597 14.7397C91.8226 17.4579 90.5669 21.0065 90.8236 24.7311C91.1081 28.8518 93.3686 32.6682 96.8709 34.9399Z" fill="#F6A221"/>
<path d="M41.7852 68.8321C34.0783 65.9249 26.8899 61.4751 20.9973 55.9633C10.1263 45.7956 1.64949 28.8574 10.6532 17.0237C16.1809 9.75894 27.5518 7.95491 33.8857 14.7405C36.4228 17.4587 37.6785 21.0074 37.4218 24.7319C37.1378 28.8527 34.8771 32.669 31.3745 34.9408C30.236 35.6804 28.7136 35.3556 27.9748 34.2161C27.2359 33.0773 27.5602 31.5552 28.6992 30.8163C30.9115 29.3811 32.3389 26.9801 32.5172 24.3937C32.6794 22.0432 31.889 19.8063 30.2918 18.095C26.1715 13.6808 18.3553 15.02 14.5656 20.0005C11.8665 23.5484 11.0947 28.7011 12.5014 33.7845C14.334 40.4055 18.433 46.8335 24.3555 52.3733C29.7053 57.3769 36.5113 61.5885 43.5201 64.2321C44.7902 64.7113 45.4314 66.1293 44.9525 67.3994C44.4743 68.6669 43.0592 69.3115 41.7852 68.8321Z" fill="#FAB941"/>
<path d="M58.1646 99.7346C59.6409 99.0248 61.5863 96.5044 61.5863 88.1509C59.9037 88.1509 58.2444 88.1509 56.6655 88.1509C56.6655 96.5042 50.9464 99.0245 46.6063 99.7346C43.8347 100.188 41.8142 102.606 41.8142 105.414V107.355H56.5343C56.5532 107.159 56.2252 100.667 58.1646 99.7346Z" fill="#F6A221"/>
<path d="M81.6397 99.7346C77.2996 99.0248 71.5805 96.5044 71.5805 88.1509C70.0016 88.1509 68.3423 88.1509 66.6597 88.1509C66.6597 96.5042 68.605 99.0245 70.0814 99.7346C72.0103 100.662 71.6938 107.172 71.7114 107.355H86.4318V105.414C86.4318 102.606 84.4113 100.188 81.6397 99.7346Z" fill="#FAD964"/>
<path d="M73.0604 107.355V105.414C73.0604 102.606 72.2509 100.188 71.1407 99.7346C69.4021 99.0248 67.1108 96.5044 67.1108 88.1509C65.2123 88.1509 63.034 88.1509 61.1355 88.1509C61.1355 96.5042 58.8444 99.0245 57.1055 99.7346C55.995 100.188 55.1858 102.606 55.1858 105.414V107.355H73.0604Z" fill="#FAB941"/>
<path d="M100.706 8.19287C70.3593 8.19287 59.2187 8.19287 27.5408 8.19287C40.911 18.2725 36.3806 36.4117 36.3806 54.978C36.3806 76.1681 54.6789 80.6124 54.6789 80.6124H64.1233H73.5677C73.5677 80.6124 91.8661 76.1681 91.8661 54.978C91.8658 36.4117 87.3355 18.2722 100.706 8.19287Z" fill="#FFD15C"/>
<path d="M54.6755 54.978C54.6755 36.4117 57.9175 18.2722 48.3498 8.19287C42.3036 8.19287 35.585 8.19287 27.5408 8.19287C40.911 18.2725 36.3806 36.4117 36.3806 54.978C36.3806 76.1681 54.6789 80.6124 54.6789 80.6124C58.537 80.6124 63.7774 80.6124 67.7696 80.6124C67.7696 80.6124 54.6755 76.1679 54.6755 54.978Z" fill="#F8B64C"/>
<path d="M92.6092 106.7H35.6363C33.4492 106.7 31.6763 108.473 31.6763 110.66V125.197C40.2143 130.214 50.0442 133.324 60.614 133.903C73.6913 134.62 86.0657 131.362 96.569 125.187V110.66C96.5693 108.473 94.7964 106.7 92.6092 106.7Z" fill="#4896E9"/>
<path d="M51.7001 110.659C51.7001 108.472 53.473 106.699 55.6602 106.699H35.6366C33.4494 106.699 31.6765 108.472 31.6765 110.659V125.196C37.7607 128.771 44.5036 131.371 51.7001 132.783V110.659Z" fill="#4A7BF0"/>
<path d="M73.5673 88.8068H54.6788C52.2351 88.8068 50.2542 86.8258 50.2542 84.3821C50.2542 81.9385 52.2351 79.9575 54.6788 79.9575H73.5673C76.011 79.9575 77.9919 81.9385 77.9919 84.3821C77.9919 86.8258 76.0107 88.8068 73.5673 88.8068Z" fill="#FAD964"/>
<path d="M62.6769 84.3821C62.6769 81.9385 64.6579 79.9575 67.1015 79.9575H54.6788C52.2351 79.9575 50.2542 81.9385 50.2542 84.3821C50.2542 86.8258 52.2351 88.8068 54.6788 88.8068H67.1015C64.6576 88.8065 62.6769 86.8258 62.6769 84.3821Z" fill="#FAB941"/>
<path d="M101.162 0C91.3657 0 34.7571 0 27.0838 0C24.6401 0 22.6592 1.98095 22.6592 4.42462C22.6592 6.86829 24.6401 8.84925 27.0838 8.84925C63.0066 8.84925 66.7107 8.84925 101.162 8.84925C103.605 8.84925 105.586 6.86829 105.586 4.42462C105.586 1.98095 103.605 0 101.162 0Z" fill="#FFD15C"/>
<path d="M44.9684 4.42462C44.9684 1.98095 46.9491 0 49.3927 0C38.6549 0 29.801 0 27.0838 0C24.6401 0 22.6592 1.98095 22.6592 4.42462C22.6592 6.86829 24.6401 8.84925 27.0838 8.84925C36.2806 8.84925 43.3627 8.84925 49.3927 8.84925C46.9491 8.84898 44.9684 6.86829 44.9684 4.42462Z" fill="#F8B64C"/>
<path d="M43.5205 64.2323C36.5117 61.5887 29.7057 57.3769 24.3559 52.3733C18.4334 46.8338 14.3344 40.4057 12.5018 33.7845C10.194 25.445 13.7968 16.7591 22.1977 15.578C19.8954 14.9386 19.5581 11.8014 21.6858 10.6914C10.2477 12.2055 4.61467 23.7177 7.76342 35.0954C9.83754 42.5897 14.4137 49.8053 20.9975 55.9633C26.8901 61.4751 34.0785 65.9249 41.7853 68.832C43.056 69.3105 44.4734 68.67 44.9529 67.3994C45.4321 66.1298 44.7909 64.7115 43.5205 64.2323Z" fill="#F6A221"/>
</svg>
