<svg width="32" height="32" viewBox="0 0 32 32" fill="none" xmlns="http://www.w3.org/2000/svg">
<path d="M30.3158 20.0449V6.83565C30.3158 3.06639 27.2494 0 23.4801 0H6.83565C3.06639 0 0 3.06639 0 6.83565V23.4801C0 27.2494 3.06639 30.3158 6.83565 30.3158H20.0449C21.3098 31.3667 22.9328 32 24.7018 32C28.7259 32 32 28.7259 32 24.7018C32 22.9328 31.3667 21.3098 30.3158 20.0449ZM6.83565 29.193C3.68561 29.193 1.12281 26.6307 1.12281 23.4801V6.83565C1.12281 3.68505 3.68561 1.12281 6.83565 1.12281H23.4801C26.6302 1.12281 29.193 3.68505 29.193 6.83565V18.9575C29.1509 18.9244 29.106 18.8963 29.0633 18.8643C28.9454 18.7756 28.8275 18.6874 28.704 18.606C28.6911 18.5976 28.6771 18.5903 28.6641 18.5819C28.3756 18.3944 28.0719 18.2293 27.7569 18.0834C27.7142 18.0637 27.6727 18.0413 27.63 18.0222C27.5065 17.9677 27.3802 17.9211 27.2533 17.8734C27.1731 17.8431 27.0928 17.8122 27.0114 17.7847C26.8952 17.746 26.7778 17.7117 26.6594 17.6786C26.5589 17.6505 26.4578 17.6241 26.3562 17.6006C26.249 17.5759 26.1423 17.5517 26.0334 17.5315C25.9043 17.5074 25.774 17.4888 25.6432 17.472C25.5556 17.4608 25.4686 17.4467 25.3799 17.4383C25.1554 17.4164 24.9291 17.4035 24.7018 17.4035C21.2581 17.4035 18.3708 19.8041 17.6073 23.0175H15.1579C14.848 23.0175 14.5965 23.2685 14.5965 23.5789C14.5965 23.8894 14.848 24.1404 15.1579 24.1404H17.4321C17.4175 24.3262 17.4035 24.5126 17.4035 24.7018C17.4035 24.9291 17.417 25.1554 17.4378 25.3799C17.4462 25.4692 17.4596 25.5562 17.4714 25.6444C17.4883 25.774 17.5068 25.9037 17.5309 26.0317C17.5512 26.1412 17.5753 26.2495 17.6006 26.3573C17.6241 26.4578 17.65 26.5572 17.6775 26.6566C17.7112 26.7767 17.7454 26.8957 17.7853 27.0131C17.8116 27.0922 17.842 27.1697 17.8712 27.2477C17.9194 27.3768 17.9672 27.5054 18.0222 27.6312C18.0385 27.6682 18.0581 27.7041 18.0749 27.7412C18.2248 28.0668 18.3955 28.3812 18.5903 28.6787C18.5954 28.6866 18.5999 28.695 18.6049 28.7023C18.6869 28.8264 18.7756 28.9448 18.8643 29.0639C18.8963 29.1065 18.9244 29.1509 18.9569 29.193H6.83565V29.193ZM24.7018 30.8772C23.118 30.8772 21.6758 30.2726 20.5816 29.2884C20.4458 29.1666 20.3161 29.0397 20.1926 28.9072C20.1651 28.878 20.1387 28.8483 20.1117 28.8185C19.9944 28.6877 19.8832 28.553 19.7777 28.4138C19.7535 28.3818 19.7288 28.3498 19.7053 28.3172C19.6014 28.1735 19.5037 28.0258 19.4128 27.8742C19.3942 27.8439 19.3752 27.8142 19.3572 27.7827C19.2651 27.6239 19.1815 27.4611 19.104 27.2949C19.0916 27.2685 19.0782 27.2432 19.0664 27.2163C18.9884 27.0428 18.9199 26.8654 18.8587 26.6852C18.8514 26.6627 18.8418 26.6414 18.8345 26.6195C18.7745 26.4365 18.7245 26.2495 18.6813 26.0609C18.6762 26.039 18.6689 26.0177 18.6644 25.9952C18.624 25.8094 18.5954 25.6208 18.5729 25.431C18.5695 25.4046 18.5639 25.3788 18.5611 25.3519C18.5381 25.1374 18.5263 24.9207 18.5263 24.7018C18.5263 21.2968 21.2968 18.5263 24.7018 18.5263C24.9207 18.5263 25.138 18.5381 25.3535 18.5617C25.3788 18.5645 25.4029 18.5701 25.4282 18.5735C25.6191 18.5965 25.8094 18.6257 25.9964 18.6661C26.0177 18.6706 26.0379 18.6779 26.0592 18.6824C26.249 18.7256 26.4365 18.7756 26.6206 18.8362C26.6414 18.8429 26.6616 18.8514 26.6824 18.8587C26.8643 18.9204 27.0434 18.99 27.2185 19.0686C27.2432 19.0799 27.2674 19.0928 27.2921 19.104C27.4599 19.182 27.6244 19.2668 27.785 19.3594C27.8142 19.3763 27.8428 19.3948 27.8714 19.4122C28.0247 19.5048 28.174 19.6025 28.3194 19.7081C28.3503 19.7305 28.3806 19.7535 28.4109 19.7766C28.5524 19.8832 28.6894 19.9961 28.8219 20.1151C28.85 20.1404 28.878 20.1651 28.905 20.1909C29.0392 20.3161 29.1683 20.448 29.2924 20.5861C30.2742 21.6792 30.8772 23.1197 30.8772 24.7018C30.8772 28.1067 28.1067 30.8772 24.7018 30.8772Z" fill="#515973"/>
<path d="M28.0702 24.1404H25.2632V21.3334C25.2632 21.0229 25.0117 20.772 24.7018 20.772C24.3919 20.772 24.1404 21.0229 24.1404 21.3334V24.1404H21.3334C21.0235 24.1404 20.772 24.3913 20.772 24.7018C20.772 25.0123 21.0235 25.2632 21.3334 25.2632H24.1404V28.0702C24.1404 28.3807 24.3919 28.6316 24.7018 28.6316C25.0117 28.6316 25.2632 28.3807 25.2632 28.0702V25.2632H28.0702C28.3801 25.2632 28.6316 25.0123 28.6316 24.7018C28.6316 24.3913 28.3801 24.1404 28.0702 24.1404Z" fill="#515973"/>
<path d="M15.1578 7.85962H25.2631C25.573 7.85962 25.8245 7.60868 25.8245 7.29822C25.8245 6.98776 25.573 6.73682 25.2631 6.73682H15.1578C14.8479 6.73682 14.5964 6.98776 14.5964 7.29822C14.5964 7.60868 14.8479 7.85962 15.1578 7.85962Z" fill="#515973"/>
<path d="M15.1578 15.7192H25.2631C25.573 15.7192 25.8245 15.4683 25.8245 15.1578C25.8245 14.8474 25.573 14.5964 25.2631 14.5964H15.1578C14.8479 14.5964 14.5964 14.8474 14.5964 15.1578C14.5964 15.4683 14.8479 15.7192 15.1578 15.7192Z" fill="#515973"/>
<path d="M10.7616 4.12628L7.25391 8.21779L5.10879 6.60825C4.86065 6.42243 4.50921 6.47239 4.32282 6.72053C4.13644 6.96811 4.18696 7.32011 4.4351 7.50593L7.00128 9.43099C7.10233 9.50678 7.22022 9.54327 7.33812 9.54327C7.497 9.54327 7.65419 9.47646 7.76479 9.34678L11.6143 4.85555C11.8159 4.62032 11.7889 4.26607 11.5537 4.06453C11.3185 3.86355 10.9637 3.8905 10.7616 4.12628Z" fill="#515973"/>
<path d="M10.7616 11.9859L7.25391 16.0774L5.10879 14.4679C4.86065 14.282 4.50921 14.332 4.32282 14.5801C4.13644 14.8277 4.18696 15.1797 4.4351 15.3656L7.00128 17.2906C7.10233 17.3664 7.22022 17.4029 7.33812 17.4029C7.497 17.4029 7.65419 17.3361 7.76479 17.2064L11.6143 12.7152C11.8159 12.4799 11.7889 12.1257 11.5537 11.9241C11.3185 11.7232 10.9637 11.7501 10.7616 11.9859Z" fill="#515973"/>
<path d="M10.7616 20.407L7.25391 24.4979L5.10879 22.8889C4.86065 22.7037 4.50921 22.7531 4.32282 23.0012C4.13644 23.2488 4.18696 23.6008 4.4351 23.7866L7.00128 25.7117C7.10233 25.7874 7.22022 25.8239 7.33812 25.8239C7.497 25.8239 7.65419 25.7571 7.76479 25.6274L11.6143 21.1368C11.8159 20.9016 11.7889 20.5473 11.5537 20.3458C11.3185 20.1442 10.9637 20.1712 10.7616 20.407Z" fill="#515973"/>
</svg>
