<svg width="16" height="16" viewBox="0 0 16 16" fill="none" xmlns="http://www.w3.org/2000/svg">
    <g clip-path="url(#clip0)">
        <path d="M3.54594 9.66893L2.989 11.7481L0.953406 11.7911C0.345063 10.6628 0 9.3718 0 7.99993C0 6.67333 0.322625 5.42233 0.8945 4.3208H0.894938L2.70719 4.65305L3.50106 6.45443C3.33491 6.93883 3.24434 7.45883 3.24434 7.99993C3.24441 8.58718 3.35078 9.14983 3.54594 9.66893Z" fill="#FBBB00"/>
        <path d="M15.8602 6.50537C15.9521 6.98931 16 7.48909 16 7.99987C16 8.57262 15.9398 9.13131 15.8251 9.67021C15.4357 11.5041 14.4181 13.1054 13.0084 14.2386L13.008 14.2381L10.7253 14.1217L10.4023 12.1049C11.3377 11.5564 12.0687 10.6979 12.4537 9.67021H8.1759V6.50537H12.5161H15.8602Z" fill="#518EF8"/>
        <path d="M13.0079 14.2382L13.0083 14.2386C11.6373 15.3406 9.89577 15.9999 7.99996 15.9999C4.95337 15.9999 2.30459 14.2971 0.953369 11.7911L3.5459 9.66895C4.22149 11.472 5.96084 12.7555 7.99996 12.7555C8.87643 12.7555 9.69755 12.5186 10.4021 12.105L13.0079 14.2382Z" fill="#28B446"/>
        <path d="M13.1064 1.84175L10.5148 3.9635C9.78553 3.50769 8.92353 3.24437 8.00003 3.24437C5.91475 3.24437 4.14288 4.58678 3.50113 6.4545L0.894969 4.32088H0.894531C2.22597 1.75384 4.90816 0 8.00003 0C9.94112 0 11.7209 0.691437 13.1064 1.84175Z" fill="#F14336"/>
    </g>
    <defs>
        <clipPath id="clip0">
            <rect width="16" height="16" fill="white"/>
        </clipPath>
    </defs>
</svg>
