<svg width="12" height="16" viewBox="0 0 12 16" fill="none" xmlns="http://www.w3.org/2000/svg">
    <path d="M11.6667 6H10.6667V4.66666C10.6667 2.09344 8.57325 0 6 0C3.42675 0 1.33334 2.09344 1.33334 4.66666V6H0.333344C0.149094 6 0 6.14909 0 6.33334V14.6667C0 15.402 0.597969 16 1.33334 16H10.6667C11.402 16 12 15.402 12 14.6667V6.33334C12 6.14909 11.8509 6 11.6667 6ZM2 4.66666C2 2.46094 3.79428 0.666656 6 0.666656C8.20572 0.666656 10 2.46094 10 4.66666V6H9.33334V4.66666C9.33334 2.82875 7.83791 1.33331 6 1.33331C4.16209 1.33331 2.66666 2.82878 2.66666 4.66666V6H2V4.66666ZM8.66666 4.66666V6H3.33334V4.66666C3.33334 3.19628 4.52962 2 6 2C7.47038 2 8.66666 3.19628 8.66666 4.66666ZM11.3333 14.6667C11.3333 15.0342 11.0342 15.3333 10.6667 15.3333H1.33334C0.965844 15.3333 0.666687 15.0342 0.666687 14.6667V6.66666H11.3333V14.6667Z" fill="#515973"/>
</svg>
