<svg width="16" height="16" viewBox="0 0 16 16" fill="none" xmlns="http://www.w3.org/2000/svg">
<path fill-rule="evenodd" clip-rule="evenodd" d="M1.33331 8.00016C1.33331 4.32016 4.31998 1.3335 7.99998 1.3335C11.68 1.3335 14.6666 4.32016 14.6666 8.00016C14.6666 11.6802 11.68 14.6668 7.99998 14.6668C4.31998 14.6668 1.33331 11.6802 1.33331 8.00016ZM3.79998 8.46683L6.19331 10.8602C6.45331 11.1202 6.87998 11.1202 7.13331 10.8602L12.1933 5.80016C12.4533 5.54016 12.4533 5.12016 12.1933 4.86016C11.9333 4.60016 11.5133 4.60016 11.2533 4.86016L6.66665 9.44683L4.73998 7.52683C4.47998 7.26683 4.05998 7.26683 3.79998 7.52683C3.67514 7.65138 3.60499 7.82048 3.60499 7.99683C3.60499 8.17317 3.67514 8.34228 3.79998 8.46683Z" fill="#20DDAD"/>
</svg>
