<svg width="16" height="16" viewBox="0 0 16 16" fill="none" xmlns="http://www.w3.org/2000/svg">
<g opacity="0.6">
<path fill-rule="evenodd" clip-rule="evenodd" d="M7.99998 1.3335C4.31998 1.3335 1.33331 4.32016 1.33331 8.00016C1.33331 11.6802 4.31998 14.6668 7.99998 14.6668C11.68 14.6668 14.6666 11.6802 14.6666 8.00016C14.6666 4.32016 11.68 1.3335 7.99998 1.3335ZM7.99998 13.3335C5.05998 13.3335 2.66665 10.9402 2.66665 8.00016C2.66665 5.06016 5.05998 2.66683 7.99998 2.66683C10.94 2.66683 13.3333 5.06016 13.3333 8.00016C13.3333 10.9402 10.94 13.3335 7.99998 13.3335ZM6.66665 9.44683L10.5866 5.52683C10.8466 5.26683 11.2733 5.26683 11.5333 5.52683C11.7933 5.78683 11.7933 6.20683 11.5333 6.46683L7.13998 10.8602C6.87998 11.1202 6.45998 11.1202 6.19998 10.8602L4.47331 9.1335C4.21331 8.8735 4.21331 8.4535 4.47331 8.1935C4.59787 8.06866 4.76697 7.99851 4.94331 7.99851C5.11966 7.99851 5.28876 8.06866 5.41331 8.1935L6.66665 9.44683Z" fill="#515973"/>
</g>
</svg>
