<svg width="12" height="12" viewBox="0 0 12 12" fill="none" xmlns="http://www.w3.org/2000/svg">
<path d="M6 12C9.31371 12 12 9.31371 12 6C12 2.68629 9.31371 0 6 0C2.68629 0 0 2.68629 0 6C0 9.31371 2.68629 12 6 12Z" fill="#FFD15C"/>
<path d="M8.95455 5.16184H6.95567C6.87828 5.16184 6.81097 5.11136 6.78742 5.04069L6.16824 3.13604C6.11439 2.97451 5.88557 2.97451 5.83172 3.13604L5.21254 5.03733C5.18899 5.11136 5.12169 5.15847 5.04429 5.15847H3.04541C2.87379 5.15847 2.80312 5.3772 2.94109 5.47816L4.55971 6.65258C4.62028 6.69633 4.6472 6.77709 4.62365 6.85112L4.00447 8.75241C3.95062 8.91394 4.13907 9.05191 4.27704 8.95096L5.89566 7.77653C5.95623 7.73278 6.04036 7.73278 6.1043 7.77653L7.72292 8.95096C7.86089 9.05191 8.04597 8.9173 7.99549 8.75241L7.37631 6.85112C7.35276 6.77709 7.37968 6.69969 7.44025 6.65258L9.05887 5.47816C9.19684 5.38057 9.12617 5.16184 8.95455 5.16184Z" fill="white"/>
</svg>
