<svg width="48" height="48" viewBox="0 0 48 48" fill="none" xmlns="http://www.w3.org/2000/svg">
<path opacity="0.4" fill-rule="evenodd" clip-rule="evenodd" d="M23.3394 5.74488C22.8362 5.62879 22.3341 5.9419 22.2177 6.44508C22.1012 6.94825 22.4151 7.45069 22.9182 7.56715C25.2444 8.10474 27.3706 9.28577 29.0666 10.9817C34.0525 15.9677 34.0525 24.0811 29.0666 29.067C24.0806 34.0534 15.9672 34.0534 10.9812 29.067C5.9949 24.0811 5.9949 15.9677 10.9812 10.9817C12.4128 9.55018 14.1068 8.50611 16.0166 7.87769C16.507 7.71656 16.774 7.18812 16.6128 6.6974C16.4513 6.20667 15.9225 5.9397 15.4322 6.1012C13.2415 6.82154 11.2991 8.01868 9.65884 9.65931C3.94339 15.3748 3.94339 24.6743 9.65884 30.3898C12.5164 33.2473 16.2701 34.6763 20.0241 34.6763C23.7777 34.6759 27.5314 33.2473 30.3893 30.3898C36.1044 24.6743 36.1044 15.3748 30.3893 9.65931C28.4451 7.71546 26.0076 6.36158 23.3394 5.74488Z" fill="#515973"/>
<path opacity="0.6" fill-rule="evenodd" clip-rule="evenodd" d="M46.7263 40.5663L36.9265 30.7665C41.9517 22.8864 40.8512 12.5336 34.1829 5.86487C30.401 2.08301 25.3726 0 20.024 0C14.6752 0 9.64673 2.08301 5.86487 5.86487C2.08264 9.64673 0 14.6752 0 20.024C0 25.3726 2.08264 30.401 5.86487 34.1829C9.64673 37.9647 14.6748 40.0474 20.0233 40.0474C23.8619 40.0474 27.5596 38.9707 30.7665 36.9265L40.5663 46.7263C41.3862 47.5466 42.4801 47.9982 43.6465 47.9982C44.8125 47.9982 45.9064 47.5466 46.7267 46.7263C48.4244 45.0278 48.4244 42.2648 46.7263 40.5663ZM45.4039 45.4039C44.937 45.8705 44.313 46.1276 43.6465 46.1276C42.9796 46.1276 42.3556 45.8705 41.8887 45.4039L31.5476 35.0629C31.3667 34.8816 31.1272 34.7889 30.8862 34.7889C30.7009 34.7889 30.5149 34.8435 30.3534 34.9556C27.3149 37.0631 23.7426 38.1771 20.0233 38.1771C15.1743 38.1771 10.6157 36.2889 7.18726 32.8605C0.109131 25.7823 0.109131 14.2654 7.18726 7.18726C10.6161 3.75842 15.1747 1.87024 20.024 1.87024C24.873 1.87024 29.4316 3.75842 32.8605 7.18726C39.0743 13.4015 39.9558 23.1442 34.9556 30.3534C34.6978 30.7251 34.7428 31.2275 35.0629 31.5476L45.4039 41.8887C46.3729 42.8577 46.3729 44.4346 45.4039 45.4039Z" fill="#515973"/>
<path opacity="0.6" fill-rule="evenodd" clip-rule="evenodd" d="M25.6692 14.3783C25.304 14.0132 24.7122 14.0132 24.3468 14.3783L20.024 18.7011L15.7009 14.3783C15.3358 14.0132 14.7436 14.0132 14.3785 14.3783C14.0134 14.7434 14.0134 15.3356 14.3785 15.7007L18.7013 20.0238L14.3785 24.3466C14.0134 24.7117 14.0134 25.3039 14.3785 25.669C14.5609 25.8517 14.8004 25.9429 15.0395 25.9429C15.279 25.9429 15.5182 25.8517 15.7009 25.669L20.0237 21.3462L24.3464 25.669C24.5291 25.8517 24.7686 25.9429 25.0078 25.9429C25.2473 25.9429 25.4864 25.8517 25.6692 25.669C26.0343 25.3039 26.0343 24.7117 25.6692 24.3466L21.346 20.0238L25.6692 15.7007C26.0343 15.3356 26.0343 14.7434 25.6692 14.3783Z" fill="#515973"/>
</svg>
