<svg width="16" height="16" viewBox="0 0 16 16" fill="none" xmlns="http://www.w3.org/2000/svg">
<g clip-path="url(#clip0)">
<path d="M10.4896 9.65479C10.2314 9.65479 10.0217 9.4458 10.021 9.18738C10.0201 8.92859 10.2294 8.71802 10.4883 8.71729C11.6658 8.71362 12.786 8.00269 13.6426 6.71533C14.4647 5.47974 14.9478 3.86389 15.0214 2.12354H12.9567C12.6978 2.12354 12.4879 1.9137 12.4879 1.65479C12.4879 1.39587 12.6978 1.18604 12.9567 1.18604H15.5C15.7589 1.18604 15.9688 1.39587 15.9688 1.65479C15.9688 3.75513 15.4198 5.73669 14.4232 7.23474C13.3878 8.79065 11.9915 9.65015 10.4912 9.65479C10.4907 9.65479 10.4902 9.65479 10.4896 9.65479Z" fill="#FF8E1D"/>
<path d="M5.44788 9.65479C5.44727 9.65479 5.4469 9.65479 5.44641 9.65479C3.94617 9.65015 2.54968 8.79065 1.5144 7.23474C0.5177 5.73669 -0.03125 3.75513 -0.03125 1.65479C-0.03125 1.39587 0.178589 1.18604 0.4375 1.18604H2.98084C3.23975 1.18604 3.44959 1.39587 3.44959 1.65479C3.44959 1.9137 3.23975 2.12354 2.98084 2.12354H0.916138C0.989746 3.86389 1.47278 5.47974 2.29492 6.71533C3.15149 8.00269 4.27173 8.71362 5.44922 8.71729C5.70813 8.71802 5.91736 8.92859 5.9165 9.18738C5.91577 9.4458 5.70606 9.65466 5.44788 9.65479Z" fill="#FFB023"/>
<path d="M12.9895 0.03125H2.94775C2.68896 0.03125 2.479 0.241089 2.479 0.5C2.479 3.25354 3.01892 5.84973 3.99915 7.81018C4.6272 9.06616 5.39526 9.97791 6.24463 10.4999V13.052C6.24463 13.3109 6.45459 13.5208 6.71338 13.5208H9.22388C9.48279 13.5208 9.69263 13.3109 9.69263 13.052V10.4999C10.542 9.97803 11.3102 9.06616 11.9381 7.81018C12.9183 5.84973 13.4583 3.25354 13.4583 0.5C13.4583 0.241089 13.2484 0.03125 12.9895 0.03125Z" fill="#FFD12B"/>
<path d="M9.69275 13.052V10.4999C10.5421 9.97803 11.3103 9.06616 11.9382 7.81018C12.9185 5.84973 13.4584 3.25354 13.4584 0.5C13.4584 0.241089 13.2485 0.03125 12.9896 0.03125H7.96875V13.5208H9.224C9.48291 13.5208 9.69275 13.3109 9.69275 13.052Z" fill="#FFB023"/>
<path d="M10.4791 12.5833H5.45837C4.50781 12.5833 3.73438 13.3567 3.73438 14.3073V15.5625C3.73438 15.8213 3.94421 16.0311 4.20312 16.0311H11.7344C11.9933 16.0311 12.2031 15.8213 12.2031 15.5625V14.3073C12.2031 13.3567 11.4298 12.5833 10.4791 12.5833Z" fill="#FF8E1D"/>
<path d="M10.4791 12.5833H7.96875V16.0311H11.7344C11.9933 16.0311 12.2031 15.8213 12.2031 15.5625V14.3073C12.2031 13.3567 11.4298 12.5833 10.4791 12.5833Z" fill="#FF6D15"/>
<path d="M12.2366 16.0311H3.70117C3.44238 16.0311 3.23242 15.8213 3.23242 15.5625C3.23242 15.3036 3.44238 15.0938 3.70117 15.0938H12.2366C12.4955 15.0938 12.7053 15.3036 12.7053 15.5625C12.7053 15.8213 12.4955 16.0311 12.2366 16.0311Z" fill="#FFB023"/>
<path d="M12.2365 15.0938H7.96875V16.0311H12.2365C12.4954 16.0311 12.7052 15.8213 12.7052 15.5625C12.7052 15.3036 12.4954 15.0938 12.2365 15.0938Z" fill="#FF8E1D"/>
</g>
<defs>
<clipPath id="clip0">
<rect width="16" height="16" fill="white"/>
</clipPath>
</defs>
</svg>
