<svg width="60" height="97" viewBox="0 0 60 97" fill="none" xmlns="http://www.w3.org/2000/svg">
<g clip-path="url(#clip0)">
<mask id="path-1-inside-1" fill="white">
<path d="M71.9196 39.4779H47.2716V12.5487C47.2716 9.24428 44.8188 6.56445 41.7943 6.56445H36.317C33.2925 6.56445 30.8397 9.24428 30.8397 12.5487V39.4779H6.19168C3.16717 39.4779 0.714355 42.1577 0.714355 45.4621V51.4464C0.714355 54.7508 3.16717 57.4306 6.19168 57.4306H30.8397V84.3598C30.8397 87.6642 33.2925 90.344 36.317 90.344H41.7943C44.8188 90.344 47.2716 87.6642 47.2716 84.3598V57.4306H71.9196C74.9441 57.4306 77.397 54.7508 77.397 51.4464V45.4621C77.397 42.1577 74.9441 39.4779 71.9196 39.4779Z"/>
</mask>
<path d="M47.2716 39.4779H12.2717V74.4779H47.2716V39.4779ZM30.8397 39.4779V74.4779H65.8397V39.4779H30.8397ZM30.8397 57.4306H65.8397V22.4306H30.8397V57.4306ZM47.2716 57.4306V22.4306H12.2717V57.4306H47.2716ZM71.9196 4.47786H47.2716V74.4779H71.9196V4.47786ZM82.2717 39.4779V12.5487H12.2717V39.4779H82.2717ZM82.2717 12.5487C82.2717 -7.10516 67.0004 -28.4355 41.7943 -28.4355V41.5645C22.6373 41.5645 12.2717 25.5937 12.2717 12.5487H82.2717ZM41.7943 -28.4355H36.317V41.5645H41.7943V-28.4355ZM36.317 -28.4355C11.1109 -28.4355 -4.16034 -7.10516 -4.16034 12.5487H65.8397C65.8397 25.5937 55.4741 41.5645 36.317 41.5645V-28.4355ZM-4.16034 12.5487V39.4779H65.8397V12.5487H-4.16034ZM30.8397 4.47786H6.19168V74.4779H30.8397V4.47786ZM6.19168 4.47786C-19.0144 4.47786 -34.2856 25.8082 -34.2856 45.4621H35.7144C35.7144 58.5071 25.3488 74.4779 6.19168 74.4779V4.47786ZM-34.2856 45.4621V51.4464H35.7144V45.4621H-34.2856ZM-34.2856 51.4464C-34.2856 71.1002 -19.0144 92.4306 6.19168 92.4306V22.4306C25.3488 22.4306 35.7144 38.4014 35.7144 51.4464H-34.2856ZM6.19168 92.4306H30.8397V22.4306H6.19168V92.4306ZM-4.16034 57.4306V84.3598H65.8397V57.4306H-4.16034ZM-4.16034 84.3598C-4.16034 104.014 11.1109 125.344 36.317 125.344V55.344C55.4741 55.344 65.8397 71.3148 65.8397 84.3598H-4.16034ZM36.317 125.344H41.7943V55.344H36.317V125.344ZM41.7943 125.344C67.0004 125.344 82.2717 104.014 82.2717 84.3598H12.2717C12.2717 71.3148 22.6373 55.344 41.7943 55.344V125.344ZM82.2717 84.3598V57.4306H12.2717V84.3598H82.2717ZM47.2716 92.4306H71.9196V22.4306H47.2716V92.4306ZM71.9196 92.4306C97.1257 92.4306 112.397 71.1002 112.397 51.4464H42.397C42.397 38.4014 52.7626 22.4306 71.9196 22.4306V92.4306ZM112.397 51.4464V45.4621H42.397V51.4464H112.397ZM112.397 45.4621C112.397 25.8082 97.1257 4.47786 71.9196 4.47786V74.4779C52.7626 74.4779 42.397 58.5071 42.397 45.4621H112.397Z" fill="white" fill-opacity="0.05" mask="url(#path-1-inside-1)"/>
</g>
<defs>
<clipPath id="clip0">
<rect width="76.6826" height="95.7481" fill="white" transform="translate(0.714355 0.580078)"/>
</clipPath>
</defs>
</svg>
