<svg width="135" height="137" viewBox="0 0 135 137" fill="none" xmlns="http://www.w3.org/2000/svg">
<path d="M69.6264 3.04686C33.2019 1.68812 2.57238 30.1141 1.21338 66.5385C0.423377 87.7124 9.70031 106.926 24.7608 119.572L46.5531 131.712C52.2861 133.593 58.3744 134.716 64.7051 134.952C101.13 136.311 131.759 107.884 133.118 71.4599C134.477 35.0357 106.051 4.40613 69.6264 3.04686Z" fill="#43CFDA"/>
<path d="M26.7443 119.232C33.6174 125.334 41.8243 129.987 50.901 132.689L122.342 66.862L44.6994 23.8236L26.7443 119.232Z" fill="#4B70F3" fill-opacity="0.6"/>
<path d="M69.7537 37.7116L44.6994 23.8236L26.7443 119.232C29.4907 121.67 32.4533 123.873 35.596 125.816L69.7537 37.7116Z" fill="#4B70F3" fill-opacity="0.7"/>
<path d="M97.7216 20.058C96.7753 19.5335 96.4334 18.341 96.958 17.3947L103.438 5.70428C103.962 4.758 105.155 4.41584 106.101 4.94064C107.048 5.46519 107.39 6.65761 106.865 7.60389L100.385 19.2944C99.8598 20.2422 98.6668 20.582 97.7216 20.058Z" fill="#FF9698"/>
<path d="M77.0996 12.8227L75.6329 3.71995C75.4606 2.6518 76.1871 1.64634 77.2553 1.47408C78.3216 1.30211 79.3291 2.02832 79.5009 3.09674L80.9676 12.1992C81.1399 13.2674 80.4134 14.2728 79.3452 14.4451C78.2825 14.617 77.2722 13.8958 77.0996 12.8227Z" fill="#FFD15C"/>
<path d="M63.4015 16.0363L61.9562 14.4062C61.2385 13.5968 61.313 12.3584 62.1224 11.6405C62.9323 10.9223 64.1702 10.9973 64.8881 11.8067L66.3334 13.4365C67.0511 14.2459 66.9765 15.4843 66.1672 16.2022C65.3614 16.917 64.1226 16.8493 63.4015 16.0363Z" fill="#4B70F3"/>
<path d="M111.935 32.5107C111.514 31.5135 111.982 30.3647 112.979 29.9445L121.476 26.3648C122.473 25.9451 123.622 26.412 124.042 27.4097C124.462 28.4069 123.995 29.5557 122.997 29.9757L114.501 33.5554C113.506 33.9746 112.355 33.5098 111.935 32.5107Z" fill="#F8B64C"/>
<path d="M121.183 47.2372L119.035 46.8755C117.968 46.6958 117.249 45.685 117.429 44.6181C117.609 43.5511 118.619 42.8325 119.686 43.0114L121.834 43.3731C122.901 43.5528 123.62 44.5636 123.44 45.6305C123.261 46.6949 122.254 47.4171 121.183 47.2372Z" fill="#FF9698"/>
<path d="M87.0425 6.35794C86.6222 5.36074 87.0899 4.21193 88.0871 3.79193L92.4203 1.96639C93.4168 1.5464 94.5663 2.01384 94.9864 3.01104C95.4066 4.00824 94.9389 5.15705 93.9417 5.57706L89.6085 7.40259C88.6134 7.82178 87.4633 7.35696 87.0425 6.35794Z" fill="#FFD15C"/>
<path d="M106.895 22.8519C106.475 21.8547 106.943 20.7059 107.94 20.2856L109.023 19.8291C110.019 19.4094 111.169 19.8763 111.589 20.8738C112.009 21.871 111.542 23.0198 110.544 23.44L109.461 23.8966C108.466 24.3155 107.316 23.8512 106.895 22.8519Z" fill="#FFD15C"/>
<path d="M72.7541 23.9293L72.5669 22.7687C72.3947 21.7006 73.1209 20.6948 74.1891 20.5226C75.2575 20.3521 76.2627 21.0766 76.4349 22.145L76.6221 23.3056C76.7944 24.3738 76.0682 25.3795 75 25.5517C73.9245 25.7236 72.9255 24.992 72.7541 23.9293Z" fill="#FAD964"/>
<path d="M95.5265 34.892C95.6886 33.8224 96.6871 33.0868 97.7571 33.2486C98.1467 33.3082 98.5252 33.0659 98.6343 32.6857C99.3212 30.2932 101.761 28.8455 104.191 29.3912C105.246 29.6283 105.91 30.6761 105.673 31.7318C105.436 32.7875 104.388 33.4519 103.332 33.2143C102.925 33.1237 102.515 33.3657 102.4 33.7669C101.176 38.0306 95.029 38.1705 95.5265 34.892Z" fill="#20DDAD"/>
<path d="M113.657 16.135C113.819 15.0655 114.816 14.3302 115.887 14.4917C116.278 14.5523 116.655 14.309 116.765 13.9291C117.451 11.5362 119.892 10.0889 122.321 10.6343C123.376 10.8714 124.04 11.9192 123.803 12.9749C123.567 14.0306 122.518 14.695 121.463 14.4574C121.056 14.3668 120.646 14.6088 120.531 15.01C119.306 19.2763 113.16 19.412 113.657 16.135Z" fill="#4B70F3" fill-opacity="0.6"/>
<path d="M83.5424 29.5696C82.007 27.7796 82.0391 25.1082 83.6165 23.3553C83.8956 23.0451 83.8844 22.5695 83.5913 22.2726C82.831 21.5029 82.838 20.2626 83.6078 19.502C84.3775 18.7416 85.6178 18.7489 86.3784 19.5186C88.1281 21.2895 88.1946 24.1261 86.529 25.9766C86.2645 26.2707 86.259 26.7186 86.5167 27.0188C87.2212 27.8399 87.1263 29.0767 86.3049 29.7813C85.4872 30.4827 84.2496 30.3938 83.5424 29.5696Z" fill="#F8B64C"/>
<path d="M86.948 47.2421C80.6031 47.0351 80.2973 42.1497 73.5331 42.2678C66.5416 42.3898 66.6328 47.6134 59.6416 47.7354C52.6499 47.8575 52.5587 42.6339 45.567 42.7559C43.535 42.7914 42.1031 43.2592 40.92 43.9059L37.8717 60.1037C43.0846 60.843 43.7763 65.085 50.0858 64.9749C57.0773 64.8528 56.9861 59.6293 63.9776 59.5072C70.969 59.3852 71.0602 64.6087 78.0517 64.4867C85.0437 64.3647 84.9525 59.1411 91.9442 59.0191C98.9359 58.897 99.0271 64.1206 106.019 63.9985C109.312 63.9411 111.034 62.7518 112.665 61.497L86.948 47.2421Z" fill="#FFD15C"/>
<path d="M59.6419 47.7354C52.6501 47.8575 52.559 42.6339 45.567 42.7559C43.535 42.7914 42.1031 43.259 40.92 43.9059C40.5592 45.8222 38.1471 58.64 37.8717 60.1035C43.0846 60.8427 43.7763 65.0847 50.0858 64.9746C55.9775 64.8717 56.8399 61.1463 61.1493 59.9038L67.0711 44.6297C65.1688 46.0784 63.4629 47.6685 59.6419 47.7354Z" fill="#F8B64C"/>
<path d="M110.356 75.7706C103.363 75.8927 103.454 81.1162 96.462 81.2383C89.4702 81.3603 89.3791 76.1368 82.3876 76.2588C75.3959 76.3808 75.487 81.6044 68.4951 81.7264C61.5036 81.8485 61.4124 76.6249 54.421 76.747C47.4295 76.869 47.5207 82.0926 40.5295 82.2146C37.4301 82.2687 35.6871 81.2721 34.0974 80.1566L30.4665 99.4509C30.6325 99.4542 30.7992 99.4571 30.9734 99.454C37.9649 99.332 37.8737 94.1084 44.8649 93.9864C51.8564 93.8644 51.9475 99.0879 58.939 98.9659C65.931 98.8438 65.8398 93.6203 72.8315 93.4982C79.8233 93.3762 79.9144 98.5998 86.9059 98.4777C87.3342 98.4702 87.7353 98.4431 88.1139 98.3997L112.504 75.9259C111.864 75.8156 111.157 75.7566 110.356 75.7706Z" fill="#20DDAD"/>
<path d="M54.421 76.747C47.4295 76.869 47.5207 82.0926 40.5295 82.2146C37.4301 82.2687 35.6871 81.2721 34.0975 80.1566L30.4665 99.4509C30.6325 99.4542 30.7992 99.4571 30.9734 99.454C37.9649 99.332 37.8737 94.1084 44.8649 93.9864C46.0125 93.9664 46.972 94.0923 47.8087 94.3131L54.6185 76.7482C54.5519 76.7483 54.4889 76.7458 54.421 76.747Z" fill="#1AC096"/>
<path d="M63.2765 110.738C56.2848 110.86 56.376 116.083 49.384 116.206C42.3925 116.328 42.3013 111.104 35.3099 111.226C31.323 111.296 29.6388 113.024 27.6315 114.519L26.7445 119.232C32.425 124.275 39.0175 128.327 46.2585 131.107C48.1739 129.652 49.8777 128.044 53.7204 127.977C54.5136 127.963 55.2143 128.021 55.8497 128.129L71.2822 113.909C69.126 112.456 67.4029 110.666 63.2765 110.738Z" fill="#FFD15C"/>
<path d="M35.3099 111.226C31.323 111.296 29.6388 113.024 27.6315 114.519L26.7445 119.232C29.404 121.593 32.36 123.815 35.5961 125.816L40.7159 112.611C39.3654 111.799 37.7628 111.183 35.3099 111.226Z" fill="#F8B64C"/>
<path d="M121.446 67.8882L43.8026 24.8499C42.0992 23.9056 41.4839 21.7594 42.4281 20.056C43.3723 18.3526 45.5185 17.7372 47.222 18.6815L124.865 61.7195C126.568 62.6638 127.184 64.81 126.239 66.5134C125.295 68.2171 123.149 68.8324 121.446 67.8882Z" fill="#E9EBF3"/>
<path d="M68.8246 34.5655C69.5432 33.2692 70.8956 32.5483 72.281 32.5719L47.222 18.6815C45.5185 17.7372 43.3723 18.3526 42.4281 20.056C41.4839 21.7594 42.0992 23.9056 43.8027 24.8499L69.288 38.9766C68.2537 37.783 68.0143 36.0271 68.8246 34.5655Z" fill="#CACCD1"/>
</svg>
