<?xml version="1.0" ?><svg id="Flat" viewBox="0 0 64 64" xmlns="http://www.w3.org/2000/svg"><polygon points="32 23 18 9 21.889 3 42.111 3 46 9 32 23" style="fill:#5fbac5"/><polygon points="21.889 3 18 9 46 9 42.111 3 21.889 3" style="fill:#b7ecff"/><polygon points="32 23 18 9 21.889 3 42.111 3 46 9 32 23" style="fill:#5fbac5"/><polygon points="21.889 3 18 9 46 9 42.111 3 21.889 3" style="fill:#b7ecff"/><path d="M14,31a1,1,0,0,1-.823-.431l-9-13a1,1,0,0,1,1.644-1.138l9,13A1,1,0,0,1,14,31Z" style="fill:#ee638c"/><path d="M50,31a1,1,0,0,1-.821-1.569l9-13a1,1,0,0,1,1.644,1.138l-9,13A1,1,0,0,1,50,31Z" style="fill:#ee638c"/><polygon points="34.737 3 29.263 3 25 9 32 23 38 9 34.737 3" style="fill:#b7ecff"/><polygon points="29.263 3 25 9 38 9 34.737 3 29.263 3" style="fill:#5fbac5"/><rect height="32" style="fill:#ee638c" width="38" x="13" y="29"/><path d="M44,24H40a1,1,0,0,1,0-2h4a1,1,0,0,1,0,2Z" style="fill:#ffcd62"/><path d="M42,26a1,1,0,0,1-1-1V21a1,1,0,0,1,2,0v4A1,1,0,0,1,42,26Z" style="fill:#ffcd62"/><circle cx="25" cy="25" r="1" style="fill:#ffcd62"/><path d="M19,21H15a1,1,0,0,1,0-2h4a1,1,0,0,1,0,2Z" style="fill:#ffcd62"/><path d="M17,23a1,1,0,0,1-1-1V18a1,1,0,0,1,2,0v4A1,1,0,0,1,17,23Z" style="fill:#ffcd62"/><circle cx="50" cy="17" r="1" style="fill:#ffcd62"/><rect height="32" style="fill:#f6a7bd" width="2" x="31" y="29"/><rect height="2" style="fill:#f6a7bd" width="38" x="13" y="43"/><rect height="4" style="fill:#ac8168" width="4" x="30" y="42"/><polygon points="42 48 34 46 34 42 42 40 42 44 42 48" style="fill:#f3e7da"/><polygon points="22 48 30 46 30 42 22 40 22 44 22 48" style="fill:#f3e7da"/></svg>