<svg width="14" height="16" viewBox="0 0 14 16" fill="none" xmlns="http://www.w3.org/2000/svg">
    <path d="M11.8037 11.4371L9.25624 10.1635C9.01597 10.0432 8.86664 9.8016 8.86664 9.5328V8.6312C8.9277 8.55653 8.99197 8.47147 9.05837 8.3776C9.38877 7.91093 9.65357 7.39147 9.8461 6.8312C10.2224 6.65867 10.4666 6.28667 10.4666 5.86667V4.8C10.4666 4.5432 10.3706 4.2944 10.2 4.1V2.6816C10.2149 2.53493 10.2736 1.66187 9.6421 0.9416C9.09437 0.3168 8.20557 0 6.99997 0C5.79437 0 4.90557 0.3168 4.35784 0.941333C3.72637 1.6616 3.78504 2.53493 3.79997 2.6816V4.1C3.6293 4.2944 3.5333 4.5432 3.5333 4.8V5.86667C3.5333 6.1912 3.68077 6.49387 3.9325 6.69573C4.17677 7.66293 4.68797 8.39173 4.86664 8.6256V9.508C4.86664 9.76613 4.72584 10.0029 4.49944 10.1267L2.1205 11.4243C1.3469 11.8464 0.866638 12.6555 0.866638 13.5365V14.4C0.866638 15.6656 4.87864 16 6.99997 16C9.1213 16 13.1333 15.6656 13.1333 14.4V13.5885C13.1333 12.6717 12.6237 11.8472 11.8037 11.4371ZM12.6 14.4C12.6 14.7619 10.6234 15.4667 6.99997 15.4667C3.3765 15.4667 1.39997 14.7619 1.39997 14.4V13.5365C1.39997 12.8509 1.77384 12.2208 2.3757 11.8928L4.75464 10.5952C5.15277 10.3779 5.39997 9.96107 5.39997 9.508V8.43627L5.33784 8.36213C5.33144 8.3544 4.67784 7.56373 4.4285 6.47813L4.40424 6.37253L4.3133 6.31387C4.1589 6.21413 4.06664 6.04693 4.06664 5.86667V4.8C4.06664 4.6504 4.1301 4.51093 4.2453 4.40667L4.3333 4.32747V2.66667L4.3309 2.63173C4.3301 2.62453 4.23944 1.88533 4.7589 1.2928C5.20077 0.7888 5.9549 0.533333 6.99997 0.533333C8.0413 0.533333 8.79384 0.786933 9.23624 1.28747C9.75544 1.8744 9.66957 2.62533 9.66904 2.63173L9.66664 4.32747L9.75464 4.40693C9.86984 4.51093 9.9333 4.6504 9.9333 4.8V5.86667C9.9333 6.09947 9.78077 6.3032 9.5541 6.37307L9.4213 6.41387L9.37864 6.54587C9.20024 7.1008 8.9461 7.61333 8.6229 8.06933C8.5437 8.1816 8.46664 8.28107 8.3997 8.35707L8.3333 8.4328V9.5328C8.3333 10.0048 8.59544 10.4291 9.01757 10.6403L11.565 11.9139C12.2034 12.2331 12.6 12.8747 12.6 13.5885V14.4Z" fill="#515973"/>
</svg>
