<svg width="17" height="16" viewBox="0 0 17 16" fill="none" xmlns="http://www.w3.org/2000/svg">
<path fill-rule="evenodd" clip-rule="evenodd" d="M8.04781 2.66666C5.10381 2.66666 2.71448 5.05599 2.71448 7.99999C2.71448 10.944 5.10381 13.3333 8.04781 13.3333C10.9918 13.3333 13.3811 10.944 13.3811 7.99999C13.3811 5.05599 10.9918 2.66666 8.04781 2.66666ZM8.04777 12.2666C5.69043 12.2666 3.7811 10.3573 3.7811 7.99998C3.7811 5.64265 5.69043 3.73331 8.04777 3.73331C10.4051 3.73331 12.3144 5.64265 12.3144 7.99998C12.3144 10.3573 10.4051 12.2666 8.04777 12.2666ZM5.38104 7.99998C5.38104 6.52722 6.57494 5.33332 8.0477 5.33332C9.52046 5.33332 10.7144 6.52722 10.7144 7.99998C10.7144 9.47274 9.52046 10.6666 8.0477 10.6666C6.57494 10.6666 5.38104 9.47274 5.38104 7.99998Z" fill="#4B70F3"/>
</svg>