<svg width="16" height="16" viewBox="0 0 16 16" fill="none" xmlns="http://www.w3.org/2000/svg">
    <path fill-rule="evenodd" clip-rule="evenodd" d="M10.6553 10.0598H11.3137L14.847 13.6098C15.1887 13.9514 15.1887 14.5098 14.847 14.8514C14.5053 15.1931 13.947 15.1931 13.6053 14.8514L10.0637 11.3098V10.6514L9.83867 10.4181C8.67201 11.4181 7.08034 11.9348 5.38867 11.6514C3.07201 11.2598 1.22201 9.32643 0.938672 6.9931C0.505339 3.4681 3.47201 0.501433 6.99701 0.934766C9.33034 1.2181 11.2637 3.0681 11.6553 5.38477C11.9387 7.07643 11.422 8.6681 10.422 9.83476L10.6553 10.0598ZM2.56365 6.30977C2.56365 8.38477 4.23865 10.0598 6.31365 10.0598C8.38865 10.0598 10.0637 8.38477 10.0637 6.30977C10.0637 4.23477 8.38865 2.55978 6.31365 2.55978C4.23865 2.55978 2.56365 4.23477 2.56365 6.30977Z" fill="#E9EBF3"/>
</svg>
