<svg width="20" height="20" viewBox="0 0 20 20" fill="none" xmlns="http://www.w3.org/2000/svg">
<path fill-rule="evenodd" clip-rule="evenodd" d="M12.6555 12.0598H13.3138L16.8471 15.6098C17.1888 15.9514 17.1888 16.5098 16.8471 16.8514C16.5055 17.1931 15.9471 17.1931 15.6055 16.8514L12.0638 13.3098V12.6514L11.8388 12.4181C10.6721 13.4181 9.08046 13.9348 7.38879 13.6514C5.07213 13.2598 3.22213 11.3264 2.93879 8.9931C2.50546 5.4681 5.47213 2.50143 8.99713 2.93477C11.3305 3.2181 13.2638 5.0681 13.6555 7.38477C13.9388 9.07643 13.4221 10.6681 12.4221 11.8348L12.6555 12.0598ZM4.56377 8.30977C4.56377 10.3848 6.23877 12.0598 8.31377 12.0598C10.3888 12.0598 12.0638 10.3848 12.0638 8.30977C12.0638 6.23477 10.3888 4.55978 8.31377 4.55978C6.23877 4.55978 4.56377 6.23477 4.56377 8.30977Z" fill="#E9EBF3"/>
</svg>
