<svg width="16" height="16" viewBox="0 0 16 16" fill="none" xmlns="http://www.w3.org/2000/svg">
    <path fill-rule="evenodd" clip-rule="evenodd" d="M8.00033 15.3334C3.95024 15.3334 0.666992 12.0501 0.666992 8.00002C0.666992 3.94993 3.95024 0.666687 8.00033 0.666687C12.0504 0.666687 15.3337 3.94993 15.3337 8.00002C15.3337 12.0501 12.0504 15.3334 8.00033 15.3334ZM8.00033 14C11.314 14 14.0003 11.3137 14.0003 8.00002C14.0003 4.68631 11.314 2.00002 8.00033 2.00002C4.68662 2.00002 2.00033 4.68631 2.00033 8.00002C2.00033 11.3137 4.68662 14 8.00033 14ZM11.3337 7.33335H8.66699V4.66669H7.33366V7.33335H4.66699V8.66669H7.33366V11.3334H8.66699V8.66669H11.3337V7.33335Z" fill="#052DFF"/>
</svg>
