<svg width="32" height="32" viewBox="0 0 32 32" fill="none" xmlns="http://www.w3.org/2000/svg">
<g filter="url(#filter0_b)">
<rect width="32" height="32" rx="3" fill="white" fill-opacity="0.25"/>
</g>
<path d="M22.3553 12.7415C22.3655 12.8836 22.3655 13.0258 22.3655 13.1679C22.3655 17.5029 19.066 22.4978 13.0355 22.4978C11.1777 22.4978 9.45178 21.9597 8 21.0258C8.26397 21.0562 8.51775 21.0664 8.79188 21.0664C10.3248 21.0664 11.736 20.5486 12.8629 19.6654C11.4213 19.6349 10.2132 18.6907 9.79694 17.3912C10 17.4217 10.203 17.442 10.4163 17.442C10.7107 17.442 11.0051 17.4014 11.2792 17.3303C9.77666 17.0257 8.64972 15.706 8.64972 14.1121V14.0715C9.08625 14.3151 9.59391 14.4674 10.1319 14.4877C9.24869 13.8988 8.67003 12.8938 8.67003 11.7567C8.67003 11.1476 8.83244 10.5892 9.11672 10.1019C10.7309 12.0917 13.1573 13.3912 15.8781 13.5334C15.8274 13.2897 15.7969 13.0359 15.7969 12.7821C15.7969 10.975 17.2588 9.50293 19.0761 9.50293C20.0203 9.50293 20.873 9.89887 21.472 10.5385C22.2131 10.3963 22.9238 10.1222 23.5533 9.74659C23.3096 10.508 22.7918 11.1476 22.1116 11.5537C22.7715 11.4826 23.4111 11.2999 23.9999 11.0461C23.5533 11.6958 22.9949 12.2745 22.3553 12.7415Z" fill="white"/>
<defs>
<filter id="filter0_b" x="-21" y="-21" width="74" height="74" filterUnits="userSpaceOnUse" color-interpolation-filters="sRGB">
<feFlood flood-opacity="0" result="BackgroundImageFix"/>
<feGaussianBlur in="BackgroundImage" stdDeviation="10.5"/>
<feComposite in2="SourceAlpha" operator="in" result="effect1_backgroundBlur"/>
<feBlend mode="normal" in="SourceGraphic" in2="effect1_backgroundBlur" result="shape"/>
</filter>
</defs>
</svg>
