<svg width="56" height="56" viewBox="0 0 56 56" fill="none" xmlns="http://www.w3.org/2000/svg">
<path d="M44.136 52H8.864C4.245 52 0.5 48.255 0.5 43.636V8.364C0.5 3.745 4.245 0 8.864 0H44.136C48.755 0 52.5 3.745 52.5 8.364V43.636C52.5 48.255 48.755 52 44.136 52Z" fill="#E9EBF3"/>
<path opacity="0.6" d="M44.5 14H26.5C25.948 14 25.5 13.553 25.5 13C25.5 12.447 25.948 12 26.5 12H44.5C45.052 12 45.5 12.447 45.5 13C45.5 13.553 45.052 14 44.5 14Z" fill="#515973"/>
<path opacity="0.6" d="M44.5 28H26.5C25.948 28 25.5 27.553 25.5 27C25.5 26.447 25.948 26 26.5 26H44.5C45.052 26 45.5 26.447 45.5 27C45.5 27.553 45.052 28 44.5 28Z" fill="#515973"/>
<path opacity="0.6" d="M44.5 42H26.5C25.948 42 25.5 41.553 25.5 41C25.5 40.447 25.948 40 26.5 40H44.5C45.052 40 45.5 40.447 45.5 41C45.5 41.553 45.052 42 44.5 42Z" fill="#515973"/>
<path opacity="0.6" d="M12.571 17.0004C12.362 17.0004 12.1509 16.9354 11.971 16.8004L7.39995 13.3714C6.95795 13.0404 6.86895 12.4134 7.19995 11.9724C7.53095 11.5304 8.15795 11.4414 8.59995 11.7724L12.422 14.6384L18.67 7.3504C19.029 6.9304 19.661 6.8824 20.08 7.2424C20.499 7.6014 20.5479 8.2324 20.188 8.6514L13.331 16.6514C13.133 16.8814 12.854 17.0004 12.571 17.0004Z" fill="#515973"/>
<path opacity="0.6" d="M12.571 31.0004C12.362 31.0004 12.1509 30.9354 11.971 30.8004L7.39995 27.3714C6.95795 27.0404 6.86895 26.4134 7.19995 25.9724C7.53095 25.5304 8.15795 25.4414 8.59995 25.7724L12.422 28.6384L18.67 21.3504C19.029 20.9304 19.661 20.8824 20.08 21.2424C20.499 21.6014 20.5479 22.2324 20.188 22.6514L13.331 30.6514C13.133 30.8814 12.854 31.0004 12.571 31.0004Z" fill="#515973"/>
<path opacity="0.6" d="M12.571 45.9994C12.362 45.9994 12.1509 45.9344 11.971 45.7994L7.39995 42.3704C6.95795 42.0394 6.86895 41.4124 7.19995 40.9714C7.53095 40.5294 8.15795 40.4414 8.59995 40.7714L12.422 43.6374L18.67 36.3504C19.029 35.9304 19.661 35.8824 20.08 36.2424C20.499 36.6014 20.5479 37.2324 20.188 37.6514L13.331 45.6504C13.133 45.8804 12.854 45.9994 12.571 45.9994Z" fill="#515973"/>
<path d="M43.5 56C50.1274 56 55.5 50.6274 55.5 44C55.5 37.3726 50.1274 32 43.5 32C36.8726 32 31.5 37.3726 31.5 44C31.5 50.6274 36.8726 56 43.5 56Z" fill="#515973"/>
<path d="M44.9141 44.0001L48.4501 40.4641C48.8411 40.0731 48.8411 39.4411 48.4501 39.0501C48.0591 38.6591 47.4271 38.6591 47.0361 39.0501L43.5001 42.5861L39.9641 39.0501C39.5731 38.6591 38.9411 38.6591 38.5501 39.0501C38.1591 39.4411 38.1591 40.0731 38.5501 40.4641L42.0861 44.0001L38.5501 47.5361C38.1591 47.9271 38.1591 48.5591 38.5501 48.9501C38.7451 49.1451 39.0011 49.2431 39.2571 49.2431C39.5131 49.2431 39.7691 49.1451 39.9641 48.9501L43.5001 45.4141L47.0361 48.9501C47.2311 49.1451 47.4871 49.2431 47.7431 49.2431C47.9991 49.2431 48.2551 49.1451 48.4501 48.9501C48.8411 48.5591 48.8411 47.9271 48.4501 47.5361L44.9141 44.0001Z" fill="white"/>
</svg>
