<svg width="16" height="14" viewBox="0 0 16 14" fill="none" xmlns="http://www.w3.org/2000/svg">
    <path d="M14.3553 3.741C14.3655 3.88313 14.3655 4.02528 14.3655 4.16741C14.3655 8.50241 11.066 13.4973 5.03553 13.4973C3.17766 13.4973 1.45178 12.9593 0 12.0253C0.263969 12.0557 0.51775 12.0659 0.791875 12.0659C2.32484 12.0659 3.73603 11.5481 4.86294 10.6649C3.42131 10.6344 2.21319 9.69025 1.79694 8.39075C2 8.42119 2.20303 8.4415 2.41625 8.4415C2.71066 8.4415 3.00509 8.40088 3.27919 8.32985C1.77666 8.02525 0.649719 6.70547 0.649719 5.11157V5.07097C1.08625 5.31463 1.59391 5.46691 2.13194 5.48719C1.24869 4.89835 0.670031 3.89329 0.670031 2.75622C0.670031 2.1471 0.832437 1.58872 1.11672 1.10141C2.73094 3.09125 5.15734 4.39072 7.87812 4.53288C7.82737 4.28922 7.79691 4.03544 7.79691 3.78163C7.79691 1.9745 9.25884 0.502441 11.0761 0.502441C12.0202 0.502441 12.873 0.898379 13.472 1.53797C14.2131 1.39585 14.9238 1.12172 15.5532 0.746098C15.3096 1.50754 14.7918 2.14713 14.1116 2.55319C14.7715 2.48216 15.4111 2.29938 15.9999 2.0456C15.5533 2.69532 14.9949 3.27397 14.3553 3.741V3.741Z" fill="white"/>
</svg>
