<svg width="11" height="10" viewBox="0 0 11 10" fill="none" xmlns="http://www.w3.org/2000/svg">
<path d="M2.27064 0.975616L1.41239 0.975616C1.04899 0.975616 0.755171 1.26943 0.757104 1.6309L0.75517 9.14448C0.75517 9.50789 1.04899 9.8017 1.41046 9.79977L8.92597 9.79977C9.28937 9.79977 9.58319 9.50595 9.58126 9.14448L9.58126 8.28623C9.58126 7.91896 9.27778 7.62321 8.91051 7.63094L4.36215 7.74112L9.9176 2.18567C10.1747 1.92858 10.1747 1.51492 9.9176 1.25783L9.29904 0.639273C9.04195 0.382183 8.62829 0.382183 8.3712 0.639273L2.81575 6.19472L2.92593 1.64637C2.9356 1.27716 2.63985 0.973683 2.27064 0.975616Z" fill="#ED5052"/>
</svg>
