<svg width="16" height="16" viewBox="0 0 16 16" fill="none" xmlns="http://www.w3.org/2000/svg">
<g opacity="0.6">
<path fill-rule="evenodd" clip-rule="evenodd" d="M1.3335 7.99967C1.3335 4.31301 4.3135 1.33301 8.00016 1.33301C11.6868 1.33301 14.6668 4.31301 14.6668 7.99967C14.6668 11.6863 11.6868 14.6663 8.00016 14.6663C4.3135 14.6663 1.3335 11.6863 1.3335 7.99967ZM9.92683 10.8663C10.1868 11.1263 10.6068 11.1263 10.8668 10.8663C11.1202 10.6063 11.1202 10.1797 10.8668 9.92634L8.94016 7.99968L10.8668 6.07301C11.1268 5.81301 11.1268 5.39301 10.8668 5.13301C10.6068 4.87301 10.1868 4.87301 9.92683 5.13301L8.00016 7.05967L6.0735 5.13301C5.8135 4.87301 5.3935 4.87301 5.1335 5.13301C5.00866 5.25756 4.93851 5.42666 4.93851 5.60301C4.93851 5.77935 5.00866 5.94845 5.1335 6.07301L7.06016 7.99968L5.1335 9.92634C5.00866 10.0509 4.93851 10.22 4.93851 10.3963C4.93851 10.5727 5.00866 10.7418 5.1335 10.8663C5.3935 11.1263 5.8135 11.1263 6.0735 10.8663L8.00016 8.93968L9.92683 10.8663Z" fill="#515973"/>
</g>
</svg>
