<svg width="36" height="34" viewBox="0 0 36 34" fill="none" xmlns="http://www.w3.org/2000/svg">
<path d="M34.8 21.2624V1.40005C34.8 1.06825 34.5312 0.800049 34.2 0.800049H0.6C0.2688 0.800049 0 1.06825 0 1.40005V27.8C0 28.1318 0.2688 28.4 0.6 28.4H21.0018C22.1796 31.2158 24.9618 33.2 28.2 33.2C32.5008 33.2 36 29.7008 36 25.4C36 23.879 35.556 22.463 34.8 21.2624ZM20.6154 27.2H1.2V2.00005H33.6V19.7732C33.498 19.6748 33.3876 19.5866 33.2808 19.4942C33.228 19.4492 33.1782 19.4012 33.1242 19.3574C32.9832 19.2422 32.8362 19.1354 32.6874 19.0304C32.6322 18.9914 32.5788 18.9494 32.5224 18.9116C32.3754 18.8138 32.2236 18.7244 32.07 18.6368C32.0046 18.599 31.9416 18.5588 31.875 18.5234C31.8288 18.4988 31.7826 18.4736 31.7358 18.4496C31.8432 18.2186 31.803 17.9384 31.605 17.7572L24.405 11.1572C24.2874 11.0498 24.135 10.991 23.973 11C23.814 11.0072 23.664 11.0774 23.5566 11.195L17.6802 17.6312L14.8344 14.7854C14.61 14.5616 14.2512 14.5508 14.0136 14.759L3.8034 23.7494C3.5544 23.9684 3.5304 24.3476 3.7494 24.5966C3.8682 24.7316 4.0338 24.8 4.2 24.8C4.3404 24.8 4.482 24.7508 4.596 24.6506L14.3838 16.0334L20.565 22.214C20.6868 22.3358 20.847 22.391 21.0066 22.3862C20.6166 23.3138 20.4 24.332 20.4 25.4C20.4 25.6958 20.4198 25.9862 20.4522 26.2736C20.4576 26.3186 20.4666 26.363 20.4726 26.408C20.5062 26.6648 20.5512 26.9174 20.6088 27.1652C20.6118 27.1766 20.6124 27.1886 20.6154 27.2ZM29.2674 17.6816C29.1702 17.6684 29.0748 17.6486 28.9764 17.639C28.7202 17.6138 28.461 17.6 28.2 17.6C25.3362 17.6 22.8348 19.1558 21.4782 21.4622C21.4566 21.4298 21.4422 21.3938 21.414 21.365L18.5298 18.4808L24.0384 12.4484L29.8548 17.7806C29.8146 17.7716 29.775 17.7614 29.7348 17.7536C29.5806 17.7224 29.4234 17.7032 29.2674 17.6816ZM28.2 32C25.3278 32 22.8846 30.152 21.9798 27.5852C21.9234 27.425 21.8742 27.2636 21.8304 27.1016C21.8214 27.0668 21.8124 27.0326 21.8034 26.9978C21.7674 26.855 21.7362 26.7122 21.7098 26.5682C21.6954 26.4884 21.6846 26.408 21.6732 26.3276C21.6576 26.2196 21.6408 26.1116 21.6306 26.0036C21.6126 25.8044 21.6 25.6034 21.6 25.4C21.6 21.761 24.561 18.8 28.2 18.8C28.4556 18.8 28.7088 18.8186 28.959 18.8474C29.0352 18.8564 29.109 18.8708 29.184 18.8816C29.3586 18.908 29.5314 18.9392 29.7018 18.9788C29.7864 18.9986 29.8704 19.0208 29.9544 19.0436C30.1152 19.088 30.273 19.139 30.4296 19.1954C30.51 19.2242 30.591 19.2518 30.6696 19.2836C30.8466 19.355 31.0194 19.4366 31.1892 19.523C31.239 19.5482 31.2912 19.5692 31.3404 19.5956C31.5456 19.7066 31.743 19.8314 31.9356 19.964C32.0142 20.018 32.0886 20.078 32.1648 20.1356C32.2842 20.2256 32.4018 20.3186 32.5152 20.417C32.5914 20.483 32.6658 20.5514 32.739 20.6204C32.8548 20.7308 32.9664 20.8466 33.0744 20.9654C33.1308 21.0272 33.189 21.0866 33.243 21.1508C33.3996 21.3374 33.549 21.5312 33.6864 21.7364C34.389 22.7858 34.8 24.0458 34.8 25.4C34.8 29.039 31.839 32 28.2 32Z" fill="#515973"/>
</svg>
