<svg width="24" height="24" viewBox="0 0 24 24" fill="none" xmlns="http://www.w3.org/2000/svg">
<path d="M18.9155 22.2857H3.79893C1.81936 22.2857 0.214355 20.6807 0.214355 18.7011V3.58457C0.214355 1.605 1.81936 0 3.79893 0H18.9155C20.8951 0 22.5001 1.605 22.5001 3.58457V18.7011C22.5001 20.6807 20.8951 22.2857 18.9155 22.2857Z" fill="#E9EBF3"/>
<path d="M19.0716 5.99997H11.3573C11.1207 5.99997 10.9287 5.80839 10.9287 5.57139C10.9287 5.33439 11.1207 5.14282 11.3573 5.14282H19.0716C19.3081 5.14282 19.5001 5.33439 19.5001 5.57139C19.5001 5.80839 19.3081 5.99997 19.0716 5.99997Z" fill="#515973"/>
<path d="M19.0716 12H11.3573C11.1207 12 10.9287 11.8084 10.9287 11.5714C10.9287 11.3344 11.1207 11.1428 11.3573 11.1428H19.0716C19.3081 11.1428 19.5001 11.3344 19.5001 11.5714C19.5001 11.8084 19.3081 12 19.0716 12Z" fill="#515973"/>
<path d="M19.0716 18H11.3573C11.1207 18 10.9287 17.8084 10.9287 17.5714C10.9287 17.3344 11.1207 17.1428 11.3573 17.1428H19.0716C19.3081 17.1428 19.5001 17.3344 19.5001 17.5714C19.5001 17.8084 19.3081 18 19.0716 18Z" fill="#515973"/>
<path d="M5.38755 7.28571C5.29798 7.28571 5.20755 7.25785 5.13041 7.2L3.17141 5.73042C2.98198 5.58857 2.94384 5.31985 3.08569 5.13085C3.22755 4.94142 3.49626 4.90328 3.68569 5.04514L5.32369 6.27342L8.00141 3.15C8.15569 2.97 8.42655 2.94942 8.60569 3.10371C8.78526 3.25757 8.80626 3.528 8.65198 3.70757L5.71326 7.13614C5.62841 7.23471 5.50884 7.28571 5.38755 7.28571Z" fill="#515973"/>
<path d="M5.38755 13.2857C5.29798 13.2857 5.20755 13.2579 5.13041 13.2L3.17141 11.7304C2.98198 11.5886 2.94384 11.3199 3.08569 11.1309C3.22755 10.9414 3.49626 10.9033 3.68569 11.0451L5.32369 12.2734L8.00141 9.15C8.15569 8.97 8.42655 8.94942 8.60569 9.10371C8.78526 9.25757 8.80626 9.528 8.65198 9.70757L5.71326 13.1361C5.62841 13.2347 5.50884 13.2857 5.38755 13.2857Z" fill="#515973"/>
<path d="M5.38755 19.714C5.29798 19.714 5.20755 19.6861 5.13041 19.6283L3.17141 18.1587C2.98198 18.0168 2.94384 17.7481 3.08569 17.5591C3.22755 17.3697 3.49626 17.332 3.68569 17.4734L5.32369 18.7017L8.00141 15.5787C8.15569 15.3987 8.42655 15.3781 8.60569 15.5324C8.78526 15.6863 8.80626 15.9567 8.65198 16.1363L5.71326 19.5644C5.62841 19.663 5.50884 19.714 5.38755 19.714Z" fill="#515973"/>
<path d="M18.6429 24.0001C21.4832 24.0001 23.7857 21.6975 23.7857 18.8572C23.7857 16.0169 21.4832 13.7144 18.6429 13.7144C15.8025 13.7144 13.5 16.0169 13.5 18.8572C13.5 21.6975 15.8025 24.0001 18.6429 24.0001Z" fill="#20DDAD"/>
<path d="M21.4591 16.3624C21.2641 16.2269 20.9975 16.2749 20.8625 16.4695L18.4642 19.9152L16.7718 18.5258C16.5892 18.3754 16.3188 18.4024 16.1688 18.5854C16.0183 18.7684 16.0449 19.0384 16.2283 19.1884L18.2795 20.8722C18.3566 20.9352 18.4526 20.9695 18.5512 20.9695C18.5705 20.9695 18.5902 20.9682 18.6099 20.9656C18.7282 20.9489 18.8345 20.8842 18.9031 20.7861L21.5662 16.9594C21.7012 16.7648 21.6532 16.4978 21.4591 16.3624Z" fill="white"/>
</svg>
