<svg width="32" height="32" viewBox="0 0 32 32" fill="none" xmlns="http://www.w3.org/2000/svg">
<path d="M29.8665 2.39941H0.533203V24.7994H29.8665V2.39941Z" fill="#E9EBF3"/>
<path d="M30.4 25.3329H0V1.86621H30.4V25.3329ZM1.06667 24.2662H29.3333V2.93288H1.06667V24.2662Z" fill="#E9EBF3"/>
<path d="M27.7332 4.5332H2.6665V22.6665H27.7332V4.5332Z" fill="#515973"/>
<path d="M28.2666 23.2H2.1333V4H28.2666V23.2ZM3.19997 22.1333H27.2V5.06667H3.19997V22.1333Z" fill="#E9EBF3"/>
<path d="M7.99979 11.5396C9.3456 11.5396 10.4366 10.4486 10.4366 9.10282C10.4366 7.75701 9.3456 6.66602 7.99979 6.66602C6.65398 6.66602 5.56299 7.75701 5.56299 9.10282C5.56299 10.4486 6.65398 11.5396 7.99979 11.5396Z" fill="#FEC754"/>
<path d="M27.1998 17.3918L26.6665 16.7993L20.2665 10.9326L14.6665 17.066L17.5908 19.9902L19.7332 22.1326H27.1998V17.3918Z" fill="#1ED0A3"/>
<path d="M3.2002 22.1325H19.7335L17.5911 19.9901L11.7426 14.1416L3.2002 21.5992V22.1325Z" fill="#20DDAD"/>
<path d="M25.6002 30.133C29.1348 30.133 32.0002 27.2676 32.0002 23.733C32.0002 20.1984 29.1348 17.333 25.6002 17.333C22.0656 17.333 19.2002 20.1984 19.2002 23.733C19.2002 27.2676 22.0656 30.133 25.6002 30.133Z" fill="#20DDAD"/>
<path d="M29.1047 20.628C28.862 20.4595 28.5303 20.5192 28.3623 20.7613L25.3778 25.0493L23.2716 23.3203C23.0444 23.1331 22.7079 23.1667 22.5212 23.3944C22.334 23.6221 22.3671 23.9581 22.5954 24.1448L25.1479 26.2403C25.2439 26.3187 25.3634 26.3613 25.486 26.3613C25.51 26.3613 25.5346 26.3597 25.5591 26.3565C25.7063 26.3357 25.8386 26.2552 25.9239 26.1331L29.238 21.3709C29.406 21.1288 29.3463 20.7965 29.1047 20.628Z" fill="white"/>
</svg>
