<svg width="59" height="55" viewBox="0 0 59 55" fill="none" xmlns="http://www.w3.org/2000/svg">
<path fill-rule="evenodd" clip-rule="evenodd" d="M19 8H51C53.2 8 55 9.8 55 12V36C55 38.2 53.2 40 51 40H19C16.8 40 15 38.2 15 36L15.02 12C15.02 9.8 16.8 8 19 8ZM36.06 25.34L50.2 16.5C50.7 16.18 51 15.64 51 15.06C51 13.72 49.54 12.92 48.4 13.62L35 22L21.6 13.62C20.46 12.92 19 13.72 19 15.06C19 15.64 19.3 16.18 19.8 16.5L33.94 25.34C34.58 25.74 35.42 25.74 36.06 25.34Z" fill="#515973"/>
<g filter="url(#filter0_d)">
<circle cx="15" cy="40" r="12" fill="white"/>
</g>
<path d="M12.3334 43.2541L9.41676 40.3374C9.26272 40.1815 9.05264 40.0937 8.83343 40.0937C8.61422 40.0937 8.40414 40.1815 8.2501 40.3374C7.9251 40.6624 7.9251 41.1791 8.2501 41.5041L11.7418 44.9958C12.0668 45.3208 12.5918 45.3208 12.9168 44.9958L21.7501 36.1708C22.0751 35.8458 22.0751 35.3291 21.7501 35.0041C21.5961 34.8482 21.386 34.7604 21.1668 34.7604C20.9476 34.7604 20.7375 34.8482 20.5834 35.0041L12.3334 43.2541Z" fill="#42BA8B" fill-opacity="0.6"/>
<defs>
<filter id="filter0_d" x="0" y="25" width="30" height="30" filterUnits="userSpaceOnUse" color-interpolation-filters="sRGB">
<feFlood flood-opacity="0" result="BackgroundImageFix"/>
<feColorMatrix in="SourceAlpha" type="matrix" values="0 0 0 0 0 0 0 0 0 0 0 0 0 0 0 0 0 0 127 0"/>
<feOffset/>
<feGaussianBlur stdDeviation="1.5"/>
<feColorMatrix type="matrix" values="0 0 0 0 0 0 0 0 0 0 0 0 0 0 0 0 0 0 0.2 0"/>
<feBlend mode="normal" in2="BackgroundImageFix" result="effect1_dropShadow"/>
<feBlend mode="normal" in="SourceGraphic" in2="effect1_dropShadow" result="shape"/>
</filter>
</defs>
</svg>
