<svg width="50" height="50" viewBox="0 0 50 50" fill="none" xmlns="http://www.w3.org/2000/svg">
<rect width="50" height="50" fill="#052DFF"/>
<path d="M28 12.4648L23 14V17L28 15.4609V12.4648Z" fill="white"/>
<path d="M36 16L23 20V25L36 21V16Z" fill="white"/>
<path d="M36 22.5L23 26.5V31.5L36 27.5V22.5Z" fill="white"/>
<path d="M36 29L23 33V38L36 34V29Z" fill="white"/>
<path d="M14 16L23 20V25L14 21V16Z" fill="white"/>
<path d="M14 22.5L23 26.5V31.5L14 27.5V22.5Z" fill="white"/>
<path d="M14 29L23 33V38L14 34V29Z" fill="white"/>
</svg>
