<svg width="122" height="32" viewBox="0 0 122 32" fill="none" xmlns="http://www.w3.org/2000/svg">
<path d="M18.1567 0.160156L11.8857 2.03461V5.69757L18.1567 3.81835V0.160156Z" fill="#052DFF"/>
<path d="M28.1903 4.47754L11.8857 9.36148V15.4664L28.1903 10.5825V4.47754Z" fill="#052DFF"/>
<path d="M28.1903 12.4131L11.8857 17.297V23.402L28.1903 18.518V12.4131Z" fill="#052DFF"/>
<path d="M28.1903 20.3496L11.8857 25.2335V31.3385L28.1903 26.4545V20.3496Z" fill="#052DFF"/>
<path d="M0.598145 4.47754L11.8859 9.36148V15.4664L0.598145 10.5825V4.47754Z" fill="#052DFF"/>
<path d="M0.598145 12.4131L11.8859 17.297V23.402L0.598145 18.518V12.4131Z" fill="#052DFF"/>
<path d="M0.598145 20.3496L11.8859 25.2335V31.3385L0.598145 26.4545V20.3496Z" fill="#052DFF"/>
<path d="M35.7119 6.66619H39.6214V16.931H42.2902V6.66619H46.1998V4.49906H35.7119V6.66619ZM55.8334 4.49906V12.6272C55.8334 13.9566 54.7297 14.7639 53.2208 14.7639C51.7305 14.7639 50.6268 13.9566 50.6268 12.6272V4.49906H47.9269V12.7182C47.9269 15.5348 50.1218 17.107 53.2208 17.107C56.3072 17.107 58.5146 15.5348 58.5146 12.7182V4.49906H55.8334ZM60.7359 16.931H63.4358V12.354H65.4935L67.9315 16.931H70.912L68.1934 11.9291C69.6089 11.3039 70.4382 10.0776 70.4382 8.46299C70.4382 6.02273 68.7484 4.49906 65.8365 4.49906H60.7359V16.931ZM63.4358 10.3812V6.648H65.6244C66.9214 6.648 67.6447 7.35214 67.6447 8.51757C67.6447 9.65882 66.9401 10.3812 65.5558 10.3812H63.4358ZM83.043 4.49906H80.3555V12.3175H80.2432L74.7312 4.49906H72.3617V16.931H75.0616V9.10645H75.1552L80.7109 16.931H83.043V4.49906ZM97.0086 10.715C97.0086 6.648 94.4147 4.3291 91.0288 4.3291C87.6243 4.3291 85.0492 6.648 85.0492 10.715C85.0492 14.7639 87.6243 17.101 91.0288 17.101C94.4147 17.101 97.0086 14.7821 97.0086 10.715ZM94.2713 10.715C94.2713 13.3495 92.9868 14.776 91.0288 14.776C89.0648 14.776 87.7865 13.3495 87.7865 10.715C87.7865 8.08058 89.0648 6.65398 91.0288 6.65398C92.9868 6.65398 94.2713 8.08058 94.2713 10.715ZM106.915 4.49906V12.6272C106.915 13.9566 105.811 14.7639 104.302 14.7639C102.812 14.7639 101.708 13.9566 101.708 12.6272V4.49906H99.0086V12.7182C99.0086 15.5348 101.203 17.107 104.302 17.107C107.389 17.107 109.596 15.5348 109.596 12.7182V4.49906H106.915ZM111.331 6.66619H115.24V16.931H117.909V6.66619H121.819V4.49906H111.331V6.66619Z" fill="black"/>
<path d="M46.6871 22.4584H45.6003V29.4478H45.5113L40.5229 22.4584H39.4541V31.3383H40.5585V24.3662H40.6477L45.6181 31.3383H46.6871V22.4584ZM49.0205 31.3383L49.9381 28.8234H53.6258L54.5434 31.3383H55.7014L52.352 22.4584H51.2118L47.8626 31.3383H49.0205ZM50.2855 27.8696L51.7463 23.8631H51.8176L53.2784 27.8696H50.2855ZM55.3068 23.4122H58.1752V31.3383H59.2796V23.4122H62.148V22.4584H55.3068V23.4122ZM64.7064 22.4584H63.6018V31.3383H64.7064V22.4584ZM74.3664 26.8983C74.3664 24.0887 72.6739 22.3369 70.3401 22.3369C68.0063 22.3369 66.3139 24.0887 66.3139 26.8983C66.3139 29.708 68.0063 31.4596 70.3401 31.4596C72.6739 31.4596 74.3664 29.708 74.3664 26.8983ZM73.2974 26.8983C73.2974 29.205 71.9969 30.4538 70.3401 30.4538C68.6833 30.4538 67.3827 29.205 67.3827 26.8983C67.3827 24.5916 68.6833 23.3429 70.3401 23.3429C71.9969 23.3429 73.2974 24.5916 73.2974 26.8983ZM83.2058 22.4584H82.1191V29.4478H82.03L77.0417 22.4584H75.9727V31.3383H77.0773V24.3662H77.1664L82.1369 31.3383H83.2058V22.4584Z" fill="black"/>
</svg>
