<svg width="117" height="51" viewBox="0 0 117 51" fill="none" xmlns="http://www.w3.org/2000/svg">
<rect width="117" height="51" fill="#052DFF"/>
<path d="M24 11.4648L19 13V16L24 14.4609V11.4648Z" fill="white"/>
<path d="M32 15L19 19V24L32 20V15Z" fill="white"/>
<path d="M32 21.5L19 25.5V30.5L32 26.5V21.5Z" fill="white"/>
<path d="M32 28L19 32V37L32 33V28Z" fill="white"/>
<path d="M10 15L19 19V24L10 20V15Z" fill="white"/>
<path d="M10 21.5L19 25.5V30.5L10 26.5V21.5Z" fill="white"/>
<path d="M10 28L19 32V37L10 33V28Z" fill="white"/>
<path d="M37.9972 16.793H41.1143V25.2H43.2422V16.793H46.3594V15.0181H37.9972V16.793ZM54.0405 15.0181V21.6751C54.0405 22.7639 53.1605 23.4251 51.9574 23.4251C50.7692 23.4251 49.8892 22.7639 49.8892 21.6751V15.0181H47.7365V21.7497C47.7365 24.0565 49.4865 25.3441 51.9574 25.3441C54.4183 25.3441 56.1783 24.0565 56.1783 21.7497V15.0181H54.0405ZM57.9494 25.2H60.1021V21.4514H61.7427L63.6866 25.2H66.063L63.8954 21.1034C65.024 20.5913 65.6852 19.587 65.6852 18.2646C65.6852 16.266 64.3379 15.0181 62.0162 15.0181H57.9494V25.2ZM60.1021 19.8356V16.7781H61.8471C62.8812 16.7781 63.4579 17.3548 63.4579 18.3093C63.4579 19.244 62.8961 19.8356 61.7924 19.8356H60.1021ZM75.7353 15.0181H73.5925V21.4215H73.503L69.1081 15.0181H67.2189V25.2H69.3716V18.7916H69.4462L73.8759 25.2H75.7353V15.0181ZM86.8704 20.109C86.8704 16.7781 84.8022 14.8789 82.1026 14.8789C79.3881 14.8789 77.3349 16.7781 77.3349 20.109C77.3349 23.4251 79.3881 25.3392 82.1026 25.3392C84.8022 25.3392 86.8704 23.44 86.8704 20.109ZM84.6879 20.109C84.6879 22.2667 83.6637 23.435 82.1026 23.435C80.5366 23.435 79.5174 22.2667 79.5174 20.109C79.5174 17.9514 80.5366 16.783 82.1026 16.783C83.6637 16.783 84.6879 17.9514 84.6879 20.109ZM94.769 15.0181V21.6751C94.769 22.7639 93.889 23.4251 92.6859 23.4251C91.4977 23.4251 90.6177 22.7639 90.6177 21.6751V15.0181H88.465V21.7497C88.465 24.0565 90.215 25.3441 92.6859 25.3441C95.1468 25.3441 96.9068 24.0565 96.9068 21.7497V15.0181H94.769ZM98.2901 16.793H101.407V25.2H103.535V16.793H106.652V15.0181H98.2901V16.793Z" fill="white"/>
<path d="M46.7477 29.7273H45.8812V35.4517H45.8102L41.8329 29.7273H40.9807V37H41.8613V31.2898H41.9324L45.8954 37H46.7477V29.7273ZM48.6082 37L49.3398 34.9403H52.2801L53.0117 37H53.935L51.2645 29.7273H50.3554L47.685 37H48.6082ZM49.6168 34.1591L50.7815 30.8778H50.8384L52.0031 34.1591H49.6168ZM53.6204 30.5085H55.9074V37H56.788V30.5085H59.075V29.7273H53.6204V30.5085ZM61.1149 29.7273H60.2342V37H61.1149V29.7273ZM68.817 33.3636C68.817 31.0625 67.4676 29.6278 65.6068 29.6278C63.746 29.6278 62.3966 31.0625 62.3966 33.3636C62.3966 35.6648 63.746 37.0994 65.6068 37.0994C67.4676 37.0994 68.817 35.6648 68.817 33.3636ZM67.9647 33.3636C67.9647 35.2528 66.9278 36.2756 65.6068 36.2756C64.2858 36.2756 63.2488 35.2528 63.2488 33.3636C63.2488 31.4744 64.2858 30.4517 65.6068 30.4517C66.9278 30.4517 67.9647 31.4744 67.9647 33.3636ZM75.8649 29.7273H74.9984V35.4517H74.9274L70.9501 29.7273H70.0978V37H70.9785V31.2898H71.0495L75.0126 37H75.8649V29.7273Z" fill="white"/>
</svg>
