<svg width="125" height="105" viewBox="0 0 125 105" fill="none" xmlns="http://www.w3.org/2000/svg">
<path fill-rule="evenodd" clip-rule="evenodd" d="M2.83784 5.67568C4.40513 5.67568 5.67568 4.40513 5.67568 2.83784C5.67568 1.27054 4.40513 0 2.83784 0C1.27054 0 0 1.27054 0 2.83784C0 4.40513 1.27054 5.67568 2.83784 5.67568ZM5.67568 22.7027C5.67568 24.27 4.40513 25.5405 2.83784 25.5405C1.27054 25.5405 0 24.27 0 22.7027C0 21.1354 1.27054 19.8649 2.83784 19.8649C4.40513 19.8649 5.67568 21.1354 5.67568 22.7027ZM2.83784 45.4054C4.40513 45.4054 5.67568 44.1349 5.67568 42.5676C5.67568 41.0003 4.40513 39.7297 2.83784 39.7297C1.27054 39.7297 0 41.0003 0 42.5676C0 44.1349 1.27054 45.4054 2.83784 45.4054ZM5.67568 62.4324C5.67568 63.9997 4.40513 65.2703 2.83784 65.2703C1.27054 65.2703 0 63.9997 0 62.4324C0 60.8651 1.27054 59.5946 2.83784 59.5946C4.40513 59.5946 5.67568 60.8651 5.67568 62.4324ZM2.83784 85.1351C4.40513 85.1351 5.67568 83.8646 5.67568 82.2973C5.67568 80.73 4.40513 79.4595 2.83784 79.4595C1.27054 79.4595 0 80.73 0 82.2973C0 83.8646 1.27054 85.1351 2.83784 85.1351ZM2.83784 105C4.40513 105 5.67568 103.729 5.67568 102.162C5.67568 100.595 4.40513 99.3243 2.83784 99.3243C1.27054 99.3243 0 100.595 0 102.162C0 103.729 1.27054 105 2.83784 105ZM25.5405 102.162C25.5405 103.729 24.27 105 22.7027 105C21.1354 105 19.8649 103.729 19.8649 102.162C19.8649 100.595 21.1354 99.3243 22.7027 99.3243C24.27 99.3243 25.5405 100.595 25.5405 102.162ZM42.5676 105C44.1349 105 45.4054 103.729 45.4054 102.162C45.4054 100.595 44.1349 99.3243 42.5676 99.3243C41.0003 99.3243 39.7297 100.595 39.7297 102.162C39.7297 103.729 41.0003 105 42.5676 105ZM25.5405 82.2973C25.5405 83.8646 24.27 85.1351 22.7027 85.1351C21.1354 85.1351 19.8649 83.8646 19.8649 82.2973C19.8649 80.73 21.1354 79.4595 22.7027 79.4595C24.27 79.4595 25.5405 80.73 25.5405 82.2973ZM42.5676 85.1351C44.1349 85.1351 45.4054 83.8646 45.4054 82.2973C45.4054 80.73 44.1349 79.4595 42.5676 79.4595C41.0003 79.4595 39.7297 80.73 39.7297 82.2973C39.7297 83.8646 41.0003 85.1351 42.5676 85.1351ZM25.5405 62.4324C25.5405 63.9997 24.27 65.2703 22.7027 65.2703C21.1354 65.2703 19.8649 63.9997 19.8649 62.4324C19.8649 60.8651 21.1354 59.5946 22.7027 59.5946C24.27 59.5946 25.5405 60.8651 25.5405 62.4324ZM42.5676 65.2703C44.1349 65.2703 45.4054 63.9997 45.4054 62.4324C45.4054 60.8651 44.1349 59.5946 42.5676 59.5946C41.0003 59.5946 39.7297 60.8651 39.7297 62.4324C39.7297 63.9997 41.0003 65.2703 42.5676 65.2703ZM25.5405 42.5676C25.5405 44.1349 24.27 45.4054 22.7027 45.4054C21.1354 45.4054 19.8649 44.1349 19.8649 42.5676C19.8649 41.0003 21.1354 39.7297 22.7027 39.7297C24.27 39.7297 25.5405 41.0003 25.5405 42.5676ZM42.5676 45.4054C44.1349 45.4054 45.4054 44.1349 45.4054 42.5676C45.4054 41.0003 44.1349 39.7297 42.5676 39.7297C41.0003 39.7297 39.7297 41.0003 39.7297 42.5676C39.7297 44.1349 41.0003 45.4054 42.5676 45.4054ZM25.5405 22.7027C25.5405 24.27 24.27 25.5405 22.7027 25.5405C21.1354 25.5405 19.8649 24.27 19.8649 22.7027C19.8649 21.1354 21.1354 19.8649 22.7027 19.8649C24.27 19.8649 25.5405 21.1354 25.5405 22.7027ZM42.5676 25.5405C44.1349 25.5405 45.4054 24.27 45.4054 22.7027C45.4054 21.1354 44.1349 19.8649 42.5676 19.8649C41.0003 19.8649 39.7297 21.1354 39.7297 22.7027C39.7297 24.27 41.0003 25.5405 42.5676 25.5405ZM25.5405 2.83784C25.5405 4.40513 24.27 5.67568 22.7027 5.67568C21.1354 5.67568 19.8649 4.40513 19.8649 2.83784C19.8649 1.27054 21.1354 0 22.7027 0C24.27 0 25.5405 1.27054 25.5405 2.83784ZM42.5676 5.67568C44.1349 5.67568 45.4054 4.40513 45.4054 2.83784C45.4054 1.27054 44.1349 0 42.5676 0C41.0003 0 39.7297 1.27054 39.7297 2.83784C39.7297 4.40513 41.0003 5.67568 42.5676 5.67568ZM65.2703 102.162C65.2703 103.729 63.9997 105 62.4324 105C60.8651 105 59.5946 103.729 59.5946 102.162C59.5946 100.595 60.8651 99.3243 62.4324 99.3243C63.9997 99.3243 65.2703 100.595 65.2703 102.162ZM82.2973 105C83.8646 105 85.1351 103.729 85.1351 102.162C85.1351 100.595 83.8646 99.3243 82.2973 99.3243C80.73 99.3243 79.4595 100.595 79.4595 102.162C79.4595 103.729 80.73 105 82.2973 105ZM65.2703 82.2973C65.2703 83.8646 63.9997 85.1351 62.4324 85.1351C60.8651 85.1351 59.5946 83.8646 59.5946 82.2973C59.5946 80.73 60.8651 79.4595 62.4324 79.4595C63.9997 79.4595 65.2703 80.73 65.2703 82.2973ZM82.2973 85.1351C83.8646 85.1351 85.1351 83.8646 85.1351 82.2973C85.1351 80.73 83.8646 79.4595 82.2973 79.4595C80.73 79.4595 79.4595 80.73 79.4595 82.2973C79.4595 83.8646 80.73 85.1351 82.2973 85.1351ZM65.2703 62.4324C65.2703 63.9997 63.9997 65.2703 62.4324 65.2703C60.8651 65.2703 59.5946 63.9997 59.5946 62.4324C59.5946 60.8651 60.8651 59.5946 62.4324 59.5946C63.9997 59.5946 65.2703 60.8651 65.2703 62.4324ZM82.2973 65.2703C83.8646 65.2703 85.1351 63.9997 85.1351 62.4324C85.1351 60.8651 83.8646 59.5946 82.2973 59.5946C80.73 59.5946 79.4595 60.8651 79.4595 62.4324C79.4595 63.9997 80.73 65.2703 82.2973 65.2703ZM65.2703 42.5676C65.2703 44.1349 63.9997 45.4054 62.4324 45.4054C60.8651 45.4054 59.5946 44.1349 59.5946 42.5676C59.5946 41.0003 60.8651 39.7297 62.4324 39.7297C63.9997 39.7297 65.2703 41.0003 65.2703 42.5676ZM82.2973 45.4054C83.8646 45.4054 85.1351 44.1349 85.1351 42.5676C85.1351 41.0003 83.8646 39.7297 82.2973 39.7297C80.73 39.7297 79.4595 41.0003 79.4595 42.5676C79.4595 44.1349 80.73 45.4054 82.2973 45.4054ZM65.2703 22.7027C65.2703 24.27 63.9997 25.5405 62.4324 25.5405C60.8651 25.5405 59.5946 24.27 59.5946 22.7027C59.5946 21.1354 60.8651 19.8649 62.4324 19.8649C63.9997 19.8649 65.2703 21.1354 65.2703 22.7027ZM82.2973 25.5405C83.8646 25.5405 85.1351 24.27 85.1351 22.7027C85.1351 21.1354 83.8646 19.8649 82.2973 19.8649C80.73 19.8649 79.4595 21.1354 79.4595 22.7027C79.4595 24.27 80.73 25.5405 82.2973 25.5405ZM65.2703 2.83784C65.2703 4.40513 63.9997 5.67568 62.4324 5.67568C60.8651 5.67568 59.5946 4.40513 59.5946 2.83784C59.5946 1.27054 60.8651 0 62.4324 0C63.9997 0 65.2703 1.27054 65.2703 2.83784ZM82.2973 5.67568C83.8646 5.67568 85.1351 4.40513 85.1351 2.83784C85.1351 1.27054 83.8646 0 82.2973 0C80.73 0 79.4595 1.27054 79.4595 2.83784C79.4595 4.40513 80.73 5.67568 82.2973 5.67568ZM105 102.162C105 103.729 103.729 105 102.162 105C100.595 105 99.3243 103.729 99.3243 102.162C99.3243 100.595 100.595 99.3243 102.162 99.3243C103.729 99.3243 105 100.595 105 102.162ZM122.027 105C123.594 105 124.865 103.729 124.865 102.162C124.865 100.595 123.594 99.3243 122.027 99.3243C120.46 99.3243 119.189 100.595 119.189 102.162C119.189 103.729 120.46 105 122.027 105ZM105 82.2973C105 83.8646 103.729 85.1351 102.162 85.1351C100.595 85.1351 99.3243 83.8646 99.3243 82.2973C99.3243 80.73 100.595 79.4595 102.162 79.4595C103.729 79.4595 105 80.73 105 82.2973ZM122.027 85.1351C123.594 85.1351 124.865 83.8646 124.865 82.2973C124.865 80.73 123.594 79.4595 122.027 79.4595C120.46 79.4595 119.189 80.73 119.189 82.2973C119.189 83.8646 120.46 85.1351 122.027 85.1351ZM105 62.4324C105 63.9997 103.729 65.2703 102.162 65.2703C100.595 65.2703 99.3243 63.9997 99.3243 62.4324C99.3243 60.8651 100.595 59.5946 102.162 59.5946C103.729 59.5946 105 60.8651 105 62.4324ZM122.027 65.2703C123.594 65.2703 124.865 63.9997 124.865 62.4324C124.865 60.8651 123.594 59.5946 122.027 59.5946C120.46 59.5946 119.189 60.8651 119.189 62.4324C119.189 63.9997 120.46 65.2703 122.027 65.2703ZM105 42.5676C105 44.1349 103.729 45.4054 102.162 45.4054C100.595 45.4054 99.3243 44.1349 99.3243 42.5676C99.3243 41.0003 100.595 39.7297 102.162 39.7297C103.729 39.7297 105 41.0003 105 42.5676ZM122.027 45.4054C123.594 45.4054 124.865 44.1349 124.865 42.5676C124.865 41.0003 123.594 39.7297 122.027 39.7297C120.46 39.7297 119.189 41.0003 119.189 42.5676C119.189 44.1349 120.46 45.4054 122.027 45.4054ZM105 22.7027C105 24.27 103.729 25.5405 102.162 25.5405C100.595 25.5405 99.3243 24.27 99.3243 22.7027C99.3243 21.1354 100.595 19.8649 102.162 19.8649C103.729 19.8649 105 21.1354 105 22.7027ZM122.027 25.5405C123.594 25.5405 124.865 24.27 124.865 22.7027C124.865 21.1354 123.594 19.8649 122.027 19.8649C120.46 19.8649 119.189 21.1354 119.189 22.7027C119.189 24.27 120.46 25.5405 122.027 25.5405ZM105 2.83784C105 4.40513 103.729 5.67568 102.162 5.67568C100.595 5.67568 99.3243 4.40513 99.3243 2.83784C99.3243 1.27054 100.595 0 102.162 0C103.729 0 105 1.27054 105 2.83784ZM122.027 5.67568C123.594 5.67568 124.865 4.40513 124.865 2.83784C124.865 1.27054 123.594 0 122.027 0C120.46 0 119.189 1.27054 119.189 2.83784C119.189 4.40513 120.46 5.67568 122.027 5.67568Z" fill="black" fill-opacity="0.05"/>
</svg>
