<svg width="476" height="424" viewBox="0 0 476 424" fill="none" xmlns="http://www.w3.org/2000/svg">
<path d="M289.827 5.74812C266.994 6.6369 244.135 5.24151 221.507 2.09523C184.169 -3.09525 123.918 -2.23313 93.051 47.9386C46.3366 123.876 62.4947 153.375 68.1118 214.194C73.7289 275.013 59.0018 364.362 191.555 375.117C324.107 385.871 425.082 352.853 447.781 255.256C469.183 163.267 475.307 -1.44212 289.827 5.74812Z" fill="#052DFF"/>
<path d="M360.538 240.502C360.538 240.502 345.562 247.692 341.901 254.518C338.248 261.344 341.216 278.648 344.914 279.537C348.149 280.31 350.584 275.547 350.629 264.437C350.646 261.122 352.397 258.038 355.268 256.367C360.672 253.203 366.538 249.994 366.538 249.994" fill="#F8C6A3"/>
<path d="M360.538 240.502C360.538 240.502 345.562 247.692 341.901 254.518C338.248 261.344 341.216 278.648 344.914 279.537C348.149 280.31 350.584 275.547 350.629 264.437C350.646 261.122 352.397 258.038 355.268 256.367C360.672 253.203 366.538 249.994 366.538 249.994" fill="black" fill-opacity="0.1"/>
<path d="M366.636 243.746C366.636 243.746 351.66 250.936 347.998 257.762C344.345 264.588 347.313 281.893 351.011 282.781C354.246 283.555 356.681 278.791 356.726 267.681C356.743 264.366 358.494 261.282 361.365 259.611C366.769 256.447 372.635 253.238 372.635 253.238" fill="#F8C6A3"/>
<path d="M366.636 243.746C366.636 243.746 351.66 250.936 347.998 257.762C344.345 264.588 347.313 281.893 351.011 282.781C354.246 283.555 356.681 278.791 356.726 267.681C356.743 264.366 358.494 261.282 361.365 259.611C366.769 256.447 372.635 253.238 372.635 253.238" fill="black" fill-opacity="0.1"/>
<path d="M373.968 246.252C373.968 246.252 358.992 253.443 355.33 260.269C351.677 267.094 354.646 284.399 358.343 285.288C361.578 286.061 364.013 281.297 364.058 270.187C364.076 266.872 365.827 263.788 368.697 262.117C374.101 258.953 379.967 255.745 379.967 255.745" fill="#F8C6A3"/>
<path d="M373.968 246.252C373.968 246.252 358.992 253.443 355.33 260.269C351.677 267.094 354.646 284.399 358.343 285.288C361.578 286.061 364.013 281.297 364.058 270.187C364.076 266.872 365.827 263.788 368.697 262.117C374.101 258.953 379.967 255.745 379.967 255.745" fill="black" fill-opacity="0.1"/>
<path d="M355.846 229.526C327.982 206.737 325.947 211.146 327.547 217.412C329.138 223.677 349.091 238.716 356.503 244.048C363.916 249.381 363.702 262.348 352.246 261.762C336.026 261.193 331.52 260.642 330.471 263.93C329.422 267.219 329.689 270.214 333.546 271.503C337.412 272.792 357.881 272.107 365.862 281.75C373.835 291.394 391.85 298.148 391.85 298.148L408.684 276.755C379.149 236.991 380.403 247.692 355.846 229.526Z" fill="#F8C6A3"/>
<path d="M391.841 298.148L476 381.738V329.638L408.675 276.755L391.841 298.148Z" fill="#F8C6A3"/>
<path d="M455.016 313.16L435.907 341.921L476 381.739V329.638L455.016 313.16Z" fill="black"/>
<path d="M215.836 291.473C215.72 284.274 220.733 280.47 226.004 285.679C225.924 284.07 231.256 276.418 236.678 283.448C242.917 275.724 247.077 281.075 247.077 281.075C247.077 281.075 247.725 261.708 248.641 252.065C249.556 242.413 257.458 242.99 258.053 248.865C258.649 254.731 259.902 287.225 259.902 287.225C259.902 287.225 271.927 299.241 270.825 313.151C269.723 327.069 257.466 344.543 257.466 344.543L224.27 345.102C215.445 330.118 215.951 298.664 215.836 291.473Z" fill="#E0A375"/>
<path d="M224.279 345.085L198.816 422.773L245.743 423.537L257.466 344.534L224.279 345.085Z" fill="#E0A375"/>
<path d="M198.567 423.537L206.13 400.438H249.174L245.743 423.537H198.567Z" fill="#052DFF"/>
<path d="M192.781 69.0205C192.781 69.0205 208.646 81.5879 211.152 90.6712C213.658 99.7546 205.49 119.521 200.86 119.574C196.816 119.619 195.198 113.308 198.122 100.11C198.993 96.1639 197.731 92.031 194.781 89.2758C189.208 84.0676 183.102 78.6816 183.102 78.6816" fill="#F8C6A3"/>
<path d="M192.781 69.0205C192.781 69.0205 208.646 81.5879 211.152 90.6712C213.658 99.7546 205.49 119.521 200.86 119.574C196.816 119.619 195.198 113.308 198.122 100.11C198.993 96.1639 197.731 92.031 194.781 89.2758C189.208 84.0676 183.102 78.6816 183.102 78.6816" fill="black" fill-opacity="0.1"/>
<path d="M182.649 62.5059C182.649 62.5059 202.3 67.3142 208.37 74.5311C214.44 81.748 215.249 103.114 211.063 105.096C207.401 106.829 203.304 101.763 200.46 88.5471C199.607 84.5921 196.745 81.3658 192.905 80.0859C185.671 77.6774 177.876 75.3221 177.876 75.3221" fill="#FFDBC2"/>
<path d="M185.928 67.2339C185.928 67.2339 201.793 79.8013 204.299 88.8846C206.806 97.9679 198.638 117.734 194.007 117.788C189.963 117.832 188.346 111.522 191.27 98.3234C192.141 94.3773 190.879 90.2444 187.928 87.4892C182.355 82.2809 176.25 76.8949 176.25 76.8949" fill="#F8C6A3"/>
<path d="M185.928 67.2339C185.928 67.2339 201.793 79.8013 204.299 88.8846C206.806 97.9679 198.638 117.734 194.007 117.788C189.963 117.832 188.346 111.522 191.27 98.3234C192.141 94.3773 190.879 90.2444 187.928 87.4892C182.355 82.2809 176.25 76.8949 176.25 76.8949" fill="black" fill-opacity="0.1"/>
<path d="M178.294 64.3188C178.294 64.3188 194.159 76.8862 196.665 85.9696C199.171 95.0529 191.003 114.819 186.373 114.873C182.329 114.917 180.711 108.607 183.635 95.4084C184.506 91.4622 183.244 87.3294 180.294 84.5742C174.721 79.3659 168.615 73.9799 168.615 73.9799" fill="#F8C6A3"/>
<path d="M178.294 64.3188C178.294 64.3188 194.159 76.8862 196.665 85.9696C199.171 95.0529 191.003 114.819 186.373 114.873C182.329 114.917 180.711 108.607 183.635 95.4084C184.506 91.4622 183.244 87.3294 180.294 84.5742C174.721 79.3659 168.615 73.9799 168.615 73.9799" fill="black" fill-opacity="0.1"/>
<path d="M180.812 56.2061L171.825 63.0806L221.912 128.558L230.899 121.684L180.812 56.2061Z" fill="white"/>
<path d="M232.927 130.337L229.736 132.79L234.047 135.119L232.927 130.337Z" fill="white"/>
<path d="M230.892 121.681L221.906 128.56L229.736 132.79L232.927 130.337L230.892 121.681Z" fill="black"/>
<path d="M173.761 56.3109C170.135 59.0839 171.815 63.0834 171.815 63.0834L180.8 56.2043C180.809 56.2131 177.387 53.5379 173.761 56.3109Z" fill="black"/>
<path d="M184.408 60.9246L180.806 56.2158L171.82 63.0903L175.421 67.7991L184.408 60.9246Z" fill="#B5B5B5"/>
<path d="M172.286 63.4834L185.768 81.3035C185.768 81.3035 186.044 92.3599 201.74 98.9724C217.436 105.585 216.867 113.237 210.379 114.97C203.891 116.704 190.008 102.936 173.29 103.745C156.572 104.554 137.348 99.7457 137.348 99.7457L136.201 69.9893L172.286 63.4834Z" fill="#F8C6A3"/>
<path d="M136.192 69.9902L31.6094 55.0498V105.657L137.339 99.7466L136.192 69.9902Z" fill="#F8C6A3"/>
<path d="M31.6094 55.0489C31.6094 55.0489 75.3818 52.2581 93.0508 63.8301C93.0508 83.241 93.0508 102.217 93.0508 102.217C93.0508 102.217 87.7626 113.957 31.6094 105.656" fill="black"/>
<path d="M99.9744 89.3026C99.9744 85.5163 96.9348 83.25 96.9348 83.25C96.9348 83.25 100.81 83.4633 100.81 76.7441C100.81 70.0249 96.517 70.2471 96.517 70.2471C96.517 70.2471 103.085 65.261 99.9744 62.5058C96.8637 59.7506 93.0508 63.8301 93.0508 63.8301V102.217C93.0508 102.217 99.2989 107.869 99.7522 102.945C100.197 98.0215 95.9482 95.6662 95.9482 95.6662C95.9482 95.6662 99.9744 93.0888 99.9744 89.3026Z" fill="black"/>
<path d="M93.5929 102.678L92.5085 102.945V63.4832L93.5395 63.3677L93.5929 102.678Z" fill="white"/>
<path d="M145.587 194.134C145.587 194.134 162.171 195.156 168.126 200.098C174.081 205.04 177.849 222.193 174.756 224.406C172.054 226.335 168.002 222.842 163.771 212.576C162.509 209.51 159.718 207.315 156.439 206.844C150.244 205.946 143.596 205.182 143.596 205.182" fill="#87522D"/>
<path d="M145.587 194.134C145.587 194.134 162.171 195.156 168.126 200.098C174.081 205.04 177.849 222.193 174.756 224.406C172.054 226.335 168.002 222.842 163.771 212.576C162.509 209.51 159.718 207.315 156.439 206.844C150.244 205.946 143.596 205.182 143.596 205.182" fill="black" fill-opacity="0.1"/>
<path d="M141.169 199.44C141.169 199.44 157.754 200.463 163.709 205.404C169.664 210.346 173.432 227.499 170.339 229.712C167.637 231.641 163.584 228.148 159.354 217.883C158.092 214.816 155.301 212.621 152.021 212.15C145.827 211.252 139.178 210.488 139.178 210.488" fill="#87522D"/>
<path d="M141.169 199.44C141.169 199.44 157.754 200.463 163.709 205.404C169.664 210.346 173.432 227.499 170.339 229.712C167.637 231.641 163.584 228.148 159.354 217.883C158.092 214.816 155.301 212.621 152.021 212.15C145.827 211.252 139.178 210.488 139.178 210.488" fill="black" fill-opacity="0.1"/>
<path d="M135.321 204.524C135.321 204.524 151.906 205.546 157.861 210.488C163.816 215.429 167.584 232.583 164.491 234.796C161.789 236.724 157.736 233.232 153.506 222.966C152.244 219.9 149.453 217.705 146.173 217.233C139.978 216.336 133.33 215.571 133.33 215.571" fill="#87522D"/>
<path d="M135.321 204.524C135.321 204.524 151.906 205.546 157.861 210.488C163.816 215.429 167.584 232.583 164.491 234.796C161.789 236.724 157.736 233.232 153.506 222.966C152.244 219.9 149.453 217.705 146.173 217.233C139.978 216.336 133.33 215.571 133.33 215.571" fill="black" fill-opacity="0.1"/>
<path d="M196.203 171.47H163.291V215.358H196.203V171.47Z" fill="#D3D3D3"/>
<path d="M206.172 185.519L174.491 176.6L162.597 218.847L194.278 227.766L206.172 185.519Z" fill="#F8F8F8"/>
<path d="M175.965 203.004C171.548 204.328 150.111 215.376 148.564 209.856C147.018 204.328 166.686 198.142 176.41 194.605C186.133 191.068 187.457 183.113 176.41 184.215C165.362 185.317 127.127 197.031 122.487 205.43C117.848 213.829 108.071 246.981 108.071 246.981L131.331 265.548C137.294 259.139 146.947 244.377 151.719 231.418C155.923 220.015 176.703 214.887 181.325 210.132C186.782 204.524 180.391 201.68 175.965 203.004Z" fill="#87522D"/>
<path d="M108.071 246.981L31.6094 320.332V375.125L131.331 265.548L108.071 246.981Z" fill="#87522D"/>
<path d="M31.6094 306.494L96.9259 257.673L121.127 276.755L31.6094 375.126V306.494Z" fill="#F8F8F8"/>
<path d="M31.6094 355.253V353.715L111.982 269.539L112.817 270.205L31.6094 355.253Z" fill="#B5B5B5"/>
<path d="M113.51 285.128L88.9712 263.619L89.8422 262.97L114.275 284.283L113.51 285.128Z" fill="#B5B5B5"/>
<path d="M104.658 271.885C103.387 271.885 102.356 270.854 102.356 269.583C102.356 268.312 103.387 267.281 104.658 267.281C105.929 267.281 106.96 268.312 106.96 269.583C106.951 270.854 105.92 271.885 104.658 271.885ZM104.658 268.347C103.974 268.347 103.414 268.907 103.414 269.592C103.414 270.276 103.974 270.836 104.658 270.836C105.343 270.836 105.903 270.276 105.903 269.592C105.903 268.907 105.343 268.347 104.658 268.347Z" fill="#B5B5B5"/>
<path d="M269.306 39.3339L247.796 60.584L313.545 127.138L335.055 105.888L269.306 39.3339Z" fill="white"/>
<path d="M270.919 47.1753L255.618 62.2915L266.692 73.5018L281.994 58.3856L270.919 47.1753Z" fill="#B5B5B5"/>
<path opacity="0.75" d="M285.994 62.466L270.693 77.5801L281.766 88.7904L297.067 73.6764L285.994 62.466Z" fill="#B5B5B5"/>
<path opacity="0.5" d="M301.081 77.6992L285.78 92.8154L296.855 104.026L312.156 88.9096L301.081 77.6992Z" fill="#B5B5B5"/>
<path opacity="0.25" d="M316.159 92.9702L300.857 108.086L311.932 119.297L327.233 104.181L316.159 92.9702Z" fill="#EEDE8A"/>
<path d="M300.976 22.2845L273.494 34.8931L312.506 119.923L339.987 107.315L300.976 22.2845Z" fill="white"/>
<path d="M299.802 30.2063L280.253 39.1753L286.824 53.4978L306.373 44.5288L299.802 30.2063Z" fill="#052DFF"/>
<path opacity="0.75" d="M308.75 49.7067L289.201 58.6758L295.772 72.9983L315.321 64.0293L308.75 49.7067Z" fill="#052DFF"/>
<path opacity="0.5" d="M317.701 69.216L298.152 78.1851L304.723 92.5076L324.273 83.5385L317.701 69.216Z" fill="#052DFF"/>
<path opacity="0.25" d="M326.649 88.7165L307.1 97.6855L313.671 112.008L333.22 103.039L326.649 88.7165Z" fill="#052DFF"/>
<path d="M336.971 18.6949L306.835 21.144L314.413 114.388L344.549 111.939L336.971 18.6949Z" fill="white"/>
<path d="M333.169 25.7368L311.732 27.479L313.008 43.1851L334.446 41.4429L333.169 25.7368Z" fill="black"/>
<path opacity="0.75" d="M334.902 47.1211L313.464 48.8633L314.741 64.5694L336.178 62.8272L334.902 47.1211Z" fill="black"/>
<path opacity="0.5" d="M336.643 68.5137L315.206 70.2559L316.482 85.9619L337.92 84.2198L336.643 68.5137Z" fill="black"/>
<path opacity="0.25" d="M338.384 89.8975L316.947 91.6396L318.223 107.346L339.661 105.604L338.384 89.8975Z" fill="black"/>
<path d="M334.862 86.9738C337.546 95.6483 347.136 102.607 340.55 107.709C333.955 112.811 307.283 106.251 300.955 105.087C294.626 103.923 293.098 109.86 296.208 113.06C293.178 119.29 299.328 123.094 299.328 123.094C299.328 123.094 298.093 131.004 305.95 132.124C307.389 137.794 310.678 140.905 326.383 143.145C342.096 145.385 378.767 139.759 378.767 139.759L381.611 109.122C361.925 102.687 346.567 88.7158 341.785 82.0855C337.004 75.473 332.177 78.2993 334.862 86.9738Z" fill="#87522D"/>
<path d="M377.843 140.221L476 126.969V83.25L381.62 109.131L377.843 140.221Z" fill="#87522D"/>
<path d="M476 80.8413L458.837 85.1874L463.886 130.737L476 128.951V80.8413Z" fill="black"/>
<path d="M442.199 89.3915L446.883 133.244L461.779 131.049L456.758 85.7119L442.199 89.3915Z" fill="black"/>
<path d="M444.777 133.555L440.12 89.9155L428.655 92.813L434.174 135.119L444.777 133.555Z" fill="black"/>
<path d="M388.864 102.883L392.552 141.252L403.218 139.679L398.56 100.43L388.864 102.883Z" fill="black"/>
<path d="M416.256 137.759L411.154 97.248L400.64 99.9055L405.315 139.367L416.256 137.759Z" fill="black"/>
<path d="M413.225 96.724L418.362 137.448L432.076 135.43L426.584 93.3467L413.225 96.724Z" fill="black"/>
<path d="M411.155 97.248L416.256 137.759L418.363 137.448L413.225 96.7236L411.155 97.248Z" fill="white"/>
<path d="M440.12 89.916L444.777 133.555L446.883 133.244L442.2 89.3916L440.12 89.916Z" fill="white"/>
<path d="M400.64 99.9058L398.56 100.43L403.218 139.679L405.315 139.368L400.64 99.9058Z" fill="white"/>
<path d="M456.758 85.7119L461.779 131.049L463.886 130.738L458.838 85.1875L456.758 85.7119Z" fill="white"/>
<path d="M428.655 92.813L426.584 93.3463L432.076 135.43L434.174 135.119L428.655 92.813Z" fill="white"/>
<path d="M327.84 119.512C309.158 119.512 295.951 114.081 295.808 114.019L296.217 113.042C296.377 113.104 312.349 119.663 334.008 118.25L334.079 119.307C331.937 119.45 329.858 119.512 327.84 119.512Z" fill="#87522D"/>
<path d="M327.84 119.512C309.158 119.512 295.951 114.081 295.808 114.019L296.217 113.042C296.377 113.104 312.349 119.663 334.008 118.25L334.079 119.307C331.937 119.45 329.858 119.512 327.84 119.512Z" fill="black" fill-opacity="0.1"/>
<path d="M324.063 127.635C309.194 127.635 299.381 124.24 299.266 124.196L299.337 123.094C299.479 123.147 314.073 128.195 334.097 126.036L334.213 127.093C330.631 127.484 327.236 127.635 324.063 127.635Z" fill="#87522D"/>
<path d="M324.063 127.635C309.194 127.635 299.381 124.24 299.266 124.196L299.337 123.094C299.479 123.147 314.073 128.195 334.097 126.036L334.213 127.093C330.631 127.484 327.236 127.635 324.063 127.635Z" fill="black" fill-opacity="0.1"/>
<path d="M327.68 135.981C316.579 135.981 306.412 133.315 306.287 133.279L305.958 132.106C306.109 132.15 321.29 136.114 334.044 134.568L334.168 135.626C332.044 135.874 329.849 135.981 327.68 135.981Z" fill="#87522D"/>
<path d="M327.68 135.981C316.579 135.981 306.412 133.315 306.287 133.279L305.958 132.106C306.109 132.15 321.29 136.114 334.044 134.568L334.168 135.626C332.044 135.874 329.849 135.981 327.68 135.981Z" fill="black" fill-opacity="0.1"/>
<path d="M275.08 151.751L263.28 155.334V162.334L275.08 158.742V151.751Z" fill="white"/>
<path d="M293.96 160L263.28 169.333V181L293.96 171.667V160Z" fill="white"/>
<path d="M293.96 175.167L263.28 184.5V196.167L293.96 186.833V175.167Z" fill="white"/>
<path d="M293.96 190.333L263.28 199.667V211.333L293.96 202V190.333Z" fill="white"/>
<path d="M242.04 160L263.28 169.333V181L242.04 171.667V160Z" fill="white"/>
<path d="M242.04 175.167L263.28 184.5V196.167L242.04 186.833V175.167Z" fill="white"/>
</svg>
