<svg width="657" height="366" viewBox="0 0 657 366" fill="none" xmlns="http://www.w3.org/2000/svg">
<path d="M385.819 66.2156C299.745 131.6 278.763 218.098 324.64 301.018C387.591 414.796 610.826 366.907 652.783 243.84C674.414 180.39 604.581 100.629 628.682 73.8924C652.783 47.1561 645.632 -28.5525 563.53 11.4195C481.428 51.3915 471.894 0.830919 385.819 66.2156Z" fill="#052DFF"/>
<path fill-rule="evenodd" clip-rule="evenodd" d="M511.508 162.471L573.723 62.6914H571.747L511.508 159.301V162.471ZM574.2 74.1564L518.656 163.235H516.68L574.2 70.9867V74.1564ZM526.281 163.235L574.2 86.3842V83.2145L524.305 163.235H526.281ZM574.2 98.6125L533.906 163.235H531.929L574.2 95.4428V98.6125ZM541.53 163.235L574.2 110.841V107.671L539.554 163.235H541.53ZM574.2 123.069L549.155 163.235H547.179L574.2 119.899V123.069ZM574.2 134.958L556.568 163.235H554.591L574.2 131.788V134.958ZM563.981 163.235L574.2 146.846V143.677L562.004 163.235H563.981ZM574.2 158.735L571.394 163.235H569.417L574.2 155.565V158.735ZM566.099 62.6914L511.508 150.243V147.073L564.122 62.6914H566.099ZM511.508 138.014L558.474 62.6914H556.498L511.508 134.845V138.014ZM550.849 62.6914L511.508 125.786V122.617L548.873 62.6914H550.849ZM511.508 113.558L543.225 62.6914H541.248L511.508 110.388V113.558ZM535.6 62.6914L511.508 101.33V98.16L533.624 62.6914H535.6ZM511.508 89.1015L527.975 62.6914H525.999L511.508 85.9318V89.1015ZM520.351 62.6914L511.508 76.8733V73.7036L518.374 62.6914H520.351ZM511.508 64.645L512.726 62.6914H511.508V64.645Z" fill="black"/>
<path fill-rule="evenodd" clip-rule="evenodd" d="M15.1054 246.531C15.1054 247.458 14.354 248.209 13.427 248.209C12.5001 248.209 11.7486 247.458 11.7486 246.531C11.7486 245.604 12.5001 244.853 13.427 244.853C14.354 244.853 15.1054 245.604 15.1054 246.531ZM1.67839 248.21C2.60533 248.21 3.35677 247.459 3.35677 246.532C3.35677 245.605 2.60533 244.853 1.67839 244.853C0.751439 244.853 0 245.605 0 246.532C0 247.459 0.751439 248.21 1.67839 248.21ZM3.35677 258.28C3.35677 259.207 2.60533 259.958 1.67839 259.958C0.751439 259.958 0 259.207 0 258.28C0 257.353 0.751439 256.601 1.67839 256.601C2.60533 256.601 3.35677 257.353 3.35677 258.28ZM1.67839 271.707C2.60533 271.707 3.35677 270.955 3.35677 270.028C3.35677 269.101 2.60533 268.35 1.67839 268.35C0.751439 268.35 0 269.101 0 270.028C0 270.955 0.751439 271.707 1.67839 271.707ZM3.35677 281.777C3.35677 282.704 2.60533 283.455 1.67839 283.455C0.751439 283.455 0 282.704 0 281.777C0 280.85 0.751439 280.099 1.67839 280.099C2.60533 280.099 3.35677 280.85 3.35677 281.777ZM1.67839 295.204C2.60533 295.204 3.35677 294.452 3.35677 293.525C3.35677 292.598 2.60533 291.847 1.67839 291.847C0.751439 291.847 0 292.598 0 293.525C0 294.452 0.751439 295.204 1.67839 295.204ZM1.67839 306.953C2.60533 306.953 3.35677 306.201 3.35677 305.274C3.35677 304.347 2.60533 303.596 1.67839 303.596C0.751439 303.596 0 304.347 0 305.274C0 306.201 0.751439 306.953 1.67839 306.953ZM15.1054 305.274C15.1054 306.201 14.354 306.953 13.427 306.953C12.5001 306.953 11.7486 306.201 11.7486 305.274C11.7486 304.347 12.5001 303.596 13.427 303.596C14.354 303.596 15.1054 304.347 15.1054 305.274ZM25.1758 306.953C26.1027 306.953 26.8542 306.201 26.8542 305.274C26.8542 304.347 26.1027 303.596 25.1758 303.596C24.2488 303.596 23.4974 304.347 23.4974 305.274C23.4974 306.201 24.2488 306.953 25.1758 306.953ZM15.1054 293.525C15.1054 294.452 14.354 295.204 13.427 295.204C12.5001 295.204 11.7486 294.452 11.7486 293.525C11.7486 292.598 12.5001 291.847 13.427 291.847C14.354 291.847 15.1054 292.598 15.1054 293.525ZM25.1758 295.204C26.1027 295.204 26.8542 294.452 26.8542 293.525C26.8542 292.598 26.1027 291.847 25.1758 291.847C24.2488 291.847 23.4974 292.598 23.4974 293.525C23.4974 294.452 24.2488 295.204 25.1758 295.204ZM15.1054 281.777C15.1054 282.704 14.354 283.455 13.427 283.455C12.5001 283.455 11.7486 282.704 11.7486 281.777C11.7486 280.85 12.5001 280.099 13.427 280.099C14.354 280.099 15.1054 280.85 15.1054 281.777ZM25.1758 283.455C26.1027 283.455 26.8542 282.704 26.8542 281.777C26.8542 280.85 26.1027 280.099 25.1758 280.099C24.2488 280.099 23.4974 280.85 23.4974 281.777C23.4974 282.704 24.2488 283.455 25.1758 283.455ZM15.1054 270.028C15.1054 270.955 14.354 271.707 13.427 271.707C12.5001 271.707 11.7486 270.955 11.7486 270.028C11.7486 269.101 12.5001 268.35 13.427 268.35C14.354 268.35 15.1054 269.101 15.1054 270.028ZM25.1758 271.707C26.1027 271.707 26.8542 270.955 26.8542 270.028C26.8542 269.101 26.1027 268.35 25.1758 268.35C24.2488 268.35 23.4974 269.101 23.4974 270.028C23.4974 270.955 24.2488 271.707 25.1758 271.707ZM15.1054 258.28C15.1054 259.207 14.354 259.958 13.427 259.958C12.5001 259.958 11.7486 259.207 11.7486 258.28C11.7486 257.353 12.5001 256.601 13.427 256.601C14.354 256.601 15.1054 257.353 15.1054 258.28ZM25.1758 259.958C26.1027 259.958 26.8542 259.207 26.8542 258.28C26.8542 257.353 26.1027 256.601 25.1758 256.601C24.2488 256.601 23.4974 257.353 23.4974 258.28C23.4974 259.207 24.2488 259.958 25.1758 259.958ZM25.1758 248.209C26.1027 248.209 26.8542 247.458 26.8542 246.531C26.8542 245.604 26.1027 244.853 25.1758 244.853C24.2488 244.853 23.4974 245.604 23.4974 246.531C23.4974 247.458 24.2488 248.209 25.1758 248.209ZM38.6029 305.274C38.6029 306.201 37.8515 306.953 36.9246 306.953C35.9976 306.953 35.2462 306.201 35.2462 305.274C35.2462 304.347 35.9976 303.596 36.9246 303.596C37.8515 303.596 38.6029 304.347 38.6029 305.274ZM48.6732 306.953C49.6001 306.953 50.3516 306.201 50.3516 305.274C50.3516 304.347 49.6001 303.596 48.6732 303.596C47.7462 303.596 46.9948 304.347 46.9948 305.274C46.9948 306.201 47.7462 306.953 48.6732 306.953ZM38.6029 293.525C38.6029 294.452 37.8515 295.204 36.9246 295.204C35.9976 295.204 35.2462 294.452 35.2462 293.525C35.2462 292.598 35.9976 291.847 36.9246 291.847C37.8515 291.847 38.6029 292.598 38.6029 293.525ZM48.6732 295.204C49.6001 295.204 50.3516 294.452 50.3516 293.525C50.3516 292.598 49.6001 291.847 48.6732 291.847C47.7462 291.847 46.9948 292.598 46.9948 293.525C46.9948 294.452 47.7462 295.204 48.6732 295.204ZM38.6029 281.777C38.6029 282.704 37.8515 283.455 36.9246 283.455C35.9976 283.455 35.2462 282.704 35.2462 281.777C35.2462 280.85 35.9976 280.099 36.9246 280.099C37.8515 280.099 38.6029 280.85 38.6029 281.777ZM48.6732 283.455C49.6001 283.455 50.3516 282.704 50.3516 281.777C50.3516 280.85 49.6001 280.099 48.6732 280.099C47.7462 280.099 46.9948 280.85 46.9948 281.777C46.9948 282.704 47.7462 283.455 48.6732 283.455ZM38.6029 270.028C38.6029 270.955 37.8515 271.707 36.9246 271.707C35.9976 271.707 35.2462 270.955 35.2462 270.028C35.2462 269.101 35.9976 268.35 36.9246 268.35C37.8515 268.35 38.6029 269.101 38.6029 270.028ZM48.6732 271.707C49.6001 271.707 50.3516 270.955 50.3516 270.028C50.3516 269.101 49.6001 268.35 48.6732 268.35C47.7462 268.35 46.9948 269.101 46.9948 270.028C46.9948 270.955 47.7462 271.707 48.6732 271.707ZM38.6029 258.28C38.6029 259.207 37.8515 259.958 36.9246 259.958C35.9976 259.958 35.2462 259.207 35.2462 258.28C35.2462 257.353 35.9976 256.601 36.9246 256.601C37.8515 256.601 38.6029 257.353 38.6029 258.28ZM48.6732 259.958C49.6001 259.958 50.3516 259.207 50.3516 258.28C50.3516 257.353 49.6001 256.601 48.6732 256.601C47.7462 256.601 46.9948 257.353 46.9948 258.28C46.9948 259.207 47.7462 259.958 48.6732 259.958ZM38.6028 246.531C38.6028 247.458 37.8514 248.209 36.9244 248.209C35.9975 248.209 35.246 247.458 35.246 246.531C35.246 245.604 35.9975 244.853 36.9244 244.853C37.8514 244.853 38.6028 245.604 38.6028 246.531ZM48.6732 248.209C49.6001 248.209 50.3516 247.458 50.3516 246.531C50.3516 245.604 49.6001 244.853 48.6732 244.853C47.7462 244.853 46.9948 245.604 46.9948 246.531C46.9948 247.458 47.7462 248.209 48.6732 248.209ZM62.1002 305.274C62.1002 306.201 61.3488 306.953 60.4218 306.953C59.4949 306.953 58.7434 306.201 58.7434 305.274C58.7434 304.347 59.4949 303.596 60.4218 303.596C61.3488 303.596 62.1002 304.347 62.1002 305.274ZM72.1706 306.953C73.0975 306.953 73.849 306.201 73.849 305.274C73.849 304.347 73.0975 303.596 72.1706 303.596C71.2436 303.596 70.4922 304.347 70.4922 305.274C70.4922 306.201 71.2436 306.953 72.1706 306.953ZM62.1002 293.525C62.1002 294.452 61.3488 295.204 60.4218 295.204C59.4949 295.204 58.7434 294.452 58.7434 293.525C58.7434 292.598 59.4949 291.847 60.4218 291.847C61.3488 291.847 62.1002 292.598 62.1002 293.525ZM72.1706 295.204C73.0975 295.204 73.849 294.452 73.849 293.525C73.849 292.598 73.0975 291.847 72.1706 291.847C71.2436 291.847 70.4922 292.598 70.4922 293.525C70.4922 294.452 71.2436 295.204 72.1706 295.204ZM62.1002 281.777C62.1002 282.704 61.3488 283.455 60.4218 283.455C59.4949 283.455 58.7434 282.704 58.7434 281.777C58.7434 280.85 59.4949 280.099 60.4218 280.099C61.3488 280.099 62.1002 280.85 62.1002 281.777ZM72.1706 283.455C73.0975 283.455 73.849 282.704 73.849 281.777C73.849 280.85 73.0975 280.099 72.1706 280.099C71.2436 280.099 70.4922 280.85 70.4922 281.777C70.4922 282.704 71.2436 283.455 72.1706 283.455ZM62.1002 270.028C62.1002 270.955 61.3488 271.707 60.4218 271.707C59.4949 271.707 58.7434 270.955 58.7434 270.028C58.7434 269.101 59.4949 268.35 60.4218 268.35C61.3488 268.35 62.1002 269.101 62.1002 270.028ZM72.1706 271.707C73.0975 271.707 73.849 270.955 73.849 270.028C73.849 269.101 73.0975 268.35 72.1706 268.35C71.2436 268.35 70.4922 269.101 70.4922 270.028C70.4922 270.955 71.2436 271.707 72.1706 271.707ZM62.1002 258.28C62.1002 259.207 61.3488 259.958 60.4218 259.958C59.4949 259.958 58.7434 259.207 58.7434 258.28C58.7434 257.353 59.4949 256.601 60.4218 256.601C61.3488 256.601 62.1002 257.353 62.1002 258.28ZM72.1706 259.958C73.0975 259.958 73.849 259.207 73.849 258.28C73.849 257.353 73.0975 256.601 72.1706 256.601C71.2436 256.601 70.4922 257.353 70.4922 258.28C70.4922 259.207 71.2436 259.958 72.1706 259.958ZM62.1002 246.531C62.1002 247.458 61.3488 248.209 60.4218 248.209C59.4949 248.209 58.7434 247.458 58.7434 246.531C58.7434 245.604 59.4949 244.853 60.4218 244.853C61.3488 244.853 62.1002 245.604 62.1002 246.531ZM72.1706 248.209C73.0975 248.209 73.849 247.458 73.849 246.531C73.849 245.604 73.0975 244.853 72.1706 244.853C71.2436 244.853 70.4922 245.604 70.4922 246.531C70.4922 247.458 71.2436 248.209 72.1706 248.209Z" fill="black"/>
<path d="M234.652 95.0671C234.652 95.0671 239.975 93.4686 244.949 97.4493C249.923 101.43 252.654 109.446 250.932 115.855C249.209 122.257 243.754 125.593 243.754 125.593L234.652 95.0671Z" fill="black"/>
<path d="M64.1199 238.286C62.6534 241.855 61.9473 247.1 62.2964 252.928C62.6456 258.755 62.5292 261.906 60.7833 267.733C59.0374 273.561 56.0034 284.075 56.0034 284.075H108.9V222.627C108.9 222.627 94.3512 219.36 83.6275 224.955C72.9038 230.542 64.1199 238.286 64.1199 238.286Z" fill="black"/>
<path d="M83.6275 224.947C72.9037 230.542 64.1199 238.278 64.1199 238.278C63.6543 239.403 63.2819 240.707 62.9792 242.135C63.0879 242.274 67.3712 247.691 77.0086 250.15C86.7701 252.641 88.9195 251.811 88.9195 251.811L94.2115 237.37L95.3677 252.859C95.3677 252.859 102.429 254.24 108.9 254.333V222.604C108.9 222.619 94.3512 219.353 83.6275 224.947Z" fill="white"/>
<path d="M125.878 46.003C125.878 46.003 135.718 41.2852 142.406 50.4958C149.095 59.7142 144.013 71.4544 136.455 72.7037C128.905 73.9608 125.878 46.003 125.878 46.003Z" fill="#19313A"/>
<path d="M134.771 59.0862C135.849 62.7875 137.238 73.713 136.16 82.7607C135.081 91.8084 128.424 104.356 124.567 106.823C120.711 109.291 114.309 106.086 114.309 106.086C114.309 106.086 113.463 108.398 113.044 110.416C112.578 112.666 114.984 115.677 118.452 120.426C119.772 122.234 121.968 125.656 123.861 130.614C123.861 130.614 95.5617 123.599 90.4714 106.777C90.4714 106.777 93.7149 101.989 95.2591 93.8103C95.2591 93.8103 87.5461 85.9421 86.4597 77.298C85.3812 68.6538 88.3143 58.4732 97.5714 50.5972C106.829 42.7213 126.903 40.8745 134.771 59.0862Z" fill="#FFDBC2"/>
<path d="M100.218 102.469C102.949 105.697 111.12 108.755 113.254 109.515C113.696 107.761 114.309 106.077 114.309 106.077C110.592 104.774 102.98 100.273 101.048 96.6961C99.1079 93.119 99.4804 85.3594 99.4804 85.3594C99.4804 85.3594 98.4406 86.5156 97.6802 90.2246C96.9197 93.9337 97.0672 98.7447 100.218 102.469Z" fill="#EDC1A4"/>
<path d="M94.7005 96.3785C96.5162 94.1671 97.2844 92.491 97.6802 91.521C99.0381 88.1611 99.2942 86.3609 99.4804 85.3677C97.4707 85.9885 92.3804 84.2658 91.2552 79.5403C90.037 74.4345 90.9061 71.804 92.9158 70.2598C94.9255 68.7156 98.0138 68.5915 100.171 71.8272C102.018 74.5974 101.475 76.8632 102.608 77.321C103.74 77.7866 107.69 73.9068 108 66.962C108 66.962 113.867 70.9737 119.112 66.962C124.358 62.9503 122.511 57.5496 122.511 57.5496C122.511 57.5496 124.358 61.5613 129.223 61.8717C134.088 62.1821 134.779 59.0938 134.779 59.0938C134.779 59.0938 136.315 52.9094 130.301 48.4321C130.301 48.4321 130.868 39.3457 120.346 36.7307C109.157 33.9527 99.5269 39.1905 97.7112 47.0121C97.7112 47.0121 89.067 45.9102 85.3036 52.6223C80.7876 60.669 82.4404 68.0794 84.8303 77.0029C86.7081 84.0098 89.5171 90.683 90.9526 93.2049C92.9779 96.7665 94.7005 96.3785 94.7005 96.3785Z" fill="#19313A"/>
<path d="M92.2484 103.471C91.0146 105.899 84.4422 108.266 80.0658 111.083C75.6894 113.9 65.4701 123.863 68.4342 143.883C71.4061 163.988 75.6506 199.821 75.1618 206.464C74.6729 213.106 73.2141 217.319 69.4895 224.931C65.7649 232.543 63.3362 237.409 63.3362 237.409C63.3362 237.409 69.0084 245.184 87.4762 246.806L94.6073 228.827L96.229 248.427C96.229 248.427 119.12 251.904 127.764 248.97C127.764 248.97 133.211 169.761 131.822 155.863C129.3 130.614 115.411 116.189 115.411 116.189C115.411 116.189 108.326 116.98 103.182 114.117C94.1417 109.096 92.2484 103.471 92.2484 103.471Z" fill="#F8F8F8"/>
<path opacity="0.37" d="M131.225 189.563L112.214 174.432L92.8305 149.229L87.81 122.901L73.0358 118.385C69.5207 123.793 66.6885 132.096 68.4344 143.89C68.6827 145.574 68.9387 147.367 69.2026 149.245C71.3597 158.292 74.0989 168.356 76.6828 174.665C76.6828 174.665 77.7847 175.115 80.0737 174.665L85.0631 186.281L75.1464 203.181C75.2007 204.601 75.2085 205.727 75.1542 206.471C74.7429 212.128 73.6178 216.031 70.9873 221.766C77.7924 223.24 100.334 210.739 105.797 207.24C105.797 207.24 106.076 209.637 107.418 211.888C108.753 214.146 107.512 217.087 108.901 218.67C110.282 220.252 95.9421 245.13 95.9421 245.13L96.2136 248.428C96.2136 248.428 119.104 251.904 127.749 248.971C127.749 248.978 129.976 216.559 131.225 189.563Z" fill="#D0D0D0"/>
<path d="M170.186 94.8418C170.186 94.8418 175.61 93.4839 179.908 97.6741C185.045 102.687 186.791 117.081 175.586 122.9C175.586 122.9 169.86 115.537 168.494 108.77C167.121 102.004 170.186 94.8418 170.186 94.8418Z" fill="black"/>
<path d="M171.978 244.749L177.371 284.059H91.488C91.488 284.059 94.0487 262.278 104.835 244.206L171.978 244.749Z" fill="#052DFF"/>
<path d="M108.9 284.06C108.9 284.06 111.058 264.614 118.173 254.341H121.122C121.122 254.341 113.967 263.645 111.407 284.06H108.9Z" fill="#0021D7"/>
<path d="M171.978 244.749L104.834 244.206C103.554 246.348 102.398 248.536 101.343 250.74C101.35 250.848 101.925 260.974 118.817 265.297C135.795 269.642 149.017 266.088 159.283 256.808C159.283 256.808 165.693 264.459 174.632 264.071L171.978 244.749Z" fill="#0021D7"/>
<path d="M112.423 162.11C107.829 165.563 80.4071 187.151 73.1131 194.181C65.8269 201.211 63.7085 209.56 66.4865 213.533C69.2722 217.506 72.4458 217.909 79.0725 215.124C85.6992 212.338 111.872 197.067 111.872 197.067C111.872 197.067 113.525 194.584 114.448 183.985C115.387 173.385 112.423 162.11 112.423 162.11Z" fill="#87522D"/>
<path d="M114.456 183.984C114.728 180.896 114.666 177.761 114.449 174.851C109.971 173.998 103.965 172.865 99.6744 172.089C94.7936 175.969 89.2921 180.392 84.4346 184.403C85.9244 189.579 90.4948 198.875 93.9633 200.132C96.3766 201.009 103.888 199.922 108.225 199.178C110.46 197.882 111.88 197.059 111.88 197.059C111.88 197.059 113.525 194.584 114.456 183.984Z" fill="#633C21"/>
<path d="M165.747 156.298C160.455 155.545 158.624 154.839 158.306 154.133C157.987 153.427 158.437 146.699 159.718 144.612C159.718 144.612 162.961 146.172 166.655 145.76C170.341 145.349 171.846 142.944 173.933 135.735C176.021 128.526 176.176 111.199 175.058 106.062C173.933 100.933 160.145 91.3969 145.394 97.4416C130.643 103.494 128.237 125.298 130.643 132.034C133.048 138.769 138.976 143.254 138.976 145.341C138.976 147.429 139.302 151.472 136.897 152.666C134.491 153.854 127.756 155.312 127.756 155.312C127.756 155.312 128.237 160.426 145.394 162.102C162.542 163.794 165.747 156.298 165.747 156.298Z" fill="#87522D"/>
<path d="M180.002 162.482C180.002 162.482 180.005 162.485 180.01 162.491C180.016 162.497 180.023 162.507 180.032 162.521C180.051 162.549 180.073 162.591 180.097 162.651C180.146 162.771 180.194 162.94 180.235 163.164C180.318 163.612 180.366 164.225 180.378 164.994C180.401 166.529 180.281 168.614 180.051 171.092C179.593 176.043 178.705 182.503 177.698 189.134C176.674 195.88 175.524 202.812 174.583 208.49C173.677 213.951 172.963 218.254 172.739 220.115L172.739 220.115C172.275 223.958 172.34 231.348 172.835 238.656C173.304 245.579 174.164 252.522 175.36 256.357C175.065 256.38 174.668 256.401 174.196 256.397C173.107 256.39 171.623 256.259 170.036 255.766C166.886 254.787 163.292 252.376 161.579 246.541L161.284 245.536L160.688 246.397L160.688 246.397L160.688 246.397L160.687 246.398L160.682 246.406L160.659 246.438C160.638 246.467 160.606 246.511 160.562 246.57C160.476 246.686 160.344 246.859 160.166 247.08C159.812 247.521 159.276 248.151 158.558 248.901C157.121 250.402 154.955 252.38 152.047 254.28C146.234 258.075 137.45 261.561 125.559 260.291L125.559 260.291C113.644 259.023 107.98 254.72 105.275 250.829C103.917 248.875 103.288 247.002 102.998 245.621C102.854 244.931 102.794 244.364 102.77 243.974C102.758 243.779 102.755 243.628 102.755 243.528C102.755 243.525 102.755 243.521 102.755 243.518L102.812 243.434C102.903 243.299 103.036 243.101 103.205 242.846C103.545 242.337 104.03 241.604 104.615 240.708C105.784 238.915 107.351 236.466 108.942 233.843C110.532 231.221 112.149 228.419 113.415 225.923C114.67 223.449 115.618 221.206 115.813 219.728C116.19 216.875 115.575 212.592 114.887 209.08C114.541 207.311 114.172 205.718 113.889 204.566C113.748 203.99 113.628 203.524 113.544 203.202C113.502 203.041 113.468 202.916 113.445 202.831L113.419 202.733L113.416 202.721L111.565 192.562C111.565 192.562 111.565 192.562 111.565 192.562C110.715 187.889 110.775 180.899 111.19 174.752C111.397 171.685 111.691 168.842 112 166.621C112.155 165.51 112.313 164.559 112.465 163.816C112.62 163.058 112.761 162.557 112.87 162.318C114.396 158.993 117.393 157.917 123.109 156.346L123.109 156.346C124.533 155.953 127.113 155.466 129.357 155.075C130.475 154.88 131.503 154.71 132.251 154.588C132.516 154.545 132.746 154.508 132.932 154.479C132.941 154.515 132.951 154.552 132.963 154.59C133.094 155.029 133.405 155.57 134.067 156.122C135.375 157.213 138.074 158.371 143.648 158.976C149.269 159.585 153.692 158.786 156.718 157.827C158.23 157.348 159.392 156.83 160.18 156.429C160.574 156.228 160.875 156.057 161.079 155.934C161.137 155.899 161.187 155.868 161.229 155.842C166.55 156.602 174.675 157.927 180.002 162.482ZM180.002 162.482C180.002 162.482 180.002 162.482 180.002 162.482L180.327 162.102M180.002 162.482L180.327 162.102M180.327 162.102C182.478 163.942 177.858 191.799 175.072 208.593C174.169 214.037 173.459 218.319 173.235 220.175L180.327 162.102Z" fill="black" stroke="black"/>
<path d="M176.929 170.203L137.161 178.157L110.716 190.013C110.809 190.952 110.933 191.837 111.081 192.652L112.167 198.603C116.117 197.618 125.754 194.708 135.547 192.403C148.971 189.237 164.738 185.055 171.59 183.394L180.087 175.666C180.265 174.137 180.428 172.686 180.552 171.344L176.929 170.203Z" fill="black"/>
<path d="M153.122 219.391L131.675 215.302L122.456 203.872L118.072 195.732C116.443 197.509 116.466 200.458 117.164 202.918C117.863 205.378 120.408 210.251 120.408 210.251L115.395 216.621C115.45 217.739 115.434 218.778 115.31 219.663C115.178 220.672 114.65 222.107 113.89 223.776C115.24 224.707 118.421 226.662 122.208 227.306C127.26 228.167 138.984 229.975 151.159 234.538C163.334 239.108 167.78 239.388 169.829 238.705C170.744 238.402 172.025 237.091 173.165 235.749C172.839 229.448 172.839 223.473 173.243 220.183C173.297 219.71 173.39 219.089 173.499 218.321L173.437 217.94L153.122 219.391Z" fill="black"/>
<path d="M153.782 210.475C150.639 210.297 137.355 209.761 135.399 209.466C133.444 209.171 132.497 208.279 131.9 206.859C131.31 205.439 130.534 203.127 128.284 201.583C126.034 200.038 123.481 198.975 122.534 197.61C121.587 196.244 121.114 193.575 119.151 194.405C117.195 195.235 117.964 198.851 118.678 200.45C119.391 202.048 121.525 205.012 121.704 205.664C121.882 206.316 121.052 206.494 119.454 206.021C117.855 205.548 112.928 202.816 112.928 202.816L112.454 200.326C112.454 200.326 110.437 200.031 109.49 201.986C108.544 203.941 108.9 205.897 109.49 207.084C110.08 208.271 109.374 209.753 110.499 211.53C111.624 213.307 112.276 213.486 112.516 214.673C112.757 215.86 113.525 218.545 116.016 220.167C118.507 221.789 122.891 222.262 127.818 223.03C132.738 223.798 151.175 229.509 151.175 229.509C151.175 229.509 152.719 227.608 153.79 222.557C155.264 215.581 153.782 210.475 153.782 210.475Z" fill="#FFDBC2"/>
<path d="M175.26 107.312C174.415 110.501 171.978 113.248 169.231 115.366C166.484 117.485 166.166 118.858 165.421 121.822C164.684 124.786 163.093 126.687 161.611 126.478C160.129 126.268 160.765 123.312 159.71 121.248C158.655 119.184 156.746 116.22 152.727 117.702C148.707 119.184 149.274 127.223 151.741 129.869C154.209 132.515 156.009 132.515 157.382 131.879C158.756 131.242 159.501 132.305 159.183 133.997C158.864 135.689 158.352 140.942 154.333 143.906C150.313 146.87 140.272 145.691 138.783 144.635C137.293 143.58 133.7 141.369 130.426 137.559C127.143 133.749 124.947 129.481 124.621 123.56C124.241 116.755 125.475 108.6 127.748 106.482L141.568 90.9468C141.568 90.9468 145.324 84.7081 156.009 85.4453C166.694 86.1825 170.186 94.8577 170.186 94.8577C170.186 94.8577 178.434 101.857 175.26 107.312Z" fill="black"/>
<path d="M139.13 105.79C144.766 99.7367 145.437 91.2003 140.628 86.7238C135.82 82.2472 127.353 83.5256 121.717 89.5791C116.081 95.6327 115.411 104.169 120.219 108.646C125.027 113.122 133.494 111.844 139.13 105.79Z" fill="black"/>
<path d="M251.925 162.11C245.857 161.156 240.743 161.086 234.652 160.054C228.561 159.03 225.682 158.424 226.287 152.659C226.893 146.894 227.498 143.107 227.498 143.107L207.928 142.044C207.928 142.044 207.02 151.293 206.563 153.419C206.105 155.546 205.957 155.546 201.402 156.298C196.855 157.059 187.412 158.906 187.412 158.906C187.412 158.906 188.661 164.035 213.531 168.582C238.423 173.137 251.925 162.11 251.925 162.11Z" fill="#FFDBC2"/>
<path d="M232.697 159.712C232.697 159.712 247.106 161.435 251.925 162.11C256.744 162.785 260.654 164.22 264.72 174.083C264.72 174.083 254.439 202.925 255.23 207.48C256.371 214.021 253.818 232.45 253.019 236.71C252.22 240.963 253.686 250.67 256.612 264.629C259.537 278.589 260.895 284.059 260.895 284.059H158.213C158.213 284.059 165.794 269.813 176.028 256.784C186.263 243.756 193.713 232.318 194.908 228.594C196.103 224.869 189.988 203.864 189.988 203.864C189.988 203.864 173.235 228.997 171.241 231.783C169.247 234.576 168.184 234.313 162.86 232.978C157.545 231.651 151.159 229.517 151.159 229.517C151.159 229.517 148.769 225.094 150.228 218.662C151.687 212.229 153.774 210.467 153.774 210.467C153.774 210.467 156.474 210.506 157.537 210.506C158.6 210.506 160.463 210.374 162.061 206.65C163.66 202.925 174.826 175.006 177.883 168.488C180.94 161.97 182.966 158.432 189.468 157.345C195.963 156.259 201.402 156.29 201.402 156.29C201.402 156.29 204.917 161.644 215.113 162.707C225.333 163.786 232.697 159.712 232.697 159.712Z" fill="white"/>
<path d="M252.825 240.745L244.693 252.873C245.834 259.376 246.974 268.33 235.234 274.701C223.486 281.072 179.109 284.067 179.109 284.067H260.895C260.895 284.067 259.537 278.596 256.612 264.637C254.385 254.045 253.011 245.913 252.825 240.745Z" fill="#D3D3D3"/>
<path d="M257.124 197.555L248.371 200.457L228.367 190.478C228.367 190.478 208.526 165.764 208.301 165.423C208.076 165.081 199.346 162.117 199.346 162.117L177.914 168.465C177.906 168.48 177.899 168.488 177.899 168.503C176.742 170.963 174.104 177.279 171.582 183.394C174.205 182.75 182.197 181.772 185.674 181.524C190.376 181.182 195.715 177.21 195.715 177.21C195.715 177.21 212.607 202.839 219.288 209.637C225.961 216.442 230.415 222.339 236.763 222.673C243.11 223.014 247.688 215.069 252.98 210.653L255.331 208.124C255.3 207.899 255.269 207.681 255.238 207.48C254.974 206.044 255.836 202.172 257.124 197.555Z" fill="#E4E4E4"/>
<path d="M243.622 232.978L246.509 239.9L253.694 248.971C252.841 243.283 252.569 239.124 253.019 236.71C253.741 232.846 255.921 217.273 255.456 209.552L255.394 209.179L249.551 197.548C249.551 197.548 248.534 209.56 247.308 217.8C246.431 223.659 243.622 232.978 243.622 232.978Z" fill="#D3D3D3"/>
<path d="M239.991 240.753L192.378 233.638C190.609 236.641 188.04 240.544 184.875 244.99C189.204 245.626 207.307 248.327 221.174 250.74C237.042 253.502 243.498 255.613 248.371 254.371C253.244 253.13 252.375 250.654 253.694 248.963C253.205 245.704 252.91 242.949 252.825 240.738C249.799 241.056 239.991 240.753 239.991 240.753Z" fill="#D3D3D3"/>
<path d="M242.257 106.676C244.515 113.303 246.067 128.131 243.948 135.736C241.83 143.348 239.432 144.613 236.336 144.613C233.232 144.613 222.516 142.828 222.516 142.828L207.936 142.036C207.936 142.036 208.27 138.684 205.732 136.853C203.195 135.022 192.758 122.606 199.812 106.668C206.865 90.7301 224.347 89.4653 232.107 95.3858C239.859 101.322 242.257 106.676 242.257 106.676Z" fill="#FFDBC2"/>
<path d="M236.336 144.62C237.686 144.62 238.897 144.379 240.014 143.479C237.64 143.626 234.637 142.734 230.563 138.963L226.489 140.453L226.318 143.44C229.717 143.952 234.443 144.62 236.336 144.62Z" fill="#F2C5A7"/>
<path d="M242.257 106.676C242.272 103.37 234.652 95.0673 234.652 95.0673C234.652 95.0673 228.639 89.1623 218.753 89.0148C208.867 88.8674 200.378 93.9422 197.399 106.381C194.45 118.695 193.084 118.028 190.873 122.552C188.832 126.734 186.155 138.901 199.587 146.591C213.965 154.824 227.886 151.526 231.277 150.114C234.66 148.709 235.483 146.366 233.155 142.602C231.254 139.537 230.578 135.565 230.462 133.275C230.346 131.017 230.672 129.947 229.531 130.342C228.67 130.645 226.575 130.692 224.813 127.82C222.842 124.608 223.929 117.787 227.172 117.198C230.416 116.608 232.037 118.967 232.48 121.939C232.922 124.911 232.037 126.051 233.659 126.346C235.281 126.641 236.755 125.462 239.114 121.939C241.473 118.416 242.505 111.743 242.257 106.676Z" fill="black"/>
<path d="M528.919 224.381C532.077 227.725 536.399 235.438 537.167 241.46C537.935 247.481 537.33 252.99 536.089 258.593C535.25 262.372 535.165 265.848 536.089 270.473C537.012 275.105 539.022 284.068 539.022 284.068H498.617L491.145 231.403L528.919 224.381Z" fill="black"/>
<path d="M511.98 237.727C523.821 235.88 528.624 232.032 531.751 228.098C530.789 226.608 529.811 225.312 528.919 224.373L491.145 231.395L492.099 238.146C496.119 238.589 503.607 239.039 511.98 237.727Z" fill="black"/>
<path d="M522.299 156.259C523.37 163.437 522.998 181.555 519.211 189.144C515.424 196.733 515.626 200.054 517.962 204.12C521.19 209.754 531.06 224.38 531.06 224.38C531.06 224.38 527.801 229.719 517.566 232.621C507.331 235.523 490.02 234.615 490.02 234.615C490.02 234.615 482.749 217.381 483.509 196.826C484.27 176.271 494.272 143.207 494.272 143.207C494.272 143.207 506.268 136.868 513.135 141.143C520.01 145.419 522.299 156.259 522.299 156.259Z" fill="white"/>
<path d="M522.486 173.765L520.088 169.683L500.697 152.434L490.121 158.463C489.694 160.178 490.842 161.078 490.408 162.956C492.449 169.8 495.428 182.192 498.051 184.644C501.589 187.957 511.266 193.753 517.396 192.83C518.086 191.325 518.257 191.061 519.219 189.144C520.981 185.59 522.005 179.732 522.486 173.765Z" fill="#E4E4E4"/>
<path d="M506.354 121.179C506.354 121.179 508.061 129.412 508.332 131.189C508.604 132.965 509.504 135.239 511.25 135.619C511.25 135.619 509.814 141.229 504.662 143.2C499.502 145.171 494.264 143.2 494.264 143.2C494.264 143.2 493.139 139.484 491.998 137.435C490.858 135.386 487.855 134.254 487.855 134.254L506.354 121.179Z" fill="#FFDBC2"/>
<path d="M506.485 121.823C506.4 121.419 506.354 121.179 506.354 121.179L487.855 134.254C487.855 134.254 490.865 135.386 491.998 137.435C491.998 137.435 500.689 135.627 504.406 131.91C507.44 128.884 506.819 123.638 506.485 121.823Z" fill="#EDC1A4"/>
<path d="M492.844 82.7606C492.844 82.7606 484.115 78.3143 477.038 83.8779C469.969 89.4338 470.039 103.611 476.099 107.195C476.099 107.195 487.816 105.023 491.898 98.0081C495.987 90.9935 492.844 82.7606 492.844 82.7606Z" fill="black"/>
<path d="M484.146 89.9535C480.491 91.5209 477.247 97.4493 476.208 106.171C475.447 112.48 476.96 124.189 478.792 129.543C480.623 134.897 487.506 134.618 493.17 133.811C498.835 132.996 503.141 130.109 504.577 126.586C506.012 123.064 506.361 121.186 506.361 121.186C506.361 121.186 509.364 124.321 512.111 123.933C514.858 123.537 520.344 117.865 520.08 111.494C519.816 105.116 519.428 93.2281 510.016 89.9613C500.604 86.6867 484.146 89.9535 484.146 89.9535Z" fill="#FFDBC2"/>
<path d="M491.098 131.188L495.777 133.26C497.027 132.911 498.183 132.461 499.23 131.917C499.215 131.894 492.107 121.481 489.849 119.199C487.599 116.926 476.169 112.542 476.068 112.503C476.091 113.085 476.122 113.675 476.169 114.272L481.531 119.192L491.098 131.188Z" fill="#EDC1A4"/>
<path d="M484.146 89.9536C484.146 89.9536 484.262 94.6559 491.067 99.4746C497.872 104.293 500.837 106.148 501.465 107.195C502.094 108.243 500.697 112.247 501.636 113.395C502.575 114.544 504.957 113.294 506.16 110.175C507.308 107.195 511.064 105.682 513.058 107.195C514.944 108.623 515.82 111.145 514.191 115.894C512.833 119.836 508.705 122.528 506.354 121.186C506.354 121.186 506.237 127.743 508.332 131.196C508.332 131.196 510.218 128.612 514.09 125.298C517.962 121.985 522.152 118.004 523.409 106.916C524.666 95.8199 516.185 84.5142 511.793 81.8992C507.393 79.2842 497.663 78.4074 492.844 82.7683L484.146 89.9536Z" fill="black"/>
<path d="M511.258 81.5966C511.258 81.5966 513.26 75.7148 518.389 72.3627C523.518 69.0105 535.243 68.2811 540.473 72.3627C545.703 76.4442 549.474 82.6519 550.622 90.0545C551.771 97.4571 553.136 101.065 558.894 105.449C564.651 109.834 571.666 117.795 566.956 129.83C562.246 141.865 547.697 142.075 544.872 141.656C542.048 141.237 541.21 139.25 543.196 136.527C545.183 133.803 547.805 128.814 544.453 125.291C541.101 121.768 538.595 120.619 533.885 117.686C529.175 114.753 525.931 111.316 526.141 105.449C526.35 99.5755 528.127 92.2893 526.35 88.5026C524.573 84.7159 520.981 81.8526 515.665 85.36C515.657 85.36 511.979 84.9642 511.258 81.5966Z" fill="black"/>
<path d="M511.258 135.619C515.797 135.619 521.384 137.086 523.176 147.127C524.969 157.167 525.9 167.333 525.504 173.253C525.109 179.166 522.781 184.132 522.781 184.132L504.437 173.385C504.437 173.385 503.172 155.375 502.839 148.756C502.505 142.137 504.057 135.883 511.258 135.619Z" fill="white"/>
<path d="M495.226 239.364C496.755 243.229 499.362 253.239 499.354 262.263C499.354 268.447 498.61 284.067 498.61 284.067H429.138L426.112 250.189C426.112 250.189 431.117 234.08 447.808 229.882C464.491 225.669 488.871 225.979 495.226 239.364Z" fill="#F8F8F8"/>
<path d="M495.226 239.365C488.871 225.987 464.491 225.669 447.808 229.875C431.117 234.081 426.112 250.182 426.112 250.182L426.608 255.714C440.405 263.823 453.596 257.608 453.596 257.608L453.03 243.214L460.021 256.878C482.764 256.738 491.828 248.7 496.6 243.617C496.119 241.856 495.63 240.389 495.226 239.365Z" fill="#E4E4E4"/>
<path d="M435.703 62.3457C432.723 63.9675 428.354 64.5339 425.382 64.1459C422.41 63.7579 420.828 61.4611 418.95 63.1837C416.645 65.3021 412.3 78.5166 421.247 84.4527C432.622 91.995 435.703 62.3457 435.703 62.3457Z" fill="#19313A"/>
<path d="M422.333 77.5309C420.843 82.7608 420.758 89.4806 422.333 99.0016C423.908 108.523 426.927 117.306 429.774 118.525C431.776 119.386 435.532 119.502 438.442 119.177C441.344 118.851 442.291 118.587 442.865 123.405C443.447 128.216 461.845 122.73 464.266 119.021C464.266 119.021 462.008 110.307 462.652 107.723C463.296 105.139 466.524 101.43 467.494 93.5156C468.464 85.6086 467.331 71.4008 456.514 66.5588C445.697 61.7169 432.902 65.7984 427.943 69.4609C423.14 73.007 422.333 77.5309 422.333 77.5309Z" fill="#E0A375"/>
<path d="M442.865 104.953C442.702 106.218 444.587 109.376 445.581 111.495C446.574 113.621 448.716 115.716 451.121 115.856C453.526 115.988 460.13 115.856 462.985 113.023C464.568 111.603 464.568 108.771 466.826 103.681C469.092 98.5828 470.791 89.7213 469.659 82.761C468.526 75.8007 468.052 68.5843 461.356 68.7239C461.356 68.7239 459.47 61.0807 452.254 59.6685C445.037 58.2563 439.451 60.3591 434.283 63.0672C429.045 65.8063 423.264 69.9344 423.179 75.1644C423.179 75.1644 424.141 78.0665 427.346 78.7726C429.751 79.3002 428.68 80.8133 428.804 82.4118C429.014 85.182 429.433 86.9434 431.489 88.472C433.421 89.9076 434.283 90.055 434.283 93.2054C434.275 97.4576 434.422 98.4431 435.695 98.7224C436.967 99.0018 438.387 97.8766 439.939 93.7718C441.499 89.667 444.471 89.2092 446.876 91.8397C449.282 94.478 448.584 101.842 446.869 103.844C444.781 106.273 443.098 103.114 442.865 104.953Z" fill="#19313A"/>
<path d="M437.229 283.469C437.234 283.5 437.239 283.53 437.243 283.56H357.389C357.531 280.697 357.976 274.506 358.526 268.311C359.097 261.87 359.777 255.48 360.341 252.808C360.343 252.807 360.344 252.806 360.346 252.805C360.475 252.732 360.667 252.624 360.919 252.487C361.423 252.213 362.165 251.822 363.113 251.36C365.009 250.436 367.727 249.224 371.011 248.08C377.585 245.79 386.39 243.78 395.387 244.85C404.396 245.922 413.081 249.788 419.53 253.404C422.751 255.21 425.406 256.948 427.255 258.235C428.179 258.878 428.901 259.408 429.392 259.776C429.637 259.961 429.824 260.104 429.95 260.202C429.998 260.239 430.037 260.27 430.067 260.293C432.671 264.715 434.485 270.638 435.651 275.498C436.236 277.937 436.655 280.096 436.928 281.645C437.064 282.42 437.164 283.041 437.229 283.469Z" fill="black" stroke="black"/>
<path d="M359.899 252.485C359.364 254.844 358.728 260.601 358.177 266.638C358.177 266.638 360.97 267.453 364.578 264.062C368.187 260.671 368.202 258.941 369.056 259.43C369.909 259.919 371.298 263.837 376.288 268.904C380.09 272.761 396.338 281.576 414.022 278.169C426.942 275.686 431.691 269.3 433.313 266.033C432.49 263.876 431.544 261.789 430.449 259.957C430.449 259.957 425.08 255.666 417.134 251.538L404.951 253.874L381.448 244.842C369.257 246.937 359.899 252.485 359.899 252.485Z" fill="black"/>
<path d="M354.45 249.707C354.468 249.816 354.49 249.947 354.514 250.099C354.597 250.609 354.716 251.358 354.862 252.312C355.154 254.218 355.555 256.941 355.989 260.206C356.838 266.604 357.813 275.077 358.344 283.559H262.65C262.67 283.381 262.694 283.163 262.723 282.906C262.812 282.127 262.94 281 263.1 279.606C263.42 276.818 263.868 272.963 264.377 268.698C265.372 260.361 266.602 250.462 267.576 243.89L354.45 249.707Z" fill="black" stroke="black"/>
<path d="M265.597 254.736C265.597 254.736 273.962 277.759 311.813 276.145C349.665 274.531 355.88 255.768 355.88 255.768L354.879 249.227L267.149 243.353L265.597 254.736Z" fill="black"/>
<path d="M305.109 61.7549C298.405 61.7549 285.904 65.6191 285.904 84.18C285.904 84.18 284.484 81.728 282.684 82.76C280.876 83.7921 281.528 89.7204 282.684 93.1967C283.84 96.673 286.385 97.4101 287.929 97.2782C287.929 97.2782 289.784 102.881 291.328 105.333C292.872 107.785 296.713 111.525 296.713 111.525L296.597 121.938H320.178C320.178 121.938 320.178 114.078 320.178 110.213C320.178 106.349 325.78 97.4567 325.78 97.4567C325.78 97.4567 328.333 98.4344 330.087 95.2064C332.089 91.5284 332.997 84.1956 331.158 82.7678C328.264 80.5175 327.146 85.344 327.146 85.344C327.146 85.344 325.85 70.7793 318.114 67.1711C310.393 63.5551 305.109 61.7549 305.109 61.7549Z" fill="#F8C6A3"/>
<path d="M285.858 86.2212C285.446 82.4811 283.91 75.0862 284.608 68.2268C285.307 61.3751 288.209 56.3779 290.296 55.9123C292.383 55.4468 292.5 57.6582 294.828 58.1161C294.828 58.1161 293.896 55.3304 295.875 52.6533C297.846 49.984 299.483 53.243 303.309 55.2062C307.965 57.5962 310.098 56.471 313.482 58.5583C317.47 61.0259 317.579 63.9357 317.579 63.9357C317.579 63.9357 319.782 63.0434 322.537 64.6108C325.998 66.5817 328.698 73.3559 327.581 85.8721C326.588 96.9915 323.848 105.892 320.194 110.191C316.531 114.489 302.191 114.163 296.729 111.502C296.729 111.502 292.158 110.152 288.899 99.9246C286.858 93.5695 286.129 88.7043 285.858 86.2212Z" fill="black"/>
<path d="M287.099 126.276C284.569 127.673 279.386 130.241 273.217 131.211C267.048 132.181 263.401 132.6 260.895 135.805C260.895 135.805 269.857 145.885 271.417 164.197C272.542 177.412 268.787 183.945 268.787 183.945C268.787 183.945 270.54 191.224 273.854 196.694C277.167 202.172 270.098 221.641 268.367 228.229C266.637 234.809 264.72 244.051 264.72 244.051C265.341 246.549 277.167 269.394 309.323 269.394C341.478 269.394 355.275 249.917 355.895 247.287C356.516 244.656 352.636 229.61 350.285 217.141C347.926 204.663 346.266 194.064 348.276 184.915C350.285 175.767 353.824 163.359 354.654 152.55C355.484 141.741 353.475 131.692 351.954 130.443C350.433 129.194 348.485 129.403 343.015 128.294C337.536 127.184 334.27 126.036 331.577 124.841C331.577 124.841 329.986 123.715 321.738 124.553C313.489 125.384 307.46 127.533 300.112 125.803C292.756 124.072 289.287 125.058 287.099 126.276Z" fill="#E4E4E4"/>
<path d="M352.784 131.917C352.28 130.939 351.938 130.45 351.938 130.45C352.21 130.675 352.497 131.18 352.784 131.917Z" fill="#DEF1F8"/>
<path d="M350.278 217.149C349.859 214.922 349.463 212.764 349.106 210.654V210.646H284.313L275.336 188.562C280.03 175.255 278.664 161.582 275.336 155.32L270.106 155.801C270.695 158.37 271.153 161.171 271.417 164.197C272.542 177.412 268.786 183.945 268.786 183.945C268.786 183.945 270.54 191.224 273.853 196.694C277.167 202.173 270.098 221.641 268.367 228.229C267.731 230.658 267.227 232.761 266.87 234.577C269.299 236.121 276.437 233.219 276.437 233.219C276.437 233.219 322.413 250.173 327.332 248.893C331.437 247.83 346.941 231.054 351.985 225.506C351.379 222.712 350.797 219.864 350.278 217.149Z" fill="#D3D3D3"/>
<path d="M358.875 209.18L336.062 233.816C336.062 233.816 330.692 239.838 328.908 241.25C327.123 242.662 326.735 244.447 317.393 242.018C308.05 239.589 268.942 226.196 268.942 226.196C268.942 226.196 266.203 222.844 268.119 218.67C270.036 214.495 272.503 213.991 272.503 213.991L317.649 223.969L321.102 220.09L358.875 209.18Z" fill="#FFDBC2"/>
<path d="M268.779 183.945C268.779 183.945 277.803 203.189 279.029 205.424C280.255 207.659 280.426 207.837 284.795 207.488C289.163 207.139 339.337 202.941 339.337 202.941L340.617 215.558C340.617 215.558 276.794 229.129 271.65 230.293C268.174 231.085 266.552 229.936 264.278 226.196C262.005 222.456 249.124 196.818 249.124 196.818L268.779 183.945Z" fill="#FFDBC2"/>
<path d="M287.844 207.24C286.346 207.364 285.291 207.449 284.802 207.488C280.434 207.837 280.255 207.666 279.037 205.424C277.811 203.189 268.786 183.945 268.786 183.945L249.147 196.818C249.147 196.818 262.028 222.456 264.301 226.196C266.575 229.936 268.197 231.077 271.673 230.293C273.116 229.967 279.153 228.672 287.107 226.964C290.537 220.858 288.884 210.941 287.844 207.24Z" fill="white"/>
<path d="M234.652 184.465C234.652 184.465 208.075 160.543 203.552 155.321C199.035 150.098 197.336 146.257 193.387 144.674C189.429 143.091 189.662 144.333 187.171 144.674C184.688 145.016 183.105 144.558 181.072 146.141C179.039 147.724 177.906 147.499 176.44 148.74C174.973 149.982 172.94 153.769 173.274 155.321C173.615 156.872 173.84 162.296 181.522 163.088C189.204 163.879 192.37 165.571 192.37 165.571L221.236 205.424L234.652 184.465Z" fill="#F8C6A3"/>
<path d="M189.569 148.469C190.422 149.858 191.291 151.65 189.988 153.132C188.684 154.607 184.378 159.231 184.378 159.231C184.378 159.231 180.211 161.288 180.878 158.525C181.545 155.763 189.569 148.469 189.569 148.469Z" fill="#EAB18B"/>
<path d="M204.017 156.298C205.228 160.628 205.29 166.494 203.947 169.194C202.605 171.895 198.95 174.657 198.95 174.657L196.599 171.406L204.017 156.298Z" fill="#EAB18B"/>
<path d="M260.887 135.805C257.496 139.708 255.052 144.837 250.737 154.397C246.423 163.957 234.652 184.466 234.652 184.466L229.872 179.802C229.872 179.802 220.079 190.991 220.312 204.276C220.312 204.276 228.351 214.417 231.385 216.862C234.419 219.306 237.562 219.663 241.992 215.465C246.423 211.267 268.771 183.946 268.771 183.946C268.771 183.946 274.862 180.384 276.259 167.79C277.663 155.212 269.989 134.463 260.887 135.805Z" fill="#E4E4E4"/>
<path d="M233.527 183.364C231.502 185.171 222.951 197.401 225.007 209.994L225.985 211.143C225.985 211.143 225.061 211.934 223.734 210.491C222.4 209.048 217.736 204.159 216.96 202.716C216.184 201.273 216.627 194.832 219.847 187.173C223.067 179.515 227.048 175.829 228.933 177.35C230.819 178.871 231.494 179.523 232.945 181.067C233.923 182.099 234.924 183.208 234.66 184.473L233.527 183.364Z" fill="#D3D3D3"/>
<path d="M368.885 179.678C364.602 177.373 357.191 176.287 351.581 180.376C350.883 180.888 349.944 181.641 348.547 183.689C341.331 194.273 321.094 220.105 321.094 220.105C321.094 220.105 322.188 229.308 336.062 233.832L358.875 209.195C358.875 209.195 360.862 217.304 361.638 224.792C362.413 232.28 357.897 263.729 357.897 263.729C357.897 263.729 361.327 263.776 364.447 260.036C367.566 256.296 368.024 254.108 368.885 254.108C369.746 254.108 370.662 259.904 379.112 265.987C385.824 270.822 404.92 277.379 416.909 273.576C430.643 269.223 430.682 262.868 431.466 259.904C430.643 258.546 429.006 255.667 425.111 250.988C421.216 246.309 420.432 244.183 420.432 243.376C420.432 242.569 421.992 238.984 421.371 237.58C420.75 236.175 417.507 233.211 418.189 231.031C418.872 228.85 424.335 211.539 425.895 201.56C427.454 191.581 425.895 178.793 425.895 178.793L368.885 179.678Z" fill="white"/>
<path d="M354.545 179.011C359.069 177.738 369.382 181.657 371.919 184.132C374.456 186.607 375.597 197.789 388.206 202.359C400.816 206.93 421.332 203.872 421.332 203.872L410.112 177.009L371.554 171.282L354.545 179.011Z" fill="#B5B5B5"/>
<path opacity="0.2" d="M423.163 213.866C424.304 209.505 425.344 205.059 425.895 201.536C426.438 198.052 426.601 194.219 426.585 190.712C421.355 191.751 375.147 200.923 374.821 200.605C374.48 200.264 356.865 190.448 356.865 190.448L345.009 188.679C339.585 196.151 331.717 206.409 326.502 213.145C328.698 214.464 331.647 216 335.534 217.599C340.198 219.515 345.203 219.771 349.377 219.445L358.883 209.179C358.883 209.179 359.791 212.881 360.613 217.591C365.354 217.56 379.166 217.397 393.498 216.543C408.723 215.635 420.23 214.246 423.163 213.866Z" fill="black"/>
<path d="M442.865 123.405C447.497 121.706 461.464 117.772 468.836 118.656C476.208 119.541 486.443 123.374 490.571 127.805C494.699 132.228 494.404 147.18 494.404 152.294C494.404 157.408 492.053 169.07 490.229 174.354C488.406 179.639 487.909 191.441 488.212 201.078C488.507 210.716 494.505 234.026 495.684 236.78C496.864 239.535 491.238 243.95 482.664 247.318C472.01 251.492 455.653 252.618 455.653 252.618L450.244 237.572L449.166 253.114C449.166 253.114 442.873 254.588 435.695 253.51C428.517 252.431 425.763 250.165 425.173 249.281C424.583 248.396 422.69 223.216 424.281 209.203C424.281 209.203 436.292 201.381 438.155 191.945C440.025 182.479 442.865 123.405 442.865 123.405Z" fill="black"/>
<path d="M456.111 128.324C459.385 131.071 464.25 135.122 464.243 144.076C464.235 151.137 460.541 165.446 460.541 165.446L453.596 163.475L456.111 128.324Z" fill="#B5B5B5"/>
<path d="M490.229 174.346C492.053 169.062 494.404 157.407 494.404 152.286C494.404 147.871 494.621 136.115 492.022 130.14L488.716 126.144C483.882 122.443 475.276 119.424 468.836 118.656C466.547 118.384 463.629 118.571 460.557 119.013C461.814 119.463 465.29 122.319 466.306 124.468C467.331 126.61 470.597 128.348 474.687 127.432C478.776 126.509 478.365 127.921 480.615 134.268C482.865 140.616 485.93 151.246 485.93 151.246L475.408 155.328C475.408 155.328 452.068 167.192 439.978 173.276C439.652 177.823 439.319 181.943 439 185.249C446.83 183.464 457.786 181.059 460.898 180.872C465.903 180.57 474.283 181.687 478.473 182.409C480.84 182.812 485.542 180.779 489.189 178.925C489.469 177.117 489.81 175.557 490.229 174.346Z" fill="black"/>
<path d="M457.042 181.416V167.123L440.25 169.327C439.536 179.748 438.791 188.71 438.155 191.923C436.285 201.366 424.281 209.18 424.281 209.18C424.118 210.608 423.994 212.152 423.9 213.774C427.648 213.797 434.337 213.758 437.79 213.254C442.756 212.524 445.658 211.073 448.568 202.142C451.47 193.211 454.465 181.897 457.042 181.416Z" fill="black"/>
<path d="M421.34 185.652L371.182 193.28C368.008 193.722 362.902 191.689 358.883 189.765C354.864 187.848 354.274 187.212 349.346 187.173C344.419 187.142 339.841 185.148 338.902 186.669C337.963 188.197 340.508 191.247 343.946 192.07C347.383 192.892 349.579 193.334 349.579 193.334C349.579 193.334 345.645 193.327 341.952 193.334C338.266 193.342 336.52 193.87 335.418 195.08C334.308 196.291 334.526 198.557 333.517 199.193C332.516 199.829 331.197 200.931 331.197 202.568C331.197 204.205 328.512 205.416 328.458 206.89C328.403 208.365 327.953 208.745 328.892 210.056C329.831 211.368 337.102 215.061 343.325 215.48C349.548 215.899 355.244 214.495 358.883 213.571C361.638 212.873 363.143 212.322 369.304 212.066C374.006 211.864 399.947 210.646 399.947 210.646L421.34 185.652Z" fill="#E0A375"/>
<path d="M450.492 124.25C445.262 121.566 435.578 123.024 432.459 134.951C429.34 146.877 421.332 185.66 421.332 185.66L399.939 188.911C399.939 188.911 402.918 201.707 399.939 210.653C399.939 210.653 425.615 209.288 430.597 209.187C435.578 209.086 441.546 208.372 444.952 199.565C448.358 190.758 458.33 155.972 460.021 150.571C461.713 145.17 464.126 131.257 450.492 124.25Z" fill="#F2F2F2"/>
<path d="M385.979 103.564C377.816 105.698 370.297 112.387 368.295 123.103C366.293 133.819 367.062 138.599 370.918 147.7C374.775 156.802 379.213 162.824 377.553 172.391C375.892 181.959 378.973 187.375 385.979 194.173C395.966 203.864 421.006 206.223 433.53 194.173C445.201 182.944 435.703 166.867 435.703 166.867C435.703 166.867 444.378 158.96 442.368 150.315C440.359 141.671 437.123 139.662 429.712 135.727C422.302 131.793 418.267 123.25 416.102 117.849C413.945 112.456 404.897 98.6289 385.979 103.564Z" fill="black"/>
<path d="M377.552 172.392C376.435 178.809 377.467 183.364 380.377 187.717C385.731 189.928 396.245 193.731 398.674 194.181C401.103 194.623 416.645 190.836 418.189 190.945C419.733 191.061 421.603 191.837 425.77 190.96C429.937 190.084 431.466 187.709 431.466 187.709L438.659 185.637C440.126 180.244 438.946 174.875 437.666 171.267H377.708C377.661 171.647 377.622 172.012 377.552 172.392Z" fill="black"/>
<path d="M423.388 162.6C423.388 162.6 459.525 158.123 462.9 157.495C466.276 156.866 468.487 154.329 472.281 151.908C476.076 149.487 479.343 148.431 481.981 148.85C484.619 149.269 488.724 149.487 489.989 149.588C491.254 149.696 490.625 152.117 488.514 152.753C486.404 153.39 482.299 154.018 482.609 154.437C482.928 154.856 489.989 154.856 491.145 154.119C492.301 153.382 492.937 153.064 493.566 151.698C494.202 150.325 495.777 150.643 496.623 151.807C497.469 152.963 498.307 155.074 497.151 157.076C495.995 159.077 494.831 160.055 494.73 160.986C494.621 161.917 495.048 164.346 495.149 165.821C495.258 167.295 493.147 169.196 492.728 170.251C492.309 171.307 492.2 172.99 489.671 174.783C487.141 176.575 482.865 178.088 480.545 178.298C478.225 178.507 468.867 177.111 464.762 177.01C460.65 176.901 454.644 178.383 444.479 180.308C436.587 181.798 422.333 185.491 422.333 185.491L423.388 162.6Z" fill="#F8C6A3"/>
<path d="M351.946 130.444C351.946 130.444 354.731 129.73 358.371 132.081C362.01 134.432 405.2 162.716 406.022 163.181C406.845 163.647 423.396 162.592 423.396 162.592C423.396 162.592 425.98 175.853 422.341 185.475C422.341 185.475 404.501 188.524 401.801 189.347C399.101 190.169 397.223 189.82 391.939 187.818C386.654 185.824 369.638 179.368 364.478 178.545C359.31 177.723 352.31 177.63 348.477 184.016C348.477 184.016 346.499 175.542 348.811 162.095C351.247 147.864 351.946 130.444 351.946 130.444Z" fill="#E4E4E4"/>
<path opacity="0.37" d="M423.318 182.161C423.055 183.302 422.729 184.419 422.325 185.49C422.325 185.49 404.486 188.54 401.786 189.362C399.085 190.185 397.207 189.828 391.931 187.833C386.647 185.839 369.63 179.383 364.462 178.561C359.31 177.738 352.31 177.645 348.469 184.016C350.502 174.968 353.839 163.018 354.646 152.558C355.329 143.674 354.095 135.309 352.784 131.918C353.963 134.168 356.074 138.987 357.137 146.289C358.65 156.764 358.316 160.985 358.146 164.531C357.975 168.078 362.375 171.585 373.013 175.511C383.651 179.445 397.471 184.823 399.939 185.49C402.22 186.103 420.641 182.666 423.318 182.161Z" fill="#B5B5B5"/>
<path d="M418.189 162.902C418.181 161.513 420.036 161.335 422.954 161.164C425.871 160.986 427.283 160.606 428.339 162.033C429.402 163.461 430.643 169.289 430.597 175.124C430.566 179.469 429.573 185.017 427.982 185.723C426.391 186.429 424.893 186.608 423.039 186.872C421.184 187.135 418.554 187.663 418.189 186.204L419.415 185.987C419.415 185.987 421.355 180.687 421.355 175.116C421.355 167.473 419.943 162.802 419.943 162.802L418.189 162.902Z" fill="#D3D3D3"/>
<path d="M477.713 124.25C476.704 124.351 473.205 125.833 470.016 124.856C466.827 123.878 463.257 118.578 460.557 119.021L451.563 120.836C451.563 120.836 453.115 118.679 455.373 117.337C457.631 115.994 464.421 114.039 466.858 113.379C470.055 112.518 474.051 111.742 476.363 112.634C481.601 114.66 488.476 118.749 489.578 120.099C490.679 121.442 514.168 154.722 517.714 159.494C521.26 164.267 525.054 170.381 523.953 178.699C522.851 187.018 520.282 189.136 517.59 189.788C514.897 190.44 505.353 184.938 502.296 180.655C499.238 176.372 481.989 131.226 481.011 128.906C480.033 126.563 478.838 124.134 477.713 124.25Z" fill="#FFDBC2"/>
<path d="M253.764 231.938L253.252 235.36C253.252 235.36 250.264 236.167 248.581 235.966C246.889 235.764 246.191 235.26 246.617 234.724C247.044 234.189 249.752 232.8 251.11 231.644C254.074 229.106 254.059 225.436 252.034 226.204C250.862 226.646 249.876 227.469 248.371 227.748C246.711 228.059 245.221 228.516 242.497 229.044C239.766 229.58 237.772 230.821 236.608 231.721C235.568 232.52 234.637 233.087 233.186 232.916C229.422 231.628 221.531 228.936 214.097 226.406C206.19 223.713 198.811 221.199 197.476 220.734C194.504 219.702 193.759 218.739 193.332 216.66C192.463 212.47 189.996 203.872 189.996 203.872L175.889 224.963C175.889 224.963 176.277 227.593 177.829 232.249C179.381 236.905 181.453 238.713 185.068 239.101C186.985 239.302 198.33 241.436 209.271 243.617C209.271 243.617 228.561 247.76 233.473 249.025C238.385 250.29 243.11 251.089 246.09 250.577C249.069 250.065 250.877 247.869 251.576 246.852C252.274 245.836 252.957 245.937 254.726 244.726C256.495 243.516 255.471 240.769 256.169 239.613C256.984 238.263 257.783 237.681 257.683 235.469C257.59 233.265 253.764 231.938 253.764 231.938Z" fill="#87522D"/>
<path d="M104.85 141.741C104.85 141.741 113.859 163.46 114.635 165.16C115.411 166.859 117.064 166.673 127.748 166.293C138.433 165.912 161.076 164.973 164.094 164.027C167.113 163.08 168.059 161.194 169.565 158.556C171.078 155.918 172.397 153.838 178.814 151.767C185.231 149.695 188.902 147.235 189.569 148.477C189.934 149.152 190.523 151.029 187.978 153.024C185.433 155.026 181.809 157.648 182.314 158.269C182.81 158.898 197.142 155.84 199.175 154.149C201.216 152.457 200.44 151.448 200.44 151.448C200.44 151.448 202.171 151.022 203.172 152.643C204.173 154.265 204.343 159.821 203.948 162.351C203.552 164.88 203.047 168.38 199.928 171.251C196.809 174.122 191.548 176.807 186.745 178.04C182.88 179.034 177.433 178.467 170.434 180.089C163.435 181.711 138.402 187.515 124.924 190.557C112.765 193.304 99.6744 196.276 95.9886 195.026C92.3028 193.777 88.2445 185.862 82.999 171.127L104.85 141.741Z" fill="#FFDBC2"/>
<path d="M78.995 112.324C74.1918 114.396 67.2936 121.193 72.3916 142.043C77.4896 162.893 81.447 172.143 81.447 172.143C81.447 172.143 101.071 175.541 112.206 157.803C112.02 156.67 106.355 140.825 101.265 128.937C96.1669 117.042 89.9438 107.606 78.995 112.324Z" fill="black"/>
<path opacity="0.37" d="M287.099 126.276C287.099 126.276 293.532 127.285 296.977 129.264C300.415 131.243 304.193 132.081 309.974 131.91C315.763 131.739 319.534 130.148 323.057 128.387C326.58 126.626 329.086 124.662 331.569 124.849C331.569 124.849 330.273 122.56 309.897 122.56C289.505 122.56 287.099 126.276 287.099 126.276Z" fill="#D3D3D3"/>
<path d="M308.562 119.021C303.301 119.27 299.328 117.625 296.605 117.182C293.881 116.748 290.816 118.276 287.099 126.269C287.099 126.269 290.824 125.943 294.983 127.037C299.142 128.131 303.317 129.528 309.33 129.21C316.671 128.822 320.939 126.773 324.314 125.935C328.388 124.919 331.561 124.841 331.561 124.841C331.561 124.841 325.602 114.156 320.186 116.088C316.198 117.508 313.156 118.804 308.562 119.021Z" fill="#E4E4E4"/>
<path d="M288.992 232.978L313.994 223.17L309.633 222.208H309.423L277.353 229.067C280.682 230.193 284.732 231.558 288.992 232.978Z" fill="#EDC1A4"/>
<path d="M92.683 102.47C92.683 102.47 96.5162 109.05 102.251 112.13C108.769 115.622 114.573 114.955 114.573 114.955L117.009 118.082C117.009 118.082 109.754 119.836 101.335 115.451C93.4279 111.331 90.6267 105.147 90.6267 105.147L92.683 102.47Z" fill="black"/>
<path d="M185.674 243.858L189.189 243.221V238.713C188.133 240.304 186.962 242.034 185.674 243.858Z" fill="#D3D3D3"/>
<path d="M171.241 231.791C173.235 228.998 189.988 203.873 189.988 203.873C189.988 203.873 186.574 194.041 187.42 182.751C187.42 182.751 183.92 192.218 184.867 204.129C184.867 204.129 171.613 225.84 168.129 228.517C164.645 231.194 151.159 229.541 151.159 229.541C151.159 229.541 157.538 231.667 162.861 233.002C168.184 234.337 169.247 234.585 171.241 231.791Z" fill="#D3D3D3"/>
<path d="M191.664 209.901L177.371 230.534L175.881 224.963L189.988 203.872L191.664 209.901Z" fill="#633C21"/>
<path d="M125.615 111.184C125.615 111.184 135.966 111.215 142.724 100.165C142.724 100.165 139.59 114.148 125.188 113.24C125.312 112.503 125.459 111.812 125.615 111.184Z" fill="black"/>
<path d="M516.666 239.814C517.845 245.231 519.607 253.2 520.67 254.224C521.733 255.248 536.391 257.118 536.391 257.118L536.647 255.776C536.647 255.776 523.82 253.991 522.152 253.339C521.042 252.897 517.962 244.051 516.666 239.814Z" fill="white"/>
<path d="M444.836 284.06C444.836 284.06 442.492 268.292 442.671 252.184H440.894C440.894 252.184 439.288 262.729 442.632 284.06H444.836Z" fill="#E4E4E4"/>
<path d="M124.909 264.14C124.909 264.14 122.418 273.312 122.418 276.23C122.418 279.147 128.889 283.299 130.387 283.136C131.884 282.973 143.167 280.645 144.664 278.984C146.162 277.324 147.815 261.06 147.815 261.06C147.815 261.06 144.734 276.812 143.702 277.805C142.67 278.798 132.544 281.739 130.705 281.568C128.874 281.405 123.915 277.401 123.915 276.051C123.908 274.701 124.909 264.14 124.909 264.14Z" fill="#0021D7"/>
<path d="M108.187 259.244C105.727 264.715 103.632 272.094 102.809 273.281C101.987 274.468 93.0942 275.151 93.0942 275.151L93.49 273.436C93.49 273.436 99.201 272.916 100.644 272.645C102.088 272.373 102.452 271.147 103.267 269.207C104.09 267.268 108.187 259.244 108.187 259.244Z" fill="#0021D7"/>
<path d="M67.8989 284.059L77.6838 246.495H79.127L69.7767 284.059H67.8989Z" fill="white"/>
<path d="M76.2713 256.606C83.0299 257.499 92.4966 256.226 95.9496 245.138L96.1514 247.551C96.1514 247.551 94.8865 253.596 89.6023 256.28C84.318 258.958 79.22 258.663 75.7825 257.84L76.2713 256.606Z" fill="white"/>
<path d="M451.975 256.583C452.828 263.395 453.767 270.604 455.497 272.102C457.228 273.599 469.519 274.398 471.18 273.801C472.84 273.204 477.643 268.23 477.744 266.414C477.845 264.598 475.579 249.785 475.579 249.785C475.579 249.785 476.099 264.451 475.959 265.941C475.82 267.43 472.041 271.807 470.241 272.102C468.44 272.397 458.431 272.451 457.034 270.829C455.637 269.2 451.975 256.583 451.975 256.583Z" fill="#E4E4E4"/>
<path d="M510.078 235.508C510.078 235.508 513.143 247.481 515.075 258.36C517.008 269.231 517.954 284.067 517.954 284.067H516.061C516.061 284.067 515.743 271.442 513.384 258.36C511.017 245.277 508.34 235.508 508.34 235.508H510.078Z" fill="white"/>
<path d="M483.455 250.127C485.061 259.632 486.14 267.609 484.767 274.693C483.393 281.778 483.005 284.059 483.005 284.059H484.2C484.2 284.059 485.55 276.882 486.241 273.258C486.924 269.634 486.73 263.745 484.627 249.785L483.455 250.127Z" fill="#E4E4E4"/>
<path d="M491.595 246.597C492.495 252.579 493.286 259.462 493.985 261.061C494.683 262.659 499.339 264.063 499.339 264.063L499.316 265.352C499.316 265.352 494.187 264.327 492.689 261.899C491.191 259.462 491.595 246.597 491.595 246.597Z" fill="#E4E4E4"/>
<rect x="54.3315" y="283.887" width="493.254" height="1.18286" fill="black"/>
<rect x="548.768" y="283.887" width="7.09717" height="1.18286" fill="black"/>
</svg>
