<svg width="1407" height="36" viewBox="0 0 1407 21" fill="none" xmlns="http://www.w3.org/2000/svg">
<circle cx="1.5" cy="1.5" r="1.5" fill="black" fill-opacity="0.25"/>
<circle cx="19.5" cy="1.5" r="1.5" fill="black" fill-opacity="0.25"/>
<circle cx="37.5" cy="1.5" r="1.5" fill="black" fill-opacity="0.25"/>
<circle cx="55.5" cy="1.5" r="1.5" fill="black" fill-opacity="0.25"/>
<circle cx="73.5" cy="1.5" r="1.5" fill="black" fill-opacity="0.25"/>
<circle cx="91.5" cy="1.5" r="1.5" fill="black" fill-opacity="0.25"/>
<circle cx="109.5" cy="1.5" r="1.5" fill="black" fill-opacity="0.25"/>
<circle cx="127.5" cy="1.5" r="1.5" fill="black" fill-opacity="0.25"/>
<circle cx="145.5" cy="1.5" r="1.5" fill="black" fill-opacity="0.25"/>
<circle cx="163.5" cy="1.5" r="1.5" fill="black" fill-opacity="0.25"/>
<circle cx="181.5" cy="1.5" r="1.5" fill="black" fill-opacity="0.25"/>
<circle cx="199.5" cy="1.5" r="1.5" fill="black" fill-opacity="0.25"/>
<circle cx="217.5" cy="1.5" r="1.5" fill="black" fill-opacity="0.25"/>
<circle cx="235.5" cy="1.5" r="1.5" fill="black" fill-opacity="0.25"/>
<circle cx="253.5" cy="1.5" r="1.5" fill="black" fill-opacity="0.25"/>
<circle cx="271.5" cy="1.5" r="1.5" fill="black" fill-opacity="0.25"/>
<circle cx="289.5" cy="1.5" r="1.5" fill="black" fill-opacity="0.25"/>
<circle cx="307.5" cy="1.5" r="1.5" fill="black" fill-opacity="0.25"/>
<circle cx="325.5" cy="1.5" r="1.5" fill="black" fill-opacity="0.25"/>
<circle cx="343.5" cy="1.5" r="1.5" fill="black" fill-opacity="0.25"/>
<circle cx="361.5" cy="1.5" r="1.5" fill="black" fill-opacity="0.25"/>
<circle cx="379.5" cy="1.5" r="1.5" fill="black" fill-opacity="0.25"/>
<circle cx="397.5" cy="1.5" r="1.5" fill="black" fill-opacity="0.25"/>
<circle cx="415.5" cy="1.5" r="1.5" fill="black" fill-opacity="0.25"/>
<circle cx="433.5" cy="1.5" r="1.5" fill="black" fill-opacity="0.25"/>
<circle cx="451.5" cy="1.5" r="1.5" fill="black" fill-opacity="0.25"/>
<circle cx="469.5" cy="1.5" r="1.5" fill="black" fill-opacity="0.25"/>
<circle cx="487.5" cy="1.5" r="1.5" fill="black" fill-opacity="0.25"/>
<circle cx="505.5" cy="1.5" r="1.5" fill="black" fill-opacity="0.25"/>
<circle cx="523.5" cy="1.5" r="1.5" fill="black" fill-opacity="0.25"/>
<circle cx="541.5" cy="1.5" r="1.5" fill="black" fill-opacity="0.25"/>
<circle cx="559.5" cy="1.5" r="1.5" fill="black" fill-opacity="0.25"/>
<circle cx="577.5" cy="1.5" r="1.5" fill="black" fill-opacity="0.25"/>
<circle cx="595.5" cy="1.5" r="1.5" fill="black" fill-opacity="0.25"/>
<circle cx="613.5" cy="1.5" r="1.5" fill="black" fill-opacity="0.25"/>
<circle cx="631.5" cy="1.5" r="1.5" fill="black" fill-opacity="0.25"/>
<circle cx="649.5" cy="1.5" r="1.5" fill="black" fill-opacity="0.25"/>
<circle cx="667.5" cy="1.5" r="1.5" fill="black" fill-opacity="0.25"/>
<circle cx="685.5" cy="1.5" r="1.5" fill="black" fill-opacity="0.25"/>
<circle cx="703.5" cy="1.5" r="1.5" fill="black" fill-opacity="0.25"/>
<circle cx="721.5" cy="1.5" r="1.5" fill="black" fill-opacity="0.25"/>
<circle cx="739.5" cy="1.5" r="1.5" fill="black" fill-opacity="0.25"/>
<circle cx="757.5" cy="1.5" r="1.5" fill="black" fill-opacity="0.25"/>
<circle cx="775.5" cy="1.5" r="1.5" fill="black" fill-opacity="0.25"/>
<circle cx="793.5" cy="1.5" r="1.5" fill="black" fill-opacity="0.25"/>
<circle cx="811.5" cy="1.5" r="1.5" fill="black" fill-opacity="0.25"/>
<circle cx="829.5" cy="1.5" r="1.5" fill="black" fill-opacity="0.25"/>
<circle cx="847.5" cy="1.5" r="1.5" fill="black" fill-opacity="0.25"/>
<circle cx="865.5" cy="1.5" r="1.5" fill="black" fill-opacity="0.25"/>
<circle cx="883.5" cy="1.5" r="1.5" fill="black" fill-opacity="0.25"/>
<circle cx="901.5" cy="1.5" r="1.5" fill="black" fill-opacity="0.25"/>
<circle cx="919.5" cy="1.5" r="1.5" fill="black" fill-opacity="0.25"/>
<circle cx="937.5" cy="1.5" r="1.5" fill="black" fill-opacity="0.25"/>
<circle cx="955.5" cy="1.5" r="1.5" fill="black" fill-opacity="0.25"/>
<circle cx="973.5" cy="1.5" r="1.5" fill="black" fill-opacity="0.25"/>
<circle cx="991.5" cy="1.5" r="1.5" fill="black" fill-opacity="0.25"/>
<circle cx="1009.5" cy="1.5" r="1.5" fill="black" fill-opacity="0.25"/>
<circle cx="1027.5" cy="1.5" r="1.5" fill="black" fill-opacity="0.25"/>
<circle cx="1045.5" cy="1.5" r="1.5" fill="black" fill-opacity="0.25"/>
<circle cx="1063.5" cy="1.5" r="1.5" fill="black" fill-opacity="0.25"/>
<circle cx="1081.5" cy="1.5" r="1.5" fill="black" fill-opacity="0.25"/>
<circle cx="1099.5" cy="1.5" r="1.5" fill="black" fill-opacity="0.25"/>
<circle cx="1117.5" cy="1.5" r="1.5" fill="black" fill-opacity="0.25"/>
<circle cx="1135.5" cy="1.5" r="1.5" fill="black" fill-opacity="0.25"/>
<circle cx="1153.5" cy="1.5" r="1.5" fill="black" fill-opacity="0.25"/>
<circle cx="1171.5" cy="1.5" r="1.5" fill="black" fill-opacity="0.25"/>
<circle cx="1189.5" cy="1.5" r="1.5" fill="black" fill-opacity="0.25"/>
<circle cx="1207.5" cy="1.5" r="1.5" fill="black" fill-opacity="0.25"/>
<circle cx="1225.5" cy="1.5" r="1.5" fill="black" fill-opacity="0.25"/>
<circle cx="1243.5" cy="1.5" r="1.5" fill="black" fill-opacity="0.25"/>
<circle cx="1261.5" cy="1.5" r="1.5" fill="black" fill-opacity="0.25"/>
<circle cx="1279.5" cy="1.5" r="1.5" fill="black" fill-opacity="0.25"/>
<circle cx="1297.5" cy="1.5" r="1.5" fill="black" fill-opacity="0.25"/>
<circle cx="1315.5" cy="1.5" r="1.5" fill="black" fill-opacity="0.25"/>
<circle cx="1333.5" cy="1.5" r="1.5" fill="black" fill-opacity="0.25"/>
<circle cx="1351.5" cy="1.5" r="1.5" fill="black" fill-opacity="0.25"/>
<circle cx="1369.5" cy="1.5" r="1.5" fill="black" fill-opacity="0.25"/>
<circle cx="1387.5" cy="1.5" r="1.5" fill="black" fill-opacity="0.25"/>
<circle cx="1405.5" cy="1.5" r="1.5" fill="black" fill-opacity="0.25"/>
<circle cx="1.5" cy="19.5" r="1.5" fill="black" fill-opacity="0.25"/>
<circle cx="19.5" cy="19.5" r="1.5" fill="black" fill-opacity="0.25"/>
<circle cx="37.5" cy="19.5" r="1.5" fill="black" fill-opacity="0.25"/>
<circle cx="55.5" cy="19.5" r="1.5" fill="black" fill-opacity="0.25"/>
<circle cx="73.5" cy="19.5" r="1.5" fill="black" fill-opacity="0.25"/>
<circle cx="91.5" cy="19.5" r="1.5" fill="black" fill-opacity="0.25"/>
<circle cx="109.5" cy="19.5" r="1.5" fill="black" fill-opacity="0.25"/>
<circle cx="127.5" cy="19.5" r="1.5" fill="black" fill-opacity="0.25"/>
<circle cx="145.5" cy="19.5" r="1.5" fill="black" fill-opacity="0.25"/>
<circle cx="163.5" cy="19.5" r="1.5" fill="black" fill-opacity="0.25"/>
<circle cx="181.5" cy="19.5" r="1.5" fill="black" fill-opacity="0.25"/>
<circle cx="199.5" cy="19.5" r="1.5" fill="black" fill-opacity="0.25"/>
<circle cx="217.5" cy="19.5" r="1.5" fill="black" fill-opacity="0.25"/>
<circle cx="235.5" cy="19.5" r="1.5" fill="black" fill-opacity="0.25"/>
<circle cx="253.5" cy="19.5" r="1.5" fill="black" fill-opacity="0.25"/>
<circle cx="271.5" cy="19.5" r="1.5" fill="black" fill-opacity="0.25"/>
<circle cx="289.5" cy="19.5" r="1.5" fill="black" fill-opacity="0.25"/>
<circle cx="307.5" cy="19.5" r="1.5" fill="black" fill-opacity="0.25"/>
<circle cx="325.5" cy="19.5" r="1.5" fill="black" fill-opacity="0.25"/>
<circle cx="343.5" cy="19.5" r="1.5" fill="black" fill-opacity="0.25"/>
<circle cx="361.5" cy="19.5" r="1.5" fill="black" fill-opacity="0.25"/>
<circle cx="379.5" cy="19.5" r="1.5" fill="black" fill-opacity="0.25"/>
<circle cx="397.5" cy="19.5" r="1.5" fill="black" fill-opacity="0.25"/>
<circle cx="415.5" cy="19.5" r="1.5" fill="black" fill-opacity="0.25"/>
<circle cx="433.5" cy="19.5" r="1.5" fill="black" fill-opacity="0.25"/>
<circle cx="451.5" cy="19.5" r="1.5" fill="black" fill-opacity="0.25"/>
<circle cx="469.5" cy="19.5" r="1.5" fill="black" fill-opacity="0.25"/>
<circle cx="487.5" cy="19.5" r="1.5" fill="black" fill-opacity="0.25"/>
<circle cx="505.5" cy="19.5" r="1.5" fill="black" fill-opacity="0.25"/>
<circle cx="523.5" cy="19.5" r="1.5" fill="black" fill-opacity="0.25"/>
<circle cx="541.5" cy="19.5" r="1.5" fill="black" fill-opacity="0.25"/>
<circle cx="559.5" cy="19.5" r="1.5" fill="black" fill-opacity="0.25"/>
<circle cx="577.5" cy="19.5" r="1.5" fill="black" fill-opacity="0.25"/>
<circle cx="595.5" cy="19.5" r="1.5" fill="black" fill-opacity="0.25"/>
<circle cx="613.5" cy="19.5" r="1.5" fill="black" fill-opacity="0.25"/>
<circle cx="631.5" cy="19.5" r="1.5" fill="black" fill-opacity="0.25"/>
<circle cx="649.5" cy="19.5" r="1.5" fill="black" fill-opacity="0.25"/>
<circle cx="667.5" cy="19.5" r="1.5" fill="black" fill-opacity="0.25"/>
<circle cx="685.5" cy="19.5" r="1.5" fill="black" fill-opacity="0.25"/>
<circle cx="703.5" cy="19.5" r="1.5" fill="black" fill-opacity="0.25"/>
<circle cx="721.5" cy="19.5" r="1.5" fill="black" fill-opacity="0.25"/>
<circle cx="739.5" cy="19.5" r="1.5" fill="black" fill-opacity="0.25"/>
<circle cx="757.5" cy="19.5" r="1.5" fill="black" fill-opacity="0.25"/>
<circle cx="775.5" cy="19.5" r="1.5" fill="black" fill-opacity="0.25"/>
<circle cx="793.5" cy="19.5" r="1.5" fill="black" fill-opacity="0.25"/>
<circle cx="811.5" cy="19.5" r="1.5" fill="black" fill-opacity="0.25"/>
<circle cx="829.5" cy="19.5" r="1.5" fill="black" fill-opacity="0.25"/>
<circle cx="847.5" cy="19.5" r="1.5" fill="black" fill-opacity="0.25"/>
<circle cx="865.5" cy="19.5" r="1.5" fill="black" fill-opacity="0.25"/>
<circle cx="883.5" cy="19.5" r="1.5" fill="black" fill-opacity="0.25"/>
<circle cx="901.5" cy="19.5" r="1.5" fill="black" fill-opacity="0.25"/>
<circle cx="919.5" cy="19.5" r="1.5" fill="black" fill-opacity="0.25"/>
<circle cx="937.5" cy="19.5" r="1.5" fill="black" fill-opacity="0.25"/>
<circle cx="955.5" cy="19.5" r="1.5" fill="black" fill-opacity="0.25"/>
<circle cx="973.5" cy="19.5" r="1.5" fill="black" fill-opacity="0.25"/>
<circle cx="991.5" cy="19.5" r="1.5" fill="black" fill-opacity="0.25"/>
<circle cx="1009.5" cy="19.5" r="1.5" fill="black" fill-opacity="0.25"/>
<circle cx="1027.5" cy="19.5" r="1.5" fill="black" fill-opacity="0.25"/>
<circle cx="1045.5" cy="19.5" r="1.5" fill="black" fill-opacity="0.25"/>
<circle cx="1063.5" cy="19.5" r="1.5" fill="black" fill-opacity="0.25"/>
<circle cx="1081.5" cy="19.5" r="1.5" fill="black" fill-opacity="0.25"/>
<circle cx="1099.5" cy="19.5" r="1.5" fill="black" fill-opacity="0.25"/>
<circle cx="1117.5" cy="19.5" r="1.5" fill="black" fill-opacity="0.25"/>
<circle cx="1135.5" cy="19.5" r="1.5" fill="black" fill-opacity="0.25"/>
<circle cx="1153.5" cy="19.5" r="1.5" fill="black" fill-opacity="0.25"/>
<circle cx="1171.5" cy="19.5" r="1.5" fill="black" fill-opacity="0.25"/>
<circle cx="1189.5" cy="19.5" r="1.5" fill="black" fill-opacity="0.25"/>
<circle cx="1207.5" cy="19.5" r="1.5" fill="black" fill-opacity="0.25"/>
<circle cx="1225.5" cy="19.5" r="1.5" fill="black" fill-opacity="0.25"/>
<circle cx="1243.5" cy="19.5" r="1.5" fill="black" fill-opacity="0.25"/>
<circle cx="1261.5" cy="19.5" r="1.5" fill="black" fill-opacity="0.25"/>
<circle cx="1279.5" cy="19.5" r="1.5" fill="black" fill-opacity="0.25"/>
<circle cx="1297.5" cy="19.5" r="1.5" fill="black" fill-opacity="0.25"/>
<circle cx="1315.5" cy="19.5" r="1.5" fill="black" fill-opacity="0.25"/>
<circle cx="1333.5" cy="19.5" r="1.5" fill="black" fill-opacity="0.25"/>
<circle cx="1351.5" cy="19.5" r="1.5" fill="black" fill-opacity="0.25"/>
<circle cx="1369.5" cy="19.5" r="1.5" fill="black" fill-opacity="0.25"/>
<circle cx="1387.5" cy="19.5" r="1.5" fill="black" fill-opacity="0.25"/>
<circle cx="1405.5" cy="19.5" r="1.5" fill="black" fill-opacity="0.25"/>
</svg>
